{"glyphs":{"0":{"ha":1083,"x_min":42,"x_max":1042,"o":"m 104 -53 q 97 -46 100 -50 q 83 -7 86 -31 q 82 4 82 -3 q 71 40 82 22 q 65 47 68 43 q 60 54 63 50 q 46 83 50 65 q 44 92 44 88 q 43 101 43 96 q 43 122 42 113 q 44 127 43 125 q 44 132 44 129 q 69 179 50 158 q 76 188 71 182 q 93 203 86 194 q 108 219 100 211 q 154 258 128 240 l 175 272 q 224 306 200 294 q 240 314 233 308 q 254 325 247 319 q 260 338 261 331 q 257 349 258 343 q 254 360 256 354 q 249 397 251 378 q 247 433 247 415 l 247 472 q 248 492 247 482 q 250 511 249 501 l 254 556 q 256 566 256 561 q 257 576 256 571 q 262 599 260 588 q 267 622 264 611 q 274 649 269 636 q 283 674 278 661 q 295 696 289 685 q 307 717 301 707 q 322 739 314 728 q 339 760 331 750 q 367 783 353 774 q 422 814 392 801 q 493 832 453 828 l 539 840 q 550 844 546 840 q 567 858 558 851 q 583 871 575 864 q 587 874 586 872 q 589 876 588 875 q 614 892 600 890 q 630 894 622 893 q 646 897 638 896 q 694 881 674 906 q 703 863 701 872 q 703 852 703 857 q 706 842 704 847 q 719 811 706 825 q 733 794 726 803 q 744 778 739 786 q 751 767 747 772 q 757 756 754 763 q 765 736 761 746 q 775 717 769 726 q 781 708 778 711 q 783 707 781 707 q 785 708 785 707 q 786 708 785 708 l 876 783 q 885 791 881 788 q 896 799 890 794 q 953 824 921 817 q 997 821 975 829 q 1017 808 1008 815 q 1031 789 1026 801 q 1040 761 1036 776 q 1040 742 1042 751 l 1032 719 q 1027 710 1031 714 q 1021 701 1024 706 q 1010 691 1015 696 q 997 683 1004 686 q 992 681 994 682 q 986 678 989 679 q 978 674 982 676 q 971 668 974 671 q 956 660 963 661 q 937 654 946 658 q 921 644 928 650 q 902 633 911 639 q 883 622 893 628 q 864 607 874 617 l 832 579 l 826 574 q 822 560 821 568 l 826 528 q 832 493 829 510 q 836 458 835 476 q 838 440 838 449 q 839 421 839 431 q 842 402 840 411 q 844 383 843 393 q 847 352 847 368 q 846 321 847 336 q 843 304 844 313 q 839 288 842 296 q 835 272 838 279 q 833 256 833 264 q 825 218 832 238 q 819 197 822 208 q 811 174 815 185 q 800 146 807 160 q 786 118 793 132 q 780 108 783 113 q 774 100 776 104 q 763 89 768 94 q 754 76 758 83 q 738 60 749 67 q 717 54 726 53 q 715 55 715 54 q 713 56 714 56 q 709 54 711 54 q 706 53 707 54 l 683 36 q 621 3 654 15 q 614 0 619 3 q 593 -15 603 -4 q 585 -26 590 -18 q 563 -39 576 -37 q 536 -26 544 -42 q 534 -21 535 -24 q 531 -15 533 -18 q 513 -1 526 -1 q 496 5 504 1 q 481 11 488 8 q 448 29 464 19 q 417 49 432 39 q 409 54 413 51 q 403 60 406 57 l 372 92 l 356 113 q 340 136 347 124 q 325 163 332 149 q 317 176 322 169 q 310 190 313 183 q 308 192 310 192 q 304 192 306 193 l 299 186 q 292 180 296 183 q 285 174 289 176 q 272 161 278 168 q 260 147 265 154 q 253 137 257 142 q 243 126 249 132 q 216 97 229 113 q 190 67 203 82 q 169 50 182 57 q 143 10 147 39 q 141 -5 142 3 q 140 -21 140 -12 q 140 -28 140 -24 q 139 -36 139 -32 q 131 -49 138 -44 q 104 -53 119 -60 m 383 418 l 393 424 q 415 440 404 432 q 435 456 425 447 q 469 482 453 468 q 503 510 486 496 q 535 537 518 525 q 571 561 553 549 q 595 576 583 568 q 619 592 607 585 q 626 597 622 594 q 633 603 631 600 q 636 613 638 607 q 635 618 635 615 q 633 622 635 621 q 624 647 629 635 q 615 671 619 658 l 611 681 q 600 685 607 689 l 592 681 q 575 681 583 676 q 565 686 569 683 q 554 699 557 694 q 539 707 549 704 q 515 707 528 711 q 496 699 506 703 q 476 692 486 696 q 450 678 458 686 q 431 660 440 669 q 415 639 422 651 q 411 632 414 638 q 404 622 407 628 q 385 558 389 589 l 381 526 q 376 497 378 513 q 374 461 375 481 q 375 443 374 454 q 378 421 376 432 q 383 418 381 415 m 565 157 q 625 182 597 161 q 653 210 640 194 q 672 243 665 225 l 693 299 q 697 314 696 306 q 699 329 699 322 q 697 338 697 333 q 696 344 697 342 q 693 363 694 354 q 690 381 692 372 q 689 391 689 386 q 688 401 689 396 l 683 447 q 682 453 682 450 q 679 460 682 457 q 675 463 676 463 q 672 461 674 461 q 668 460 669 461 l 639 443 q 601 417 621 429 q 564 390 582 404 q 542 374 553 382 q 519 357 531 365 l 442 296 q 424 281 431 288 q 421 271 419 276 l 424 267 q 438 241 431 254 q 450 215 444 228 q 472 192 458 201 q 499 172 483 182 q 565 157 528 153 z "},"1":{"ha":297,"x_min":56,"x_max":243,"o":"m 181 65 q 162 63 171 61 q 143 68 153 64 q 133 74 138 71 q 125 79 129 76 q 114 96 115 86 q 106 117 110 107 q 104 139 103 128 q 103 155 104 147 q 101 171 103 163 q 98 206 100 189 q 96 240 96 222 q 94 253 96 249 l 94 260 q 93 279 94 269 q 90 299 92 289 q 86 338 86 318 l 82 367 q 78 390 79 378 q 75 414 78 403 q 73 449 74 432 q 71 483 72 465 q 68 503 71 492 q 66 519 67 511 q 65 535 65 526 q 64 549 64 542 q 64 564 64 557 q 64 585 64 575 q 61 606 64 596 q 59 615 60 611 q 60 624 58 619 l 60 633 q 58 648 58 640 q 57 663 57 656 q 57 691 56 678 q 58 718 58 704 q 61 732 58 724 q 68 750 64 742 q 76 767 72 758 q 86 784 79 776 q 100 797 93 792 q 114 803 108 803 q 129 801 121 801 q 144 794 138 800 q 165 765 161 785 l 169 751 q 178 738 176 746 q 183 722 181 729 q 188 694 190 710 q 190 657 186 678 q 193 644 190 653 q 194 629 194 640 q 195 613 194 621 q 197 597 196 606 q 199 590 199 594 q 199 583 199 586 q 200 573 200 578 q 201 564 200 568 q 204 540 203 551 q 206 515 206 528 q 206 509 206 513 q 207 503 207 506 l 208 497 q 208 481 207 489 q 208 464 208 472 q 211 436 210 450 q 213 407 213 422 q 215 398 214 403 q 218 390 217 393 q 218 379 221 383 q 218 369 215 375 q 221 356 218 364 q 222 343 222 350 q 222 332 222 336 q 224 307 224 319 q 226 282 225 294 q 229 257 229 269 q 231 232 229 244 q 231 228 232 231 q 232 222 231 225 q 234 207 235 215 q 235 190 233 199 q 238 172 236 181 q 240 154 239 164 q 238 126 243 138 q 235 119 236 122 q 233 113 233 115 q 228 101 232 106 q 219 90 225 96 q 190 69 207 78 l 181 65 z "},"2":{"ha":807,"x_min":56,"x_max":756,"o":"m 243 42 q 240 42 242 42 q 236 43 239 43 l 221 50 l 218 47 q 211 43 214 42 q 201 47 207 46 q 190 47 196 47 q 163 49 176 46 q 136 57 150 51 l 128 61 q 103 88 113 69 q 98 98 100 93 q 93 108 96 103 q 93 117 92 113 q 117 167 97 144 q 133 184 125 175 q 151 200 142 193 q 172 215 161 207 q 192 229 182 222 q 231 256 211 243 q 268 283 250 269 q 317 347 301 308 q 335 393 326 371 q 351 438 343 415 q 365 476 358 457 q 378 513 371 494 q 387 544 383 528 q 392 575 390 560 q 386 619 394 599 q 375 631 383 628 q 364 635 369 633 q 353 638 358 636 q 340 636 344 638 q 337 635 339 635 q 333 633 335 635 q 276 597 303 619 q 268 590 272 593 q 260 583 264 586 q 242 565 250 575 q 230 553 236 560 q 218 539 224 546 q 200 507 206 525 q 175 474 194 486 q 156 453 163 464 q 132 433 149 440 q 111 435 121 428 l 100 447 q 89 463 94 454 q 76 476 83 471 q 73 482 75 479 q 69 489 71 485 q 64 502 67 496 q 58 515 61 508 q 57 524 57 518 q 56 534 56 529 q 56 544 56 539 q 58 553 57 549 q 60 561 58 557 q 86 600 67 586 q 157 658 119 629 q 166 665 161 661 q 176 672 171 669 q 205 694 192 683 q 232 714 218 704 q 256 733 244 724 q 282 747 268 742 q 313 762 297 756 q 346 769 328 768 q 353 771 349 771 q 360 771 357 771 q 390 767 375 769 q 419 757 406 764 q 460 736 442 749 q 467 731 465 733 q 491 704 479 718 q 508 672 503 690 q 515 653 511 663 q 521 632 519 643 q 523 622 522 626 q 524 610 524 617 q 511 529 525 568 q 507 513 510 521 q 501 494 504 504 q 495 474 499 485 q 488 453 492 464 q 476 423 482 438 q 465 393 471 408 q 456 365 460 379 q 447 338 451 351 q 435 306 442 322 q 421 275 428 290 q 376 217 403 246 q 366 208 371 213 q 356 197 361 203 l 356 193 q 358 192 358 193 l 361 192 q 376 194 368 193 q 393 196 385 194 l 453 204 l 457 204 q 488 208 472 207 q 517 210 503 208 l 524 210 q 556 213 540 213 q 589 213 572 213 q 606 212 597 213 q 624 210 615 211 q 638 210 631 210 q 653 213 646 211 q 665 215 661 215 q 728 196 700 221 q 749 161 743 181 l 750 151 q 740 106 756 128 q 731 94 735 97 q 724 89 729 92 q 712 83 718 86 q 699 79 706 81 q 695 78 697 78 q 690 76 693 78 q 666 74 678 72 q 643 79 654 75 q 601 88 625 88 q 590 88 596 88 q 578 89 585 88 l 568 90 l 525 90 q 514 89 518 90 q 497 88 506 88 q 479 89 488 88 q 472 90 475 90 q 464 88 468 89 q 458 87 461 88 q 450 85 454 86 q 433 80 436 79 q 415 79 431 81 l 400 79 q 387 77 393 78 q 374 74 381 76 q 364 72 368 72 q 354 74 360 72 q 326 68 342 75 q 319 64 322 67 q 311 58 315 61 q 310 59 310 57 q 307 63 310 61 q 299 63 303 65 q 294 58 296 61 q 288 54 292 54 l 272 54 q 260 48 267 54 q 243 42 253 42 z "},"3":{"ha":835,"x_min":53,"x_max":781,"o":"m 389 -14 q 363 -10 375 -10 q 335 3 346 -10 q 331 7 333 6 q 325 10 328 8 q 313 17 318 13 q 301 28 307 22 l 282 51 q 278 58 281 54 q 274 65 276 63 q 269 74 269 69 q 271 83 269 79 q 283 99 274 92 q 292 107 290 101 q 303 126 294 119 q 322 139 311 133 q 356 149 338 146 q 364 149 360 149 q 372 147 368 149 q 380 147 376 147 q 388 144 383 146 q 417 143 401 139 q 448 152 432 147 q 479 163 464 157 l 521 179 q 551 193 539 186 q 572 202 563 197 q 590 213 581 207 q 606 223 599 217 q 619 235 614 229 q 632 250 629 244 q 638 278 642 264 q 635 294 636 286 q 631 310 633 301 q 624 326 628 318 q 617 344 619 335 q 613 351 614 350 q 597 371 604 361 q 583 390 590 381 q 571 403 578 399 q 556 413 564 408 q 545 416 550 414 q 535 419 540 418 q 522 424 529 422 q 508 428 515 426 q 472 435 490 432 q 436 442 454 439 q 403 450 419 444 q 383 458 386 458 q 376 458 381 458 q 351 468 372 458 q 336 469 343 474 q 318 472 329 465 q 318 481 314 476 q 319 490 322 485 q 315 504 317 497 q 310 517 313 511 q 308 529 307 525 q 310 531 310 531 q 310 532 310 532 q 311 540 311 536 q 313 546 311 543 q 319 558 315 553 q 325 568 322 563 q 357 608 339 589 q 393 655 375 632 q 429 700 411 678 q 444 724 439 711 q 455 738 450 731 q 464 753 460 746 q 468 762 467 757 q 471 771 469 767 q 472 783 474 779 q 471 796 472 792 q 468 800 471 797 l 467 801 l 465 801 q 440 806 453 804 q 414 807 426 807 l 400 807 q 390 808 394 808 q 382 806 386 807 q 354 801 368 804 q 325 796 340 799 l 324 796 q 282 785 303 790 q 242 772 261 779 q 224 765 232 768 q 206 760 215 763 q 194 756 200 758 q 185 750 189 753 q 154 739 172 742 q 150 738 151 739 q 128 735 139 735 q 107 736 118 735 q 83 744 93 739 q 76 750 81 746 q 74 754 75 753 q 69 757 72 756 q 64 765 64 761 q 60 775 64 771 q 56 786 56 779 q 63 824 53 806 q 70 838 65 831 q 82 850 75 846 q 126 869 99 865 l 160 874 q 180 875 171 874 q 199 878 189 876 q 232 883 215 881 q 264 889 249 886 q 299 895 282 892 q 333 900 315 899 q 358 902 346 903 q 383 903 371 901 q 388 902 386 903 q 390 901 389 901 q 411 908 404 901 q 426 911 418 915 q 443 908 435 910 q 460 906 451 907 q 480 901 471 904 q 499 896 489 899 l 525 888 q 535 883 531 886 q 544 876 539 879 q 564 859 557 867 q 579 836 571 851 q 589 794 594 817 q 583 765 586 779 q 572 736 579 750 l 551 692 q 545 678 549 686 q 539 664 542 671 l 522 640 q 506 612 514 626 q 486 583 497 597 l 485 582 q 488 572 482 575 q 497 569 493 569 q 532 563 515 568 q 565 553 549 557 q 606 540 588 549 q 643 518 625 531 q 701 460 676 493 q 722 429 713 446 q 740 396 732 413 l 758 361 q 774 320 768 342 q 779 276 779 299 q 778 252 781 264 q 772 229 775 240 q 769 217 769 221 q 759 190 765 203 q 746 165 753 178 q 729 144 736 156 q 711 126 722 133 q 706 122 708 125 q 694 112 700 117 q 681 101 688 107 q 669 93 675 97 q 656 83 663 89 q 613 69 635 68 q 576 64 592 69 l 539 51 q 527 48 533 50 q 515 43 521 46 q 487 33 501 38 q 457 25 472 29 q 432 11 442 21 l 417 -4 q 407 -12 411 -10 q 389 -14 397 -18 z "},"4":{"ha":843,"x_min":56,"x_max":788,"o":"m 518 44 q 497 47 508 46 q 475 53 486 47 q 467 56 469 56 q 451 71 456 60 l 451 75 q 443 124 440 99 q 443 132 443 128 q 442 140 443 136 q 440 160 440 150 q 439 179 439 169 q 438 190 439 185 q 438 200 438 194 q 436 210 436 206 q 436 218 436 214 q 436 247 436 233 q 433 275 436 261 q 433 283 432 279 q 432 290 433 286 q 432 307 432 299 q 429 324 432 315 q 428 333 428 328 q 428 342 429 338 l 426 351 q 418 358 424 358 q 403 360 411 360 q 388 360 396 361 q 370 358 379 358 q 353 357 361 357 q 326 357 339 357 q 300 354 314 357 l 293 354 q 268 352 281 354 q 243 347 256 350 q 229 346 235 347 q 193 333 210 343 q 182 326 188 331 q 169 319 176 322 q 160 306 163 315 q 156 291 158 299 q 154 275 154 283 q 146 253 154 264 q 128 243 140 243 q 108 253 115 243 q 100 268 103 258 q 94 292 97 282 l 90 313 q 81 332 86 322 l 72 344 q 56 403 56 372 q 60 419 56 411 l 64 432 q 68 447 67 439 q 71 461 69 454 q 79 511 74 486 q 92 564 85 538 q 106 617 99 590 q 114 644 110 631 q 121 671 118 657 q 132 714 126 693 q 143 757 138 735 q 146 765 143 760 q 159 799 153 782 q 174 832 165 817 l 178 840 q 182 850 179 846 q 188 860 185 854 q 200 872 193 867 q 214 879 207 876 q 233 885 224 883 q 251 888 242 886 q 268 886 260 889 q 283 879 276 883 q 301 867 293 875 q 319 814 324 844 q 306 767 317 789 q 295 741 300 754 q 286 714 290 728 q 280 692 283 703 q 272 669 276 681 q 269 662 271 665 q 267 654 268 658 q 263 649 265 651 q 258 643 261 646 q 249 624 251 636 q 246 613 247 618 q 242 600 244 607 q 239 588 239 592 q 235 575 240 581 q 224 549 226 564 q 219 532 222 540 q 214 517 217 524 l 207 481 q 210 476 207 479 l 215 476 q 231 476 224 476 q 246 478 239 476 q 263 478 254 478 q 281 479 271 479 q 304 481 292 481 q 328 482 317 481 q 336 483 332 483 q 344 483 340 483 q 364 483 354 483 q 383 482 374 483 q 392 482 388 482 q 401 481 397 482 l 418 481 q 424 486 424 481 q 424 490 424 489 q 425 493 425 492 l 425 579 q 426 587 425 583 q 426 593 426 590 q 428 606 428 600 q 428 618 428 613 q 427 631 426 625 q 428 642 428 636 q 429 690 428 665 q 432 739 431 715 q 437 775 435 757 q 443 811 439 793 q 448 833 446 822 q 453 853 450 843 q 464 881 457 865 q 475 897 468 890 q 489 908 482 903 q 493 909 492 908 q 496 910 494 910 q 501 912 499 911 q 506 914 504 913 q 524 917 515 918 l 550 913 l 554 908 q 555 906 554 907 q 556 904 556 906 q 560 894 558 899 q 565 885 563 889 q 572 857 574 872 l 572 856 q 578 842 571 847 q 583 826 586 836 l 583 824 q 578 804 581 814 q 572 785 575 794 q 567 783 572 782 q 565 784 565 783 q 564 785 565 785 q 561 782 558 785 l 564 778 q 561 768 567 771 q 559 767 560 768 q 558 767 558 767 q 557 765 557 765 q 557 764 557 764 q 557 753 557 758 q 556 740 557 747 q 556 738 556 739 q 557 738 557 738 l 561 733 q 558 722 564 726 q 553 715 553 721 q 552 694 553 706 q 551 671 551 682 l 551 621 q 551 608 551 615 q 549 594 550 601 q 550 583 549 589 q 551 569 551 576 q 551 562 551 565 q 550 554 550 558 q 548 542 549 549 q 547 529 547 536 q 549 513 549 521 q 549 497 549 504 l 549 486 q 554 479 551 481 q 558 478 557 479 q 561 478 560 478 q 567 477 564 478 q 574 478 571 476 q 594 478 585 478 q 613 479 603 478 l 653 479 q 693 485 675 479 l 718 489 l 726 489 q 744 482 736 486 q 758 469 753 478 q 761 465 761 467 q 768 450 764 457 q 774 435 772 443 q 776 429 776 429 q 775 408 781 421 q 774 406 775 407 q 774 401 774 404 q 776 394 772 397 q 781 393 779 393 q 785 392 783 393 q 788 390 788 392 q 786 386 788 388 q 774 376 782 382 q 772 375 774 375 q 771 376 771 375 q 767 379 769 376 q 760 378 761 379 l 756 374 q 739 358 751 363 q 721 352 731 353 q 701 353 711 351 q 669 357 686 357 q 638 357 653 357 q 621 358 629 358 q 606 360 613 358 q 597 360 601 361 q 589 360 593 360 q 580 358 585 358 q 569 358 575 358 q 563 351 564 358 l 563 344 q 554 339 561 340 l 554 340 q 553 325 553 335 q 558 315 553 318 q 563 307 563 314 q 561 305 561 306 q 558 303 561 304 q 556 299 553 301 q 560 293 560 294 q 561 278 565 285 l 557 269 q 558 260 556 264 q 561 257 561 257 l 565 251 q 561 246 565 250 q 558 242 558 243 l 558 213 q 560 208 560 211 q 563 203 561 206 q 569 188 567 196 q 572 172 572 181 q 571 168 572 169 q 568 165 571 168 l 567 167 q 565 172 565 169 q 564 176 565 175 q 565 154 561 163 q 567 152 565 153 q 569 150 568 151 q 572 146 572 147 q 574 139 574 143 q 578 118 574 126 q 582 94 582 106 q 583 88 582 92 q 583 82 583 85 q 581 76 583 79 q 574 74 578 71 q 569 78 569 74 l 569 82 q 563 69 565 78 q 561 66 561 68 q 560 61 561 64 q 550 53 558 56 l 542 53 q 539 51 540 51 q 535 49 538 51 q 533 48 533 49 q 531 47 532 47 q 521 44 524 47 l 518 44 m 574 82 q 572 83 572 85 q 569 82 571 82 l 574 82 z "},"5":{"ha":753,"x_min":54,"x_max":699,"o":"m 206 -61 q 200 -60 203 -62 q 195 -58 197 -60 q 190 -57 193 -57 q 174 -49 181 -54 q 160 -37 167 -43 q 157 -33 160 -36 q 146 -18 149 -26 q 142 0 143 -10 l 142 21 q 154 50 142 38 q 201 72 176 71 q 214 74 208 74 q 225 74 219 75 q 242 76 233 74 q 258 79 250 78 q 298 92 278 86 q 338 107 318 99 q 403 138 371 122 q 468 169 436 153 q 494 183 482 176 q 518 197 506 190 q 568 249 550 218 q 576 296 582 271 q 574 310 575 303 q 569 322 572 317 q 558 345 564 333 q 544 368 553 357 q 535 382 539 375 q 525 394 531 389 q 515 406 519 401 q 504 414 510 410 q 495 419 500 417 q 486 424 490 422 q 463 430 475 428 q 438 433 450 432 q 410 435 424 435 q 383 433 397 436 l 374 433 q 344 431 358 433 q 314 426 329 429 q 288 421 301 424 q 263 415 275 418 q 249 411 256 414 q 235 404 242 408 l 236 404 q 231 403 233 404 q 225 401 228 403 q 208 389 215 400 q 204 385 208 385 q 193 378 199 382 q 181 371 188 374 q 178 369 181 369 q 175 369 175 367 q 174 372 174 369 q 176 379 176 378 q 176 381 176 379 l 175 381 q 167 378 171 379 q 158 374 163 376 q 132 342 138 363 l 128 325 q 111 310 124 314 q 88 313 99 306 q 78 326 79 318 q 75 338 76 332 q 74 350 74 344 q 67 379 74 365 q 57 414 60 396 q 58 450 54 432 q 59 461 60 456 q 58 472 58 467 q 57 485 57 479 q 57 497 57 492 q 58 508 58 503 q 58 519 58 514 q 58 663 60 590 l 58 664 q 58 713 57 689 q 60 736 60 724 q 63 760 61 749 q 65 784 64 772 q 68 808 67 796 q 69 827 69 818 q 69 846 69 836 l 69 858 q 72 870 71 865 q 78 879 74 875 q 115 907 93 899 q 157 908 139 914 q 190 903 172 903 q 208 903 200 904 q 226 903 217 903 q 237 903 232 903 q 247 904 242 904 l 272 904 l 313 908 q 323 910 318 910 q 333 910 328 910 q 363 911 349 911 q 392 913 378 911 q 404 914 399 914 q 415 914 410 914 q 443 915 429 915 q 471 915 457 915 q 508 914 490 914 q 544 910 526 914 q 555 907 550 908 q 564 903 560 906 l 574 899 q 579 895 576 897 q 583 890 582 893 q 592 878 588 885 q 600 864 597 871 q 600 860 603 863 q 600 853 600 853 q 601 851 601 851 q 601 850 601 850 q 601 842 601 846 q 600 836 600 839 q 597 831 600 836 l 599 821 q 597 814 600 817 q 588 801 593 810 q 569 783 582 792 q 558 774 561 778 q 542 764 553 764 q 519 764 531 761 q 503 766 511 765 q 489 767 496 767 q 463 769 476 768 q 438 775 450 771 q 410 781 426 781 q 381 781 396 781 q 351 782 367 781 l 339 782 q 326 776 331 782 q 322 774 325 775 q 315 772 318 774 q 307 774 308 769 q 306 778 306 776 q 307 781 307 779 q 303 782 306 782 q 297 783 300 782 l 263 783 q 246 783 254 783 q 229 783 238 782 q 210 781 221 783 q 207 775 206 781 q 203 768 207 769 q 197 760 197 765 q 192 720 194 740 q 189 681 189 700 q 188 649 189 665 q 186 618 188 633 l 186 535 q 188 528 186 531 q 192 525 190 525 q 197 526 194 525 q 200 526 199 526 q 233 533 217 529 q 264 540 249 538 q 283 544 274 543 q 303 547 293 546 q 326 551 314 550 q 349 553 338 551 q 365 553 357 553 q 382 554 374 553 q 449 554 415 558 q 475 551 463 553 q 501 546 488 549 q 551 522 526 540 l 589 494 q 607 481 600 489 q 633 451 621 467 q 656 421 646 436 q 663 408 661 413 q 681 376 674 393 q 692 342 689 360 q 697 297 697 324 q 696 269 699 283 q 690 240 693 256 l 682 214 q 649 161 672 185 q 637 147 643 154 q 624 133 631 140 q 613 124 621 129 q 599 113 604 119 q 583 99 592 106 q 564 89 575 92 l 557 85 q 551 81 554 82 q 534 72 542 76 q 518 61 526 67 l 504 53 q 480 42 492 47 q 456 29 468 36 l 390 0 q 384 -3 388 -1 q 378 -7 381 -4 q 366 -11 372 -8 q 353 -17 360 -14 q 344 -19 349 -18 q 336 -24 340 -21 q 300 -37 318 -31 q 263 -50 282 -44 l 258 -50 q 251 -54 254 -51 q 242 -57 247 -57 q 226 -60 235 -57 q 216 -60 221 -61 q 206 -61 211 -60 z "},"6":{"ha":694,"x_min":56,"x_max":640,"o":"m 140 -333 q 124 -322 129 -331 q 117 -307 118 -315 q 113 -287 115 -296 q 110 -268 111 -278 q 108 -231 108 -249 q 106 -194 107 -212 q 103 -152 104 -174 q 103 -108 103 -131 l 103 -100 q 102 -87 101 -93 q 103 -76 103 -82 q 101 -46 101 -61 q 100 -17 101 -31 q 99 -10 99 -14 q 97 -4 99 -7 q 91 24 94 11 q 83 51 88 38 q 81 61 83 56 q 75 79 78 69 q 69 99 72 89 q 65 114 67 106 q 63 131 64 122 q 58 160 60 146 q 56 190 57 175 q 61 218 56 206 q 69 237 68 233 q 71 258 71 240 l 71 282 q 73 317 71 300 q 76 351 75 333 l 85 411 q 97 471 89 442 q 100 483 99 478 q 103 493 101 488 q 133 579 115 539 q 144 610 140 596 q 162 651 153 631 q 181 692 171 671 q 193 716 186 704 q 207 739 200 728 l 250 806 q 281 842 264 829 q 301 856 290 850 q 324 865 313 861 q 331 867 326 867 q 338 867 335 867 q 349 868 343 868 q 360 869 354 868 q 370 869 365 869 q 381 867 375 869 q 394 860 388 864 q 407 849 401 856 q 412 844 410 847 q 415 838 414 840 l 419 829 q 426 810 425 819 q 428 790 428 801 q 419 769 426 781 l 404 750 q 385 727 394 739 q 365 704 375 715 l 354 693 q 339 671 343 682 l 335 663 q 325 653 332 654 q 315 642 321 650 q 302 613 308 628 q 290 581 296 597 l 286 574 q 280 561 283 568 q 274 547 276 554 q 272 540 272 546 q 272 533 272 536 q 269 522 272 529 l 265 518 q 258 503 258 515 q 253 482 260 492 q 250 479 251 481 q 250 475 249 478 q 242 456 250 467 q 235 440 236 449 q 235 436 235 439 q 236 431 235 433 q 235 421 239 425 q 231 406 228 414 q 228 396 231 401 q 227 392 228 394 q 228 388 226 389 q 225 371 232 381 q 225 358 221 365 q 226 356 225 357 q 226 354 226 356 q 225 340 231 346 q 221 318 215 333 q 222 310 222 314 q 218 303 222 307 q 218 293 214 299 q 224 278 224 288 l 224 274 q 230 260 226 267 q 235 247 233 254 q 238 244 238 244 q 242 247 242 244 q 244 253 244 250 q 245 255 244 254 q 246 257 246 256 q 261 292 247 274 q 269 303 264 294 l 274 311 q 273 316 274 314 q 274 319 272 318 q 277 322 275 321 q 281 324 279 322 q 285 329 283 326 q 289 335 288 332 q 300 348 294 342 q 311 360 306 354 q 351 386 331 376 q 383 400 367 393 q 418 410 400 407 q 428 413 424 411 q 438 415 432 414 q 464 422 450 419 q 492 426 478 425 q 518 425 507 429 q 528 424 524 424 q 539 422 533 424 q 557 425 551 422 q 560 426 558 426 q 563 422 563 425 q 572 411 565 415 q 579 408 579 407 l 579 411 q 583 414 579 418 l 593 410 q 599 406 596 408 q 604 400 601 403 q 607 393 610 397 q 610 381 607 385 q 618 369 613 378 q 621 364 618 369 q 624 351 624 358 q 629 338 625 344 q 635 326 633 332 q 638 313 636 319 q 639 303 639 310 q 638 297 639 300 q 639 289 638 293 q 639 283 640 286 q 639 275 638 279 q 639 268 639 275 q 636 255 638 263 q 633 240 635 247 q 629 215 633 228 q 626 207 628 211 q 625 199 625 203 q 606 153 619 175 q 603 149 604 151 q 600 143 601 146 q 589 124 596 133 q 575 104 582 114 q 563 90 569 97 q 549 76 556 82 q 540 70 544 74 q 533 61 536 67 q 522 54 532 54 l 513 50 q 502 46 507 47 q 490 43 497 44 q 465 38 478 40 q 439 33 453 36 q 431 32 436 32 q 408 24 415 32 q 401 22 407 19 q 383 28 393 29 q 364 28 374 28 q 353 28 358 28 q 342 29 347 28 q 331 29 338 33 q 314 26 322 26 q 297 24 306 25 q 278 35 283 24 q 275 39 275 38 q 263 46 271 46 l 257 46 q 246 48 251 46 q 235 51 240 50 q 214 56 226 58 q 206 51 208 56 q 197 33 199 43 q 193 8 196 21 q 190 -18 190 -4 q 188 -49 189 -33 q 185 -81 188 -65 q 185 -92 182 -85 q 187 -120 188 -106 q 183 -150 186 -135 q 180 -176 181 -164 q 179 -203 179 -189 l 179 -222 q 178 -235 179 -232 q 176 -252 176 -243 q 175 -269 175 -261 q 174 -288 175 -279 q 171 -308 172 -297 q 170 -311 171 -310 q 169 -315 169 -312 q 140 -333 161 -336 m 383 163 q 404 165 394 160 q 413 167 408 169 q 433 167 424 163 q 454 176 447 171 l 464 181 q 478 186 472 183 q 486 194 482 190 q 493 204 490 199 q 499 213 496 208 q 504 222 501 217 q 519 272 517 243 q 514 289 519 283 l 510 293 q 497 299 504 300 q 490 299 494 299 q 483 301 486 300 q 465 303 475 306 q 445 299 456 301 q 426 290 435 296 q 426 290 426 290 q 426 290 426 290 l 426 290 l 431 290 l 433 288 q 432 283 433 283 q 421 279 426 281 q 408 276 415 278 q 401 279 404 276 q 396 278 400 281 q 382 270 389 275 q 372 257 375 265 q 354 243 367 247 q 350 240 353 243 l 351 240 q 347 233 349 235 q 350 226 350 228 l 350 218 l 346 181 q 351 171 346 172 q 367 165 358 167 q 383 163 375 164 m 426 290 q 425 290 425 290 l 426 290 m 425 290 q 425 290 425 290 l 425 290 m 425 289 q 425 289 425 289 l 425 289 m 425 289 q 425 289 425 289 l 425 289 m 425 289 q 425 289 425 289 l 425 289 z "},"7":{"ha":643,"x_min":56,"x_max":590,"o":"m 324 1 q 310 1 315 0 q 302 6 306 4 q 296 10 299 8 q 285 18 290 14 q 275 28 281 22 q 267 39 268 32 q 257 69 261 50 q 264 113 251 92 q 265 115 264 115 q 276 138 272 126 q 283 160 281 149 q 294 198 289 179 q 303 235 299 217 q 309 265 307 250 q 313 293 311 279 q 316 317 315 306 q 318 343 317 329 q 319 357 318 351 q 320 368 319 363 q 321 379 321 374 q 313 386 321 389 l 299 382 q 283 378 290 381 q 267 374 275 376 q 246 366 257 371 q 226 353 235 361 q 218 347 221 350 q 182 350 199 335 q 149 389 161 371 q 143 399 146 394 q 138 410 140 404 q 143 464 125 438 q 157 483 151 475 q 160 486 157 486 q 165 488 163 488 q 168 490 167 489 q 182 497 175 497 q 208 503 194 500 q 233 507 221 506 l 243 508 q 270 511 257 508 q 297 515 283 514 q 309 515 303 515 q 321 517 315 515 q 335 518 329 517 q 343 526 342 521 q 344 533 344 528 q 352 570 347 553 q 363 606 357 588 q 367 620 365 613 q 369 633 368 628 q 376 657 371 644 q 393 707 388 682 q 397 721 394 714 q 401 735 400 728 l 415 782 q 417 787 417 785 q 418 790 417 789 q 414 796 418 796 q 388 789 400 792 q 363 781 375 786 l 350 776 q 322 766 336 772 q 294 753 308 760 q 283 747 289 750 q 271 740 276 743 q 263 736 267 739 q 256 731 258 733 q 238 717 246 725 q 221 703 229 710 q 208 688 213 697 q 193 668 203 678 q 169 653 181 656 q 142 646 156 649 q 115 643 129 643 q 107 644 111 644 q 99 646 103 644 q 83 657 90 649 q 75 667 78 663 q 63 689 67 678 q 61 693 61 692 q 60 696 61 694 q 56 716 56 707 q 60 735 57 725 q 89 779 68 760 l 97 785 q 108 791 103 788 q 118 796 113 794 q 131 800 125 799 q 143 801 136 801 q 203 811 175 801 q 217 815 210 814 q 231 817 224 817 q 242 819 236 817 q 253 822 247 821 q 294 840 274 831 q 338 857 315 849 q 346 860 340 857 q 351 867 349 861 q 358 874 351 871 q 385 886 372 881 q 413 897 399 892 q 419 900 415 899 q 425 903 422 901 q 433 908 429 906 q 439 914 438 910 q 447 924 443 919 q 457 933 451 929 q 519 953 483 957 q 546 940 536 950 q 564 919 558 931 q 573 901 568 910 q 582 882 578 892 q 588 847 590 867 q 583 826 586 836 q 576 804 581 815 q 570 791 574 797 q 561 778 567 785 q 554 764 557 775 q 551 750 553 757 q 542 738 549 743 q 536 731 539 736 q 535 718 531 725 q 532 710 536 714 q 529 708 531 708 q 525 704 528 707 q 524 699 522 701 q 527 688 528 693 q 525 678 526 683 q 518 669 524 672 q 517 658 518 663 q 513 648 515 653 q 500 639 510 643 l 496 636 q 490 621 488 631 q 497 612 493 615 q 499 601 500 608 q 496 590 497 596 q 493 576 494 583 l 489 571 q 485 566 486 569 q 481 558 483 563 q 475 551 481 554 q 471 546 471 550 q 471 540 468 543 q 477 537 474 539 q 485 532 481 535 q 488 531 485 531 q 494 532 493 531 q 512 532 504 535 q 528 526 519 529 q 542 515 538 524 q 547 508 542 514 q 561 486 556 501 q 564 478 563 482 q 564 471 565 475 q 565 458 563 464 q 572 444 568 451 q 575 442 574 443 q 578 439 576 442 q 578 433 581 436 l 574 425 q 570 422 572 424 q 567 417 568 419 q 549 413 558 408 q 539 411 543 415 q 528 399 532 407 q 510 389 524 392 q 499 390 504 389 q 489 392 494 390 q 460 396 475 396 q 454 394 456 396 q 447 389 450 394 q 445 378 446 383 q 444 367 444 372 q 444 355 443 361 q 444 342 444 349 q 447 329 443 336 q 447 325 447 329 q 444 311 442 319 q 447 303 446 307 q 447 293 447 299 q 444 288 449 290 q 440 281 440 286 l 440 275 q 439 260 442 268 q 440 244 435 253 q 438 238 443 240 q 433 233 433 233 l 425 203 q 424 196 425 199 q 417 174 419 186 q 413 151 415 163 q 410 143 411 147 q 407 135 408 139 q 406 129 407 131 q 399 111 400 121 q 394 92 397 101 q 392 77 393 85 q 389 63 390 69 q 383 49 389 54 l 378 40 q 368 30 374 35 q 357 21 363 25 q 352 18 354 19 q 347 14 350 17 q 336 6 342 8 q 324 1 331 4 z "},"8":{"ha":651,"x_min":54,"x_max":600,"o":"m 269 0 l 269 1 l 257 1 q 238 3 247 0 q 222 10 229 6 q 207 17 215 14 q 192 25 199 19 q 165 48 178 36 q 142 74 153 60 q 136 80 139 76 q 131 88 133 83 l 106 129 q 100 138 103 132 l 83 172 q 79 182 81 178 q 73 210 76 196 q 67 239 69 225 l 58 322 q 57 367 54 343 q 86 446 64 411 q 101 467 93 457 q 118 486 108 476 q 125 494 121 490 q 131 501 129 497 q 163 535 143 521 q 173 543 168 539 q 183 553 178 547 l 208 578 q 225 599 219 586 q 225 614 232 607 q 209 631 217 622 q 193 646 201 639 q 184 653 189 650 q 174 660 179 657 q 135 690 151 672 l 132 693 q 114 721 122 707 q 103 751 106 735 q 101 756 101 754 q 100 760 101 758 q 100 801 94 782 q 119 836 106 819 q 142 857 131 847 q 167 874 154 867 q 194 888 181 881 q 221 900 207 894 q 274 920 247 910 q 326 938 300 931 q 349 944 338 940 q 374 949 361 947 q 402 953 388 951 q 431 954 417 956 q 457 950 444 954 l 475 942 q 508 914 496 933 q 531 883 519 897 q 544 838 544 864 l 544 829 q 551 813 544 818 l 565 803 q 593 763 586 788 q 592 717 600 739 q 583 700 588 707 q 569 689 578 693 q 549 673 558 682 q 531 654 539 664 q 519 641 525 649 q 506 626 513 633 q 490 609 499 617 q 472 594 482 601 q 465 582 467 589 q 461 568 465 575 q 460 564 461 567 q 457 558 458 561 q 458 551 457 554 q 463 549 461 550 q 465 546 464 547 l 482 535 q 529 486 511 515 l 539 469 q 556 431 551 453 q 561 403 558 417 q 565 376 564 390 l 565 371 q 565 296 568 333 l 561 258 q 560 251 561 256 q 557 244 558 247 l 544 211 q 535 192 542 199 l 531 185 q 521 167 526 175 q 508 150 515 158 q 450 75 482 111 q 440 63 444 69 q 428 51 435 57 q 404 35 418 42 q 372 22 389 28 q 339 14 356 17 q 325 11 332 14 q 311 7 318 8 q 301 4 306 6 q 292 1 297 3 q 281 0 286 0 q 269 0 275 0 m 364 686 q 376 689 374 686 l 397 704 q 397 718 403 711 l 390 731 q 380 745 385 738 q 368 758 375 753 q 356 776 360 767 q 339 794 350 786 q 325 797 332 799 q 310 794 318 793 q 292 789 299 794 q 276 783 285 786 q 265 781 271 783 q 256 775 260 778 q 254 768 250 772 q 257 765 256 767 q 260 763 258 764 q 286 745 274 754 q 311 725 299 736 q 326 712 318 718 q 340 699 333 706 q 357 688 344 692 q 364 686 360 686 m 319 149 q 346 160 335 147 l 347 161 q 373 190 360 175 q 399 218 386 204 l 403 221 q 419 246 413 233 q 432 272 426 258 q 440 308 438 290 q 443 343 443 325 q 443 364 443 354 q 440 383 443 374 q 428 416 436 401 q 403 440 419 431 l 401 440 q 378 457 389 449 q 356 476 367 465 l 351 481 q 333 490 344 486 q 326 489 329 490 q 322 485 325 488 q 315 479 318 482 q 307 472 311 476 q 297 465 303 468 q 281 455 289 460 q 267 443 274 450 q 254 436 261 438 q 249 435 251 436 q 243 432 246 433 q 238 421 238 426 q 232 413 239 415 q 219 404 224 410 q 214 394 217 399 q 210 385 211 390 q 206 378 207 379 q 203 374 204 376 q 200 371 201 372 q 194 350 193 360 q 193 336 197 346 q 193 326 189 332 q 196 317 196 322 q 197 306 196 311 q 197 302 199 304 q 196 297 196 300 l 196 292 q 197 288 196 290 q 197 283 197 286 q 201 262 197 272 q 207 240 204 251 l 211 231 q 214 220 211 225 q 219 211 217 215 q 233 194 226 203 q 246 179 239 186 q 254 172 250 175 q 264 165 258 168 q 272 161 268 164 q 279 156 275 158 l 293 151 q 305 149 299 150 q 317 149 311 149 l 319 149 z "},"9":{"ha":711,"x_min":54,"x_max":658,"o":"m 569 0 q 551 0 560 -1 q 532 3 542 1 q 524 7 528 3 q 515 17 519 11 q 507 28 510 22 l 503 38 q 501 47 501 42 q 499 56 500 51 q 499 72 497 64 q 501 86 501 79 q 500 99 500 93 l 500 303 q 499 311 500 308 q 497 348 497 331 q 496 383 497 365 q 495 398 496 390 q 494 413 494 406 l 494 415 q 491 447 494 431 q 485 478 488 463 q 484 487 485 482 q 483 497 483 492 q 482 513 483 506 q 479 529 481 521 q 469 532 476 536 q 463 528 467 531 q 456 524 460 526 q 447 517 450 518 q 422 500 435 508 q 394 488 410 492 q 378 481 386 485 q 361 474 369 476 q 340 469 351 469 q 317 469 329 469 q 292 469 304 468 q 276 465 285 469 q 272 463 275 464 q 265 460 268 461 q 233 458 249 450 q 219 465 228 460 q 205 475 213 471 q 190 483 197 479 q 183 489 185 486 q 172 499 178 494 q 161 510 165 504 q 159 510 160 510 q 158 511 158 511 q 141 526 149 518 q 125 543 133 535 q 118 551 122 547 q 111 561 114 556 l 104 569 q 93 585 99 576 q 82 601 88 593 q 75 619 78 611 l 67 643 q 58 674 61 658 q 56 707 54 690 q 83 786 56 750 q 108 814 94 801 q 135 839 121 826 q 217 904 176 874 q 240 919 228 913 q 265 929 251 926 l 278 933 q 294 941 286 938 q 310 949 303 944 q 349 964 329 958 q 390 974 369 969 q 400 975 396 975 q 410 975 404 975 l 481 979 q 493 981 489 979 q 501 988 499 981 q 507 1000 504 992 q 528 1033 514 1019 q 532 1036 531 1035 q 535 1039 533 1038 q 553 1047 544 1043 q 571 1053 561 1051 q 597 1050 585 1057 q 635 1025 617 1043 q 646 1008 642 1018 q 651 989 650 999 q 654 942 658 969 q 653 939 654 940 q 653 935 653 938 q 650 908 653 921 q 644 882 647 896 q 642 871 642 874 q 639 847 640 858 q 638 824 638 835 l 638 817 q 635 794 635 806 q 633 771 635 782 q 625 689 631 728 q 624 681 625 685 q 624 672 624 676 q 623 658 624 665 q 621 642 622 650 q 619 628 619 638 l 619 506 q 621 496 619 499 q 623 469 624 482 q 624 443 622 457 l 624 400 q 624 381 624 390 q 626 360 625 371 l 626 343 q 626 285 626 314 q 628 225 626 256 l 628 135 q 628 121 628 128 q 629 107 628 114 q 631 85 631 97 q 631 63 631 74 q 629 51 631 57 q 626 40 628 46 q 622 33 624 35 q 614 23 618 28 q 603 15 610 18 q 600 11 600 15 q 588 4 597 4 l 569 0 m 319 610 q 367 621 347 607 l 375 625 q 392 640 383 632 q 410 653 400 647 q 419 660 415 656 q 425 668 422 664 l 433 686 q 449 722 442 704 q 465 756 457 739 q 469 763 468 758 q 472 771 471 767 q 475 780 475 775 q 475 790 475 785 q 469 808 476 799 l 465 815 q 455 827 460 822 q 444 838 450 832 q 431 861 435 850 q 429 867 431 864 q 426 872 428 871 q 421 876 425 876 q 418 877 419 876 q 414 876 417 878 q 389 873 401 875 q 365 865 376 871 l 338 853 q 297 826 313 843 q 291 821 294 824 q 283 815 288 818 l 254 790 q 234 772 244 781 q 214 754 224 764 q 192 717 200 739 q 193 694 188 704 q 199 681 196 688 q 208 667 203 674 q 246 633 225 649 q 286 614 265 619 q 303 610 294 611 q 319 610 311 610 z "},"A":{"ha":758,"x_min":42,"x_max":718,"o":"m 104 -125 q 94 -122 103 -125 q 85 -112 90 -121 q 82 -104 83 -108 q 81 -96 81 -100 q 76 -54 76 -75 l 76 42 q 74 67 76 54 q 68 92 71 79 q 65 100 68 94 q 61 109 64 104 q 56 118 58 114 q 47 139 50 128 q 43 160 44 150 q 43 189 42 175 q 47 205 46 197 q 51 219 49 213 q 58 242 56 231 q 65 267 61 254 l 86 335 q 111 394 96 364 q 140 460 126 424 q 147 478 143 468 q 159 508 153 493 q 171 536 165 522 l 192 594 q 196 606 194 600 q 199 617 197 611 q 221 669 210 644 q 232 706 229 686 q 232 744 235 725 q 230 762 231 753 q 229 779 229 771 q 227 787 229 783 q 226 794 225 790 q 230 800 228 797 q 233 806 232 803 q 247 833 238 821 q 267 854 256 844 q 282 863 272 860 q 292 868 288 865 q 301 875 297 871 q 317 882 308 881 q 340 890 328 883 q 365 894 351 897 l 378 894 q 399 888 388 894 q 405 884 401 886 q 413 879 408 882 q 424 858 424 871 q 426 840 424 849 q 429 822 428 832 q 429 804 432 814 q 428 798 428 801 q 426 792 428 794 q 426 781 426 786 q 424 769 425 775 q 426 750 419 760 q 447 713 438 732 q 465 674 456 693 l 490 629 q 513 586 501 611 q 517 578 515 582 q 522 569 519 574 q 530 554 526 563 q 538 538 533 546 q 556 495 549 517 q 572 450 564 474 q 573 448 572 449 q 574 446 574 447 q 588 436 575 436 q 597 438 592 438 q 606 438 601 438 q 632 432 621 438 q 646 424 639 431 q 661 406 657 413 q 667 385 665 399 q 656 339 672 358 l 647 332 q 640 327 644 329 q 633 322 636 325 q 626 314 626 317 q 629 301 625 311 l 650 251 q 676 196 663 224 q 703 140 689 168 q 712 121 708 131 q 717 100 715 111 q 717 83 718 92 q 715 67 717 75 q 713 57 715 65 q 705 46 708 51 q 697 35 701 40 q 679 0 686 19 q 661 -19 676 -12 q 643 -19 653 -24 q 626 -3 631 -15 l 624 4 q 611 31 619 18 q 601 51 606 40 q 590 71 596 61 q 589 76 589 74 q 588 79 589 78 q 583 95 586 88 q 575 110 579 103 q 558 151 567 131 q 539 192 549 171 l 518 236 q 515 245 517 240 q 511 256 514 250 l 494 293 q 492 301 494 296 q 474 314 485 313 q 456 315 464 314 q 439 317 447 317 q 394 313 417 317 q 353 297 372 308 q 299 278 326 282 q 288 276 293 278 q 276 272 282 275 q 267 260 268 267 q 264 247 264 251 l 260 228 q 249 208 258 218 q 229 201 242 201 q 206 219 211 204 q 203 228 204 224 q 200 238 201 232 q 199 224 194 229 q 196 214 201 218 q 194 210 193 211 q 193 200 197 204 q 190 190 189 196 q 190 183 192 188 q 181 160 183 174 q 174 151 182 154 q 171 149 171 151 q 165 136 168 144 q 162 122 164 129 q 157 107 160 114 l 149 72 l 149 67 q 147 42 149 54 q 144 18 144 31 l 140 -28 q 138 -48 139 -37 q 138 -69 138 -58 q 135 -85 136 -78 q 132 -101 135 -93 q 122 -119 129 -114 q 104 -125 117 -128 m 285 438 l 286 438 q 313 442 300 440 q 338 444 325 443 q 354 447 346 446 q 371 447 363 447 l 400 447 q 406 448 403 447 q 410 449 408 449 q 413 454 413 449 q 406 465 408 460 q 400 476 403 471 q 378 510 392 496 q 375 515 376 513 q 372 519 374 517 q 369 526 371 522 q 364 532 367 529 q 350 529 357 538 l 346 518 q 342 495 344 507 q 336 472 339 483 q 333 464 336 469 q 320 451 331 456 q 299 454 310 447 l 290 460 q 288 460 290 460 q 285 451 285 454 q 285 446 285 449 q 283 440 286 443 q 285 438 281 438 z "},"Á":{"ha":758,"x_min":42,"x_max":718,"o":"m 104 -125 q 94 -122 103 -125 q 85 -112 90 -121 q 82 -104 83 -108 q 81 -96 81 -100 q 76 -54 76 -75 l 76 42 q 74 67 76 54 q 68 92 71 79 q 65 100 68 94 q 61 109 64 104 q 56 118 58 114 q 47 139 50 128 q 43 160 44 150 q 43 189 42 175 q 47 205 46 197 q 51 219 49 213 q 58 242 56 231 q 65 267 61 254 l 86 335 q 111 394 96 364 q 140 460 126 424 q 147 478 143 468 q 159 508 153 493 q 171 536 165 522 l 192 594 q 196 606 194 600 q 199 617 197 611 q 221 669 210 644 q 232 706 229 686 q 232 744 235 725 q 230 762 231 753 q 229 779 229 771 q 227 787 229 783 q 226 794 225 790 q 230 800 228 797 q 233 806 232 803 q 247 833 238 821 q 267 854 256 844 q 282 863 272 860 q 292 868 288 865 q 301 875 297 871 q 317 882 308 881 q 340 890 328 883 q 365 894 351 897 l 378 894 q 399 888 388 894 q 405 884 401 886 q 413 879 408 882 q 424 858 424 871 q 426 840 424 849 q 429 822 428 832 q 429 804 432 814 q 428 798 428 801 q 426 792 428 794 q 426 781 426 786 q 424 769 425 775 q 426 750 419 760 q 447 713 438 732 q 465 674 456 693 l 490 629 q 513 586 501 611 q 517 578 515 582 q 522 569 519 574 q 530 554 526 563 q 538 538 533 546 q 556 495 549 517 q 572 450 564 474 q 573 448 572 449 q 574 446 574 447 q 588 436 575 436 q 597 438 592 438 q 606 438 601 438 q 632 432 621 438 q 646 424 639 431 q 661 406 657 413 q 667 385 665 399 q 656 339 672 358 l 647 332 q 640 327 644 329 q 633 322 636 325 q 626 314 626 317 q 629 301 625 311 l 650 251 q 676 196 663 224 q 703 140 689 168 q 712 121 708 131 q 717 100 715 111 q 717 83 718 92 q 715 67 717 75 q 713 57 715 65 q 705 46 708 51 q 697 35 701 40 q 679 0 686 19 q 661 -19 676 -12 q 643 -19 653 -24 q 626 -3 631 -15 l 624 4 q 611 31 619 18 q 601 51 606 40 q 590 71 596 61 q 589 76 589 74 q 588 79 589 78 q 583 95 586 88 q 575 110 579 103 q 558 151 567 131 q 539 192 549 171 l 518 236 q 515 245 517 240 q 511 256 514 250 l 494 293 q 492 301 494 296 q 474 314 485 313 q 456 315 464 314 q 439 317 447 317 q 394 313 417 317 q 353 297 372 308 q 299 278 326 282 q 288 276 293 278 q 276 272 282 275 q 267 260 268 267 q 264 247 264 251 l 260 228 q 249 208 258 218 q 229 201 242 201 q 206 219 211 204 q 203 228 204 224 q 200 238 201 232 q 199 224 194 229 q 196 214 201 218 q 194 210 193 211 q 193 200 197 204 q 190 190 189 196 q 190 183 192 188 q 181 160 183 174 q 174 151 182 154 q 171 149 171 151 q 165 136 168 144 q 162 122 164 129 q 157 107 160 114 l 149 72 l 149 67 q 147 42 149 54 q 144 18 144 31 l 140 -28 q 138 -48 139 -37 q 138 -69 138 -58 q 135 -85 136 -78 q 132 -101 135 -93 q 122 -119 129 -114 q 104 -125 117 -128 m 285 438 l 286 438 q 313 442 300 440 q 338 444 325 443 q 354 447 346 446 q 371 447 363 447 l 400 447 q 406 448 403 447 q 410 449 408 449 q 413 454 413 449 q 406 465 408 460 q 400 476 403 471 q 378 510 392 496 q 375 515 376 513 q 372 519 374 517 q 369 526 371 522 q 364 532 367 529 q 350 529 357 538 l 346 518 q 342 495 344 507 q 336 472 339 483 q 333 464 336 469 q 320 451 331 456 q 299 454 310 447 l 290 460 q 288 460 290 460 q 285 451 285 454 q 285 446 285 449 q 283 440 286 443 q 285 438 281 438 m 235 910 q 221 922 225 911 q 214 946 214 933 q 211 963 213 954 q 207 979 210 971 q 201 993 207 985 l 194 1001 q 175 1057 175 1022 q 183 1094 176 1076 q 204 1125 190 1111 q 218 1136 211 1132 q 232 1144 225 1140 q 244 1150 239 1147 q 254 1154 249 1153 q 260 1158 257 1157 q 264 1161 263 1160 q 276 1170 271 1165 q 288 1181 282 1175 q 326 1209 307 1194 q 363 1238 344 1224 q 396 1271 382 1253 q 405 1281 400 1276 q 415 1292 410 1286 q 433 1303 422 1299 l 463 1311 q 475 1313 471 1314 q 481 1311 476 1311 q 524 1293 503 1311 q 538 1282 535 1285 q 543 1265 540 1279 q 546 1247 546 1254 q 544 1238 547 1243 q 543 1232 544 1235 q 540 1226 542 1229 l 528 1196 q 524 1188 526 1192 q 519 1182 522 1185 q 506 1164 514 1172 q 490 1147 499 1156 q 477 1135 485 1142 q 463 1121 469 1128 q 422 1089 443 1103 q 397 1072 410 1081 q 371 1053 383 1063 q 365 1049 368 1051 q 360 1046 363 1047 q 347 1036 353 1040 q 333 1026 340 1032 q 313 1008 324 1017 q 290 990 301 1000 q 269 957 274 978 l 265 932 q 256 914 264 919 q 235 910 246 908 z "},"Â":{"ha":758,"x_min":-49,"x_max":801,"o":"m 104 -125 q 94 -122 103 -125 q 85 -112 90 -121 q 82 -104 83 -108 q 81 -96 81 -100 q 76 -54 76 -75 l 76 42 q 74 67 76 54 q 68 92 71 79 q 65 100 68 94 q 61 109 64 104 q 56 118 58 114 q 47 139 50 128 q 43 160 44 150 q 43 189 42 175 q 47 205 46 197 q 51 219 49 213 q 58 242 56 231 q 65 267 61 254 l 86 335 q 111 394 96 364 q 140 460 126 424 q 147 478 143 468 q 159 508 153 493 q 171 536 165 522 l 192 594 q 196 606 194 600 q 199 617 197 611 q 221 669 210 644 q 232 706 229 686 q 232 744 235 725 q 230 762 231 753 q 229 779 229 771 q 227 787 229 783 q 226 794 225 790 q 230 800 228 797 q 233 806 232 803 q 247 833 238 821 q 267 854 256 844 q 282 863 272 860 q 292 868 288 865 q 301 875 297 871 q 317 882 308 881 q 340 890 328 883 q 365 894 351 897 l 378 894 q 399 888 388 894 q 405 884 401 886 q 413 879 408 882 q 424 858 424 871 q 426 840 424 849 q 429 822 428 832 q 429 804 432 814 q 428 798 428 801 q 426 792 428 794 q 426 781 426 786 q 424 769 425 775 q 426 750 419 760 q 447 713 438 732 q 465 674 456 693 l 490 629 q 513 586 501 611 q 517 578 515 582 q 522 569 519 574 q 530 554 526 563 q 538 538 533 546 q 556 495 549 517 q 572 450 564 474 q 573 448 572 449 q 574 446 574 447 q 588 436 575 436 q 597 438 592 438 q 606 438 601 438 q 632 432 621 438 q 646 424 639 431 q 661 406 657 413 q 667 385 665 399 q 656 339 672 358 l 647 332 q 640 327 644 329 q 633 322 636 325 q 626 314 626 317 q 629 301 625 311 l 650 251 q 676 196 663 224 q 703 140 689 168 q 712 121 708 131 q 717 100 715 111 q 717 83 718 92 q 715 67 717 75 q 713 57 715 65 q 705 46 708 51 q 697 35 701 40 q 679 0 686 19 q 661 -19 676 -12 q 643 -19 653 -24 q 626 -3 631 -15 l 624 4 q 611 31 619 18 q 601 51 606 40 q 590 71 596 61 q 589 76 589 74 q 588 79 589 78 q 583 95 586 88 q 575 110 579 103 q 558 151 567 131 q 539 192 549 171 l 518 236 q 515 245 517 240 q 511 256 514 250 l 494 293 q 492 301 494 296 q 474 314 485 313 q 456 315 464 314 q 439 317 447 317 q 394 313 417 317 q 353 297 372 308 q 299 278 326 282 q 288 276 293 278 q 276 272 282 275 q 267 260 268 267 q 264 247 264 251 l 260 228 q 249 208 258 218 q 229 201 242 201 q 206 219 211 204 q 203 228 204 224 q 200 238 201 232 q 199 224 194 229 q 196 214 201 218 q 194 210 193 211 q 193 200 197 204 q 190 190 189 196 q 190 183 192 188 q 181 160 183 174 q 174 151 182 154 q 171 149 171 151 q 165 136 168 144 q 162 122 164 129 q 157 107 160 114 l 149 72 l 149 67 q 147 42 149 54 q 144 18 144 31 l 140 -28 q 138 -48 139 -37 q 138 -69 138 -58 q 135 -85 136 -78 q 132 -101 135 -93 q 122 -119 129 -114 q 104 -125 117 -128 m 285 438 l 286 438 q 313 442 300 440 q 338 444 325 443 q 354 447 346 446 q 371 447 363 447 l 400 447 q 406 448 403 447 q 410 449 408 449 q 413 454 413 449 q 406 465 408 460 q 400 476 403 471 q 378 510 392 496 q 375 515 376 513 q 372 519 374 517 q 369 526 371 522 q 364 532 367 529 q 350 529 357 538 l 346 518 q 342 495 344 507 q 336 472 339 483 q 333 464 336 469 q 320 451 331 456 q 299 454 310 447 l 290 460 q 288 460 290 460 q 285 451 285 454 q 285 446 285 449 q 283 440 286 443 q 285 438 281 438 m 707 900 q 697 903 699 903 q 681 914 688 904 q 671 919 675 919 l 661 924 q 654 928 658 926 q 647 932 650 929 q 635 938 643 935 q 624 944 629 940 q 613 950 618 949 q 610 951 611 950 q 608 951 610 951 q 594 961 601 958 q 579 968 586 964 q 569 975 574 971 q 564 979 567 978 q 558 981 561 981 q 553 978 553 983 q 551 972 551 975 q 550 967 551 969 q 549 960 549 964 q 536 943 547 950 q 513 946 522 939 q 497 967 499 956 l 493 978 q 475 992 488 986 q 467 996 471 994 q 460 999 463 997 q 441 1009 450 1004 q 425 1019 432 1014 q 421 1022 424 1021 q 415 1024 418 1024 q 390 1042 406 1028 q 378 1053 386 1044 q 368 1056 374 1057 l 364 1056 q 356 1050 357 1056 q 355 1047 356 1049 q 354 1043 354 1044 q 355 1033 356 1038 q 354 1024 354 1029 q 350 1003 354 1015 q 339 993 349 996 q 333 992 336 993 q 326 990 329 990 q 318 994 322 990 q 301 1019 306 1003 l 301 1024 q 296 1042 301 1035 q 292 1054 294 1046 q 283 1071 290 1063 q 279 1072 283 1072 q 271 1065 274 1067 q 256 1054 263 1060 q 240 1042 249 1049 q 223 1027 232 1035 q 206 1013 214 1019 q 197 1006 200 1007 q 186 998 192 1003 q 176 989 181 993 q 172 986 174 988 q 167 982 169 985 l 129 953 q 126 951 128 951 q 121 949 124 950 l 92 931 q 79 923 86 926 q 64 917 72 919 q 51 909 58 913 q 36 901 43 906 q 24 897 31 897 q 11 894 18 896 q 0 894 6 894 q -11 896 -6 894 q -18 899 -15 896 q -25 905 -22 901 q -31 911 -28 908 q -39 924 -36 918 q -46 935 -42 929 q -47 944 -47 939 q -49 953 -47 949 l -46 964 q -43 978 -47 971 q -39 985 -40 981 q -35 994 -39 990 q -28 1001 -32 997 q -17 1015 -22 1010 q -8 1022 -12 1019 q 0 1028 -4 1025 q 23 1040 11 1035 q 44 1051 35 1046 q 50 1054 50 1054 q 67 1066 60 1061 q 85 1076 75 1071 l 90 1081 q 106 1092 97 1086 q 121 1104 114 1099 q 144 1122 135 1115 q 158 1132 151 1126 q 171 1143 164 1138 q 175 1147 171 1143 q 185 1153 181 1150 q 193 1160 189 1157 q 210 1174 199 1167 q 219 1185 214 1176 q 239 1208 232 1193 q 243 1222 243 1215 q 248 1233 246 1228 q 251 1243 250 1238 q 263 1260 256 1253 q 267 1263 264 1260 q 310 1285 285 1281 q 321 1285 315 1285 q 332 1282 326 1285 q 365 1267 349 1278 q 374 1262 369 1264 q 382 1257 378 1260 q 388 1253 385 1256 q 396 1247 392 1250 q 401 1244 399 1246 q 406 1240 404 1243 q 428 1218 414 1226 q 431 1215 431 1215 q 453 1200 442 1207 q 474 1185 464 1193 q 488 1175 481 1183 q 495 1172 492 1174 q 501 1167 499 1169 q 524 1151 513 1158 q 547 1136 536 1143 l 553 1132 q 574 1119 563 1126 q 594 1104 585 1111 q 600 1101 597 1103 q 606 1097 603 1099 q 615 1091 610 1094 q 625 1085 619 1088 q 640 1076 632 1081 q 657 1068 649 1072 q 672 1061 664 1064 q 686 1054 679 1058 q 703 1049 694 1051 q 719 1042 711 1046 q 736 1039 724 1039 q 739 1038 738 1039 q 742 1038 740 1038 q 779 1022 761 1038 q 790 1003 786 1017 q 793 989 793 990 q 796 981 794 985 q 799 972 797 976 q 799 964 801 968 q 796 958 797 961 q 794 953 794 956 q 794 951 794 951 q 793 950 793 950 q 788 943 789 946 l 786 933 q 779 925 786 928 q 771 919 774 922 q 767 915 769 917 q 761 911 764 914 l 747 903 q 707 900 728 894 z "},"Ä":{"ha":758,"x_min":42,"x_max":718,"o":"m 104 -125 q 94 -122 103 -125 q 85 -112 90 -121 q 82 -104 83 -108 q 81 -96 81 -100 q 76 -54 76 -75 l 76 42 q 74 67 76 54 q 68 92 71 79 q 65 100 68 94 q 61 109 64 104 q 56 118 58 114 q 47 139 50 128 q 43 160 44 150 q 43 189 42 175 q 47 205 46 197 q 51 219 49 213 q 58 242 56 231 q 65 267 61 254 l 86 335 q 111 394 96 364 q 140 460 126 424 q 147 478 143 468 q 159 508 153 493 q 171 536 165 522 l 192 594 q 196 606 194 600 q 199 617 197 611 q 221 669 210 644 q 232 706 229 686 q 232 744 235 725 q 230 762 231 753 q 229 779 229 771 q 227 787 229 783 q 226 794 225 790 q 230 800 228 797 q 233 806 232 803 q 247 833 238 821 q 267 854 256 844 q 282 863 272 860 q 292 868 288 865 q 301 875 297 871 q 317 882 308 881 q 340 890 328 883 q 365 894 351 897 l 378 894 q 399 888 388 894 q 405 884 401 886 q 413 879 408 882 q 424 858 424 871 q 426 840 424 849 q 429 822 428 832 q 429 804 432 814 q 428 798 428 801 q 426 792 428 794 q 426 781 426 786 q 424 769 425 775 q 426 750 419 760 q 447 713 438 732 q 465 674 456 693 l 490 629 q 513 586 501 611 q 517 578 515 582 q 522 569 519 574 q 530 554 526 563 q 538 538 533 546 q 556 495 549 517 q 572 450 564 474 q 573 448 572 449 q 574 446 574 447 q 588 436 575 436 q 597 438 592 438 q 606 438 601 438 q 632 432 621 438 q 646 424 639 431 q 661 406 657 413 q 667 385 665 399 q 656 339 672 358 l 647 332 q 640 327 644 329 q 633 322 636 325 q 626 314 626 317 q 629 301 625 311 l 650 251 q 676 196 663 224 q 703 140 689 168 q 712 121 708 131 q 717 100 715 111 q 717 83 718 92 q 715 67 717 75 q 713 57 715 65 q 705 46 708 51 q 697 35 701 40 q 679 0 686 19 q 661 -19 676 -12 q 643 -19 653 -24 q 626 -3 631 -15 l 624 4 q 611 31 619 18 q 601 51 606 40 q 590 71 596 61 q 589 76 589 74 q 588 79 589 78 q 583 95 586 88 q 575 110 579 103 q 558 151 567 131 q 539 192 549 171 l 518 236 q 515 245 517 240 q 511 256 514 250 l 494 293 q 492 301 494 296 q 474 314 485 313 q 456 315 464 314 q 439 317 447 317 q 394 313 417 317 q 353 297 372 308 q 299 278 326 282 q 288 276 293 278 q 276 272 282 275 q 267 260 268 267 q 264 247 264 251 l 260 228 q 249 208 258 218 q 229 201 242 201 q 206 219 211 204 q 203 228 204 224 q 200 238 201 232 q 199 224 194 229 q 196 214 201 218 q 194 210 193 211 q 193 200 197 204 q 190 190 189 196 q 190 183 192 188 q 181 160 183 174 q 174 151 182 154 q 171 149 171 151 q 165 136 168 144 q 162 122 164 129 q 157 107 160 114 l 149 72 l 149 67 q 147 42 149 54 q 144 18 144 31 l 140 -28 q 138 -48 139 -37 q 138 -69 138 -58 q 135 -85 136 -78 q 132 -101 135 -93 q 122 -119 129 -114 q 104 -125 117 -128 m 285 438 l 286 438 q 313 442 300 440 q 338 444 325 443 q 354 447 346 446 q 371 447 363 447 l 400 447 q 406 448 403 447 q 410 449 408 449 q 413 454 413 449 q 406 465 408 460 q 400 476 403 471 q 378 510 392 496 q 375 515 376 513 q 372 519 374 517 q 369 526 371 522 q 364 532 367 529 q 350 529 357 538 l 346 518 q 342 495 344 507 q 336 472 339 483 q 333 464 336 469 q 320 451 331 456 q 299 454 310 447 l 290 460 q 288 460 290 460 q 285 451 285 454 q 285 446 285 449 q 283 440 286 443 q 285 438 281 438 m 538 1031 q 515 1035 526 1031 q 492 1044 503 1038 q 471 1057 482 1050 q 463 1064 467 1060 q 457 1072 460 1068 q 429 1125 440 1094 q 428 1133 428 1129 q 426 1143 428 1138 q 430 1158 429 1150 q 432 1174 431 1167 q 435 1181 432 1175 q 461 1211 446 1196 l 469 1217 q 478 1222 474 1219 q 488 1225 482 1224 q 517 1226 500 1229 q 533 1224 525 1225 q 551 1221 542 1224 q 578 1213 567 1218 q 613 1183 600 1204 q 619 1167 615 1174 q 624 1149 622 1157 q 624 1131 626 1140 q 621 1110 621 1117 q 615 1091 619 1100 q 608 1072 611 1082 q 593 1053 604 1060 q 567 1037 582 1042 q 538 1031 553 1032 m 213 1013 l 207 1013 q 174 1018 186 1013 l 164 1022 q 149 1032 157 1024 q 137 1054 142 1043 q 129 1078 132 1065 q 125 1122 125 1099 l 125 1138 q 129 1158 125 1149 q 139 1176 133 1168 q 145 1182 142 1179 q 150 1189 149 1185 q 164 1201 157 1197 q 194 1206 179 1206 q 202 1206 197 1206 q 211 1207 207 1206 q 219 1208 215 1207 q 229 1208 224 1208 q 256 1197 244 1208 q 263 1191 258 1194 q 271 1185 267 1188 q 296 1160 286 1178 q 308 1117 311 1140 q 303 1089 304 1093 q 301 1081 303 1085 q 297 1072 300 1076 q 289 1058 293 1065 q 278 1044 285 1051 q 274 1040 276 1042 q 268 1035 271 1038 q 253 1026 260 1031 q 238 1018 246 1022 q 226 1013 232 1015 q 213 1013 219 1011 z "},"À":{"ha":758,"x_min":42,"x_max":718,"o":"m 104 -125 q 94 -122 103 -125 q 85 -112 90 -121 q 82 -104 83 -108 q 81 -96 81 -100 q 76 -54 76 -75 l 76 42 q 74 67 76 54 q 68 92 71 79 q 65 100 68 94 q 61 109 64 104 q 56 118 58 114 q 47 139 50 128 q 43 160 44 150 q 43 189 42 175 q 47 205 46 197 q 51 219 49 213 q 58 242 56 231 q 65 267 61 254 l 86 335 q 111 394 96 364 q 140 460 126 424 q 147 478 143 468 q 159 508 153 493 q 171 536 165 522 l 192 594 q 196 606 194 600 q 199 617 197 611 q 221 669 210 644 q 232 706 229 686 q 232 744 235 725 q 230 762 231 753 q 229 779 229 771 q 227 787 229 783 q 226 794 225 790 q 230 800 228 797 q 233 806 232 803 q 247 833 238 821 q 267 854 256 844 q 282 863 272 860 q 292 868 288 865 q 301 875 297 871 q 317 882 308 881 q 340 890 328 883 q 365 894 351 897 l 378 894 q 399 888 388 894 q 405 884 401 886 q 413 879 408 882 q 424 858 424 871 q 426 840 424 849 q 429 822 428 832 q 429 804 432 814 q 428 798 428 801 q 426 792 428 794 q 426 781 426 786 q 424 769 425 775 q 426 750 419 760 q 447 713 438 732 q 465 674 456 693 l 490 629 q 513 586 501 611 q 517 578 515 582 q 522 569 519 574 q 530 554 526 563 q 538 538 533 546 q 556 495 549 517 q 572 450 564 474 q 573 448 572 449 q 574 446 574 447 q 588 436 575 436 q 597 438 592 438 q 606 438 601 438 q 632 432 621 438 q 646 424 639 431 q 661 406 657 413 q 667 385 665 399 q 656 339 672 358 l 647 332 q 640 327 644 329 q 633 322 636 325 q 626 314 626 317 q 629 301 625 311 l 650 251 q 676 196 663 224 q 703 140 689 168 q 712 121 708 131 q 717 100 715 111 q 717 83 718 92 q 715 67 717 75 q 713 57 715 65 q 705 46 708 51 q 697 35 701 40 q 679 0 686 19 q 661 -19 676 -12 q 643 -19 653 -24 q 626 -3 631 -15 l 624 4 q 611 31 619 18 q 601 51 606 40 q 590 71 596 61 q 589 76 589 74 q 588 79 589 78 q 583 95 586 88 q 575 110 579 103 q 558 151 567 131 q 539 192 549 171 l 518 236 q 515 245 517 240 q 511 256 514 250 l 494 293 q 492 301 494 296 q 474 314 485 313 q 456 315 464 314 q 439 317 447 317 q 394 313 417 317 q 353 297 372 308 q 299 278 326 282 q 288 276 293 278 q 276 272 282 275 q 267 260 268 267 q 264 247 264 251 l 260 228 q 249 208 258 218 q 229 201 242 201 q 206 219 211 204 q 203 228 204 224 q 200 238 201 232 q 199 224 194 229 q 196 214 201 218 q 194 210 193 211 q 193 200 197 204 q 190 190 189 196 q 190 183 192 188 q 181 160 183 174 q 174 151 182 154 q 171 149 171 151 q 165 136 168 144 q 162 122 164 129 q 157 107 160 114 l 149 72 l 149 67 q 147 42 149 54 q 144 18 144 31 l 140 -28 q 138 -48 139 -37 q 138 -69 138 -58 q 135 -85 136 -78 q 132 -101 135 -93 q 122 -119 129 -114 q 104 -125 117 -128 m 285 438 l 286 438 q 313 442 300 440 q 338 444 325 443 q 354 447 346 446 q 371 447 363 447 l 400 447 q 406 448 403 447 q 410 449 408 449 q 413 454 413 449 q 406 465 408 460 q 400 476 403 471 q 378 510 392 496 q 375 515 376 513 q 372 519 374 517 q 369 526 371 522 q 364 532 367 529 q 350 529 357 538 l 346 518 q 342 495 344 507 q 336 472 339 483 q 333 464 336 469 q 320 451 331 456 q 299 454 310 447 l 290 460 q 288 460 290 460 q 285 451 285 454 q 285 446 285 449 q 283 440 286 443 q 285 438 281 438 m 561 951 q 557 953 558 951 q 538 974 542 957 q 535 987 536 981 q 532 999 533 993 q 526 1010 529 1007 q 515 1020 521 1017 q 503 1026 510 1024 q 492 1026 497 1028 l 486 1025 q 476 1019 483 1022 q 446 1019 463 1011 q 437 1025 442 1022 q 426 1031 432 1028 q 415 1025 418 1033 l 414 1015 q 413 996 414 1006 q 411 976 413 986 l 410 975 q 397 956 408 961 q 375 957 386 950 q 358 978 363 964 l 354 1003 q 350 1019 354 1011 l 346 1028 q 333 1046 344 1038 q 299 1075 317 1057 q 285 1082 294 1079 q 265 1093 275 1086 q 249 1107 257 1100 q 232 1121 240 1114 q 224 1131 226 1126 q 213 1144 218 1138 q 201 1156 207 1150 q 196 1163 200 1158 q 185 1175 190 1168 q 176 1189 181 1182 q 165 1212 171 1200 q 153 1235 158 1224 q 142 1268 143 1253 q 140 1274 140 1271 q 139 1281 140 1278 q 156 1332 140 1308 q 181 1353 167 1347 q 213 1363 193 1360 l 215 1363 q 236 1359 226 1361 q 254 1350 246 1357 l 278 1331 q 281 1328 279 1329 q 283 1325 282 1326 q 344 1265 313 1289 q 362 1254 353 1260 q 379 1243 371 1249 q 409 1227 394 1235 q 439 1213 424 1219 l 485 1192 q 494 1188 489 1190 q 575 1167 535 1171 q 606 1157 592 1164 l 614 1151 q 622 1144 618 1147 q 631 1136 626 1140 q 639 1118 639 1128 l 639 1113 q 640 1092 640 1107 q 639 1072 639 1078 q 632 1060 639 1064 q 624 1047 626 1054 q 611 1028 621 1033 q 602 1015 606 1022 q 596 1001 599 1008 q 592 987 594 994 q 586 972 589 979 q 582 963 586 967 q 574 955 579 957 q 561 951 568 953 z "},"Å":{"ha":758,"x_min":42,"x_max":718,"o":"m 104 -125 q 94 -122 103 -125 q 85 -112 90 -121 q 82 -104 83 -108 q 81 -96 81 -100 q 76 -54 76 -75 l 76 42 q 74 67 76 54 q 68 92 71 79 q 65 100 68 94 q 61 109 64 104 q 56 118 58 114 q 47 139 50 128 q 43 160 44 150 q 43 189 42 175 q 47 205 46 197 q 51 219 49 213 q 58 242 56 231 q 65 267 61 254 l 86 335 q 111 394 96 364 q 140 460 126 424 q 147 478 143 468 q 159 508 153 493 q 171 536 165 522 l 192 594 q 196 606 194 600 q 199 617 197 611 q 221 669 210 644 q 232 706 229 686 q 232 744 235 725 q 230 762 231 753 q 229 779 229 771 q 227 787 229 783 q 226 794 225 790 q 230 800 228 797 q 233 806 232 803 q 247 833 238 821 q 267 854 256 844 q 282 863 272 860 q 292 868 288 865 q 301 875 297 871 q 317 882 308 881 q 340 890 328 883 q 365 894 351 897 l 378 894 q 399 888 388 894 q 405 884 401 886 q 413 879 408 882 q 424 858 424 871 q 426 840 424 849 q 429 822 428 832 q 429 804 432 814 q 428 798 428 801 q 426 792 428 794 q 426 781 426 786 q 424 769 425 775 q 426 750 419 760 q 447 713 438 732 q 465 674 456 693 l 490 629 q 513 586 501 611 q 517 578 515 582 q 522 569 519 574 q 530 554 526 563 q 538 538 533 546 q 556 495 549 517 q 572 450 564 474 q 573 448 572 449 q 574 446 574 447 q 588 436 575 436 q 597 438 592 438 q 606 438 601 438 q 632 432 621 438 q 646 424 639 431 q 661 406 657 413 q 667 385 665 399 q 656 339 672 358 l 647 332 q 640 327 644 329 q 633 322 636 325 q 626 314 626 317 q 629 301 625 311 l 650 251 q 676 196 663 224 q 703 140 689 168 q 712 121 708 131 q 717 100 715 111 q 717 83 718 92 q 715 67 717 75 q 713 57 715 65 q 705 46 708 51 q 697 35 701 40 q 679 0 686 19 q 661 -19 676 -12 q 643 -19 653 -24 q 626 -3 631 -15 l 624 4 q 611 31 619 18 q 601 51 606 40 q 590 71 596 61 q 589 76 589 74 q 588 79 589 78 q 583 95 586 88 q 575 110 579 103 q 558 151 567 131 q 539 192 549 171 l 518 236 q 515 245 517 240 q 511 256 514 250 l 494 293 q 492 301 494 296 q 474 314 485 313 q 456 315 464 314 q 439 317 447 317 q 394 313 417 317 q 353 297 372 308 q 299 278 326 282 q 288 276 293 278 q 276 272 282 275 q 267 260 268 267 q 264 247 264 251 l 260 228 q 249 208 258 218 q 229 201 242 201 q 206 219 211 204 q 203 228 204 224 q 200 238 201 232 q 199 224 194 229 q 196 214 201 218 q 194 210 193 211 q 193 200 197 204 q 190 190 189 196 q 190 183 192 188 q 181 160 183 174 q 174 151 182 154 q 171 149 171 151 q 165 136 168 144 q 162 122 164 129 q 157 107 160 114 l 149 72 l 149 67 q 147 42 149 54 q 144 18 144 31 l 140 -28 q 138 -48 139 -37 q 138 -69 138 -58 q 135 -85 136 -78 q 132 -101 135 -93 q 122 -119 129 -114 q 104 -125 117 -128 m 285 438 l 286 438 q 313 442 300 440 q 338 444 325 443 q 354 447 346 446 q 371 447 363 447 l 400 447 q 406 448 403 447 q 410 449 408 449 q 413 454 413 449 q 406 465 408 460 q 400 476 403 471 q 378 510 392 496 q 375 515 376 513 q 372 519 374 517 q 369 526 371 522 q 364 532 367 529 q 350 529 357 538 l 346 518 q 342 495 344 507 q 336 472 339 483 q 333 464 336 469 q 320 451 331 456 q 299 454 310 447 l 290 460 q 288 460 290 460 q 285 451 285 454 q 285 446 285 449 q 283 440 286 443 q 285 438 281 438 m 389 975 q 360 976 375 974 q 331 985 346 979 q 301 996 317 990 q 272 1007 286 1001 q 263 1010 264 1010 q 249 1021 254 1014 q 232 1041 240 1031 q 215 1061 224 1051 q 207 1081 207 1069 q 204 1103 206 1092 q 201 1125 203 1114 q 203 1174 199 1151 l 206 1201 q 209 1218 208 1210 q 211 1235 210 1226 q 214 1243 213 1239 q 217 1251 215 1247 l 225 1269 q 271 1304 239 1297 q 285 1307 279 1307 q 303 1315 294 1307 q 326 1330 314 1324 q 351 1342 339 1336 q 379 1349 365 1349 l 393 1349 q 403 1348 399 1349 q 411 1346 407 1347 q 417 1343 414 1343 q 436 1336 428 1342 q 453 1324 444 1331 q 478 1302 467 1314 q 500 1279 490 1290 q 506 1272 503 1276 q 513 1264 510 1268 q 522 1249 517 1257 q 531 1233 526 1242 q 543 1201 539 1218 l 547 1175 q 551 1152 550 1164 q 550 1128 551 1140 q 547 1110 547 1117 q 537 1065 544 1086 q 514 1025 529 1044 q 446 982 488 992 q 440 980 443 981 q 435 979 438 979 q 389 975 413 974 m 401 1100 q 413 1103 404 1100 q 418 1111 418 1106 q 423 1133 421 1122 q 422 1156 425 1144 q 403 1200 421 1181 q 385 1204 396 1211 q 364 1192 375 1200 q 356 1183 360 1190 q 343 1172 351 1176 l 333 1164 q 328 1153 328 1158 l 328 1144 q 333 1118 328 1129 q 343 1108 338 1113 q 349 1106 346 1107 q 356 1103 353 1104 q 378 1099 367 1100 q 401 1100 390 1099 z "},"Ã":{"ha":758,"x_min":42,"x_max":718,"o":"m 104 -125 q 94 -122 103 -125 q 85 -112 90 -121 q 82 -104 83 -108 q 81 -96 81 -100 q 76 -54 76 -75 l 76 42 q 74 67 76 54 q 68 92 71 79 q 65 100 68 94 q 61 109 64 104 q 56 118 58 114 q 47 139 50 128 q 43 160 44 150 q 43 189 42 175 q 47 205 46 197 q 51 219 49 213 q 58 242 56 231 q 65 267 61 254 l 86 335 q 111 394 96 364 q 140 460 126 424 q 147 478 143 468 q 159 508 153 493 q 171 536 165 522 l 192 594 q 196 606 194 600 q 199 617 197 611 q 221 669 210 644 q 232 706 229 686 q 232 744 235 725 q 230 762 231 753 q 229 779 229 771 q 227 787 229 783 q 226 794 225 790 q 230 800 228 797 q 233 806 232 803 q 247 833 238 821 q 267 854 256 844 q 282 863 272 860 q 292 868 288 865 q 301 875 297 871 q 317 882 308 881 q 340 890 328 883 q 365 894 351 897 l 378 894 q 399 888 388 894 q 405 884 401 886 q 413 879 408 882 q 424 858 424 871 q 426 840 424 849 q 429 822 428 832 q 429 804 432 814 q 428 798 428 801 q 426 792 428 794 q 426 781 426 786 q 424 769 425 775 q 426 750 419 760 q 447 713 438 732 q 465 674 456 693 l 490 629 q 513 586 501 611 q 517 578 515 582 q 522 569 519 574 q 530 554 526 563 q 538 538 533 546 q 556 495 549 517 q 572 450 564 474 q 573 448 572 449 q 574 446 574 447 q 588 436 575 436 q 597 438 592 438 q 606 438 601 438 q 632 432 621 438 q 646 424 639 431 q 661 406 657 413 q 667 385 665 399 q 656 339 672 358 l 647 332 q 640 327 644 329 q 633 322 636 325 q 626 314 626 317 q 629 301 625 311 l 650 251 q 676 196 663 224 q 703 140 689 168 q 712 121 708 131 q 717 100 715 111 q 717 83 718 92 q 715 67 717 75 q 713 57 715 65 q 705 46 708 51 q 697 35 701 40 q 679 0 686 19 q 661 -19 676 -12 q 643 -19 653 -24 q 626 -3 631 -15 l 624 4 q 611 31 619 18 q 601 51 606 40 q 590 71 596 61 q 589 76 589 74 q 588 79 589 78 q 583 95 586 88 q 575 110 579 103 q 558 151 567 131 q 539 192 549 171 l 518 236 q 515 245 517 240 q 511 256 514 250 l 494 293 q 492 301 494 296 q 474 314 485 313 q 456 315 464 314 q 439 317 447 317 q 394 313 417 317 q 353 297 372 308 q 299 278 326 282 q 288 276 293 278 q 276 272 282 275 q 267 260 268 267 q 264 247 264 251 l 260 228 q 249 208 258 218 q 229 201 242 201 q 206 219 211 204 q 203 228 204 224 q 200 238 201 232 q 199 224 194 229 q 196 214 201 218 q 194 210 193 211 q 193 200 197 204 q 190 190 189 196 q 190 183 192 188 q 181 160 183 174 q 174 151 182 154 q 171 149 171 151 q 165 136 168 144 q 162 122 164 129 q 157 107 160 114 l 149 72 l 149 67 q 147 42 149 54 q 144 18 144 31 l 140 -28 q 138 -48 139 -37 q 138 -69 138 -58 q 135 -85 136 -78 q 132 -101 135 -93 q 122 -119 129 -114 q 104 -125 117 -128 m 285 438 l 286 438 q 313 442 300 440 q 338 444 325 443 q 354 447 346 446 q 371 447 363 447 l 400 447 q 406 448 403 447 q 410 449 408 449 q 413 454 413 449 q 406 465 408 460 q 400 476 403 471 q 378 510 392 496 q 375 515 376 513 q 372 519 374 517 q 369 526 371 522 q 364 532 367 529 q 350 529 357 538 l 346 518 q 342 495 344 507 q 336 472 339 483 q 333 464 336 469 q 320 451 331 456 q 299 454 310 447 l 290 460 q 288 460 290 460 q 285 451 285 454 q 285 446 285 449 q 283 440 286 443 q 285 438 281 438 m 506 999 q 480 1004 493 1001 q 456 1013 467 1007 l 436 1021 q 376 1069 400 1035 l 360 1093 q 350 1103 356 1099 q 338 1108 344 1108 q 327 1108 332 1108 q 318 1107 322 1108 q 305 1104 311 1106 q 292 1100 299 1103 q 289 1099 290 1100 q 286 1099 288 1099 l 253 1075 q 208 1029 228 1058 q 199 1019 204 1024 q 186 1010 193 1014 q 169 1007 178 1006 q 160 1008 167 1008 q 146 1006 153 1007 q 132 1003 139 1006 q 113 1008 119 1001 q 89 1035 96 1019 q 85 1047 85 1042 q 78 1067 83 1057 q 78 1101 69 1085 q 85 1115 81 1108 q 94 1128 89 1122 q 99 1132 97 1129 q 101 1138 100 1135 l 111 1151 q 114 1154 113 1153 q 117 1157 115 1156 l 139 1169 q 160 1183 150 1176 q 181 1196 171 1189 q 222 1217 200 1208 q 244 1228 236 1219 q 253 1231 247 1231 q 263 1232 256 1232 q 271 1234 267 1233 q 279 1236 275 1235 q 297 1242 288 1240 q 315 1243 306 1243 q 344 1244 322 1244 q 389 1235 367 1244 q 417 1219 403 1229 q 424 1215 421 1218 q 431 1210 428 1213 q 435 1206 433 1208 q 438 1200 436 1203 q 457 1182 449 1192 q 474 1161 465 1172 q 479 1153 476 1157 q 485 1147 482 1150 q 503 1138 493 1140 q 554 1147 529 1132 q 560 1151 557 1150 q 589 1167 574 1163 q 651 1157 622 1178 q 669 1133 665 1147 q 676 1108 674 1121 q 675 1083 678 1096 q 673 1075 674 1079 q 674 1067 672 1071 q 663 1051 676 1054 q 647 1042 650 1047 l 642 1033 q 633 1028 638 1031 q 624 1025 629 1025 q 610 1024 617 1026 q 597 1018 604 1021 q 574 1010 586 1013 q 550 1003 561 1007 q 528 999 540 1001 q 506 999 517 997 z "},"Æ":{"ha":1208,"x_min":40,"x_max":1156,"o":"m 144 -764 q 111 -756 124 -774 q 100 -729 103 -744 q 98 -696 99 -712 q 94 -661 97 -679 q 91 -619 92 -640 q 90 -578 90 -599 q 90 -566 90 -572 q 89 -554 89 -560 q 86 -540 88 -547 q 86 -524 85 -532 q 85 -515 86 -519 q 85 -506 85 -510 q 83 -491 83 -499 q 83 -476 83 -483 l 83 -442 q 83 -432 83 -436 q 82 -422 83 -428 q 82 -376 78 -399 l 82 -365 q 80 -340 81 -353 q 79 -315 79 -328 q 78 -306 79 -311 q 78 -297 78 -301 q 78 -262 75 -279 q 78 -239 79 -250 q 75 -217 76 -228 q 74 -205 74 -210 q 74 -194 74 -200 q 74 -172 74 -183 q 72 -149 74 -160 q 72 -138 72 -143 q 72 -128 71 -133 l 72 -121 q 71 -97 71 -110 q 71 -74 71 -85 q 69 -35 69 -54 q 69 4 69 -15 q 69 8 69 8 q 68 25 68 17 q 69 43 68 33 q 68 49 69 47 q 65 74 67 61 q 60 99 63 86 q 56 115 58 107 q 50 132 53 124 q 49 136 50 135 q 49 139 49 138 q 42 167 43 153 q 42 194 40 181 q 44 213 43 204 q 47 229 46 221 q 50 238 49 233 q 53 246 51 242 q 64 276 58 261 q 75 307 69 292 q 88 358 86 332 l 88 367 q 89 399 92 381 q 88 411 88 406 q 88 422 88 417 q 90 435 88 429 q 96 447 93 442 q 107 458 101 454 q 114 463 113 461 q 132 485 128 472 q 138 497 135 492 q 142 507 140 501 q 151 536 146 522 q 161 564 156 550 q 164 574 163 569 q 167 583 165 578 q 169 594 167 589 q 172 604 172 603 q 184 645 176 625 q 197 685 192 665 l 203 707 q 204 713 204 710 q 214 736 211 724 q 221 761 217 749 q 227 783 225 772 q 231 806 229 794 q 246 856 233 835 q 265 878 254 868 q 290 892 276 888 q 339 889 317 899 l 349 883 q 357 876 353 881 q 367 869 361 872 q 375 867 369 867 l 399 871 q 439 871 419 872 l 454 871 q 474 872 464 872 q 494 872 485 872 q 508 873 501 872 q 522 874 515 874 q 534 874 528 874 q 546 876 540 875 q 569 879 557 878 q 592 882 581 881 l 597 883 q 628 886 613 883 q 657 892 643 889 q 680 896 668 893 q 704 900 692 899 q 743 907 724 903 q 781 917 763 911 q 793 919 789 919 q 819 926 807 922 q 843 933 831 929 q 853 936 849 935 q 864 939 858 938 q 896 938 878 943 q 932 918 917 933 q 944 900 939 913 l 949 888 q 951 872 950 881 q 954 857 953 864 q 953 847 954 851 q 949 838 953 842 l 944 831 q 936 825 942 825 q 929 822 932 825 q 922 817 925 818 q 918 812 919 815 q 914 806 917 808 q 913 800 913 803 q 910 794 913 797 q 890 778 903 779 q 887 777 889 778 q 883 776 885 776 q 874 778 876 776 q 866 783 869 781 q 860 786 863 785 q 849 789 857 789 q 845 788 847 788 q 840 786 843 788 q 834 785 838 786 q 826 785 831 785 q 806 782 817 786 q 781 778 793 781 q 758 772 769 775 q 734 764 746 769 q 711 750 722 758 q 699 745 706 746 q 685 746 692 744 q 672 751 676 749 q 658 753 668 753 q 630 749 644 751 q 600 743 615 746 l 586 742 q 550 725 564 739 l 522 704 q 506 693 514 699 q 488 683 497 688 l 483 681 q 476 665 471 676 q 486 635 481 646 q 495 615 490 625 q 504 593 500 604 q 515 569 510 581 q 526 543 521 557 q 550 528 533 528 q 558 528 554 529 q 565 529 561 528 q 585 531 575 531 q 604 532 594 531 l 658 536 q 669 537 664 536 q 679 539 674 538 q 708 542 694 540 q 736 546 722 544 q 741 547 739 546 q 744 547 743 547 q 790 559 768 554 q 835 568 813 564 q 878 582 858 572 q 888 585 883 583 q 896 588 892 586 q 951 578 925 596 q 969 563 963 572 q 978 540 976 553 l 982 529 q 981 513 986 521 q 975 499 975 507 q 968 481 975 490 q 954 468 963 474 q 939 457 946 463 q 932 456 936 456 l 896 447 q 878 444 886 446 q 860 440 869 443 q 835 436 847 439 q 810 431 822 433 q 799 426 804 429 q 788 421 793 424 q 760 414 774 414 q 748 413 754 414 q 735 410 742 411 q 719 407 726 407 q 692 406 706 408 q 664 401 678 404 q 635 397 650 397 q 617 393 628 397 l 601 389 l 593 385 q 586 372 586 381 q 588 369 588 371 q 589 364 588 367 q 594 340 592 351 q 600 317 597 328 q 604 296 604 307 q 606 292 606 294 q 607 288 606 290 q 615 275 610 279 q 636 267 626 271 q 656 261 646 264 q 689 256 672 258 q 721 250 706 253 q 738 247 729 249 q 754 243 746 246 q 760 242 757 243 q 765 242 763 242 q 782 240 774 242 q 799 238 790 239 q 810 235 804 236 q 821 235 815 235 q 827 234 824 235 q 835 233 831 233 q 865 231 850 232 q 896 228 881 231 l 899 228 q 932 228 915 231 l 997 228 q 1022 229 1010 228 q 1047 233 1035 231 q 1083 233 1067 238 q 1114 217 1099 228 q 1124 204 1121 210 q 1127 200 1126 203 q 1129 194 1128 197 q 1138 189 1135 189 q 1149 183 1144 190 q 1151 160 1156 171 l 1147 150 q 1143 150 1147 146 l 1140 154 q 1135 157 1139 157 q 1129 150 1129 154 q 1131 144 1131 149 q 1128 135 1132 139 q 1113 119 1121 126 l 1104 114 q 1063 100 1086 100 l 1024 100 q 997 100 1010 100 q 971 99 983 100 q 949 97 960 97 q 926 97 938 97 l 882 97 q 860 95 871 96 q 838 96 849 94 q 835 95 836 96 q 831 94 833 94 q 808 92 819 93 q 785 93 796 92 q 761 93 774 93 q 738 94 749 93 q 715 88 725 94 q 710 82 713 85 q 704 75 707 79 l 700 67 q 696 58 699 63 q 690 50 693 54 q 674 41 685 43 q 654 44 663 39 q 648 49 651 47 q 642 56 644 51 q 638 63 642 58 l 632 63 l 629 60 q 616 40 622 50 q 604 18 610 29 q 596 -11 599 4 q 594 -40 594 -25 q 593 -71 593 -56 q 593 -106 593 -89 q 592 -143 593 -124 q 590 -167 590 -154 q 590 -192 590 -179 q 590 -206 589 -199 q 589 -219 590 -212 q 589 -232 589 -225 q 588 -246 589 -239 q 587 -260 588 -253 q 586 -275 586 -268 l 586 -306 q 585 -314 586 -310 q 583 -322 585 -318 q 558 -336 576 -340 q 536 -317 542 -332 q 533 -308 535 -312 q 531 -297 532 -303 q 523 -247 525 -272 q 519 -196 521 -222 q 519 -184 519 -190 q 518 -172 519 -178 q 517 -163 517 -168 q 517 -154 517 -158 l 517 -86 l 513 -28 q 511 -22 511 -26 q 511 -8 513 -15 q 510 8 510 0 q 506 32 510 19 q 501 47 504 39 q 496 64 499 56 q 493 72 493 69 q 490 102 492 88 q 489 132 488 117 q 489 139 489 135 q 488 147 489 143 q 485 165 486 156 q 481 183 483 174 q 479 192 479 186 q 475 208 479 200 l 472 219 l 464 257 q 461 272 463 264 q 458 289 460 281 q 456 300 457 294 q 453 311 456 306 q 450 326 451 318 q 447 340 449 333 q 447 345 447 343 q 446 349 446 347 l 443 349 l 443 343 q 442 316 442 329 q 440 289 442 303 q 442 281 440 283 q 443 250 443 265 q 440 219 443 235 l 440 193 q 438 181 439 188 q 435 167 438 174 q 417 153 431 156 q 396 160 404 150 q 382 188 382 171 l 382 193 q 378 212 379 203 q 375 231 378 221 q 374 239 374 233 q 371 268 374 254 q 368 296 368 282 q 367 304 368 301 q 363 322 365 314 q 357 340 360 331 q 356 342 357 342 q 356 343 356 342 q 339 349 351 357 l 324 340 q 313 334 318 338 q 304 325 308 331 q 282 307 294 313 q 272 301 276 306 q 265 294 269 299 q 258 286 261 290 q 253 275 256 283 q 244 248 247 261 q 238 221 240 235 l 233 210 q 227 182 231 196 q 219 153 224 168 q 210 117 214 135 q 199 79 206 99 q 196 74 199 76 q 185 47 190 60 q 176 21 181 35 q 171 1 172 11 q 167 -19 169 -8 q 164 -37 167 -26 q 163 -48 163 -43 q 163 -58 163 -53 q 163 -102 164 -81 q 163 -144 163 -124 q 162 -158 163 -151 q 160 -171 161 -164 q 158 -180 158 -175 q 156 -190 157 -185 q 156 -219 156 -204 q 158 -249 156 -233 l 158 -260 q 160 -271 160 -265 q 161 -282 160 -276 q 162 -292 161 -287 q 163 -301 163 -296 q 163 -319 163 -310 q 165 -336 164 -328 q 167 -350 167 -342 q 167 -362 167 -356 q 168 -375 168 -368 q 167 -388 168 -382 q 167 -401 167 -394 l 167 -472 q 167 -483 167 -478 q 165 -493 167 -487 q 164 -501 164 -497 q 164 -510 164 -506 q 167 -537 167 -524 q 165 -564 167 -550 q 163 -583 164 -574 q 163 -601 163 -592 q 163 -630 163 -615 q 163 -660 164 -644 l 161 -674 q 158 -705 160 -689 q 157 -736 157 -721 q 156 -749 156 -740 q 144 -764 153 -760 m 307 501 q 323 501 315 500 q 336 504 331 503 q 339 510 342 507 q 335 522 338 517 q 329 533 332 528 q 315 550 325 544 q 307 547 310 556 q 303 532 306 540 q 297 515 300 524 l 297 507 q 301 501 297 506 l 307 501 z "},"B":{"ha":749,"x_min":51,"x_max":694,"o":"m 242 -190 q 231 -189 235 -193 q 211 -165 215 -182 l 211 -162 q 208 -137 210 -150 q 206 -114 207 -125 q 205 -108 206 -111 q 204 -101 204 -104 q 203 -93 203 -97 q 203 -85 203 -89 q 200 -65 203 -74 q 194 -49 197 -57 q 189 -42 192 -43 q 181 -27 183 -35 q 174 -11 178 -19 l 174 -10 q 165 16 167 10 q 164 42 164 22 l 164 60 q 172 82 164 74 q 176 88 174 85 q 179 93 178 90 q 179 106 182 101 q 171 128 174 117 q 165 153 168 140 l 165 168 q 167 184 167 176 q 169 200 168 192 q 169 228 172 213 q 167 240 167 236 q 165 249 165 244 q 164 257 164 253 q 160 288 164 274 q 157 301 157 296 q 154 345 157 324 q 149 389 151 367 q 148 392 149 392 q 147 394 147 393 q 144 417 147 406 q 139 439 142 429 q 138 446 138 442 q 136 453 138 450 q 134 471 135 463 q 131 489 133 479 l 131 494 q 126 524 129 510 q 119 551 122 538 q 119 563 119 557 q 117 574 118 568 l 113 589 q 110 601 111 594 q 108 613 110 607 q 107 631 107 622 q 106 650 107 640 q 103 668 104 660 q 100 685 103 676 q 98 708 99 696 q 94 731 97 719 q 78 771 90 753 q 56 858 51 810 q 68 886 58 874 q 75 894 69 889 q 98 913 85 907 q 126 921 111 919 q 169 933 150 925 q 244 950 207 944 q 294 954 269 954 l 308 954 q 331 957 319 957 q 354 957 343 957 l 367 957 q 381 963 375 957 l 397 972 q 406 972 401 975 q 415 968 410 969 q 424 964 419 967 q 436 958 431 961 q 447 953 442 956 q 454 949 450 950 q 463 946 458 947 l 489 940 q 509 935 500 939 q 528 928 518 932 q 547 916 539 924 q 564 899 556 908 q 589 853 583 881 q 596 826 590 842 q 599 807 599 817 q 600 786 599 797 q 600 779 600 786 q 596 748 599 764 q 589 717 593 732 q 580 688 585 703 q 568 658 575 672 q 544 618 560 638 q 526 592 535 606 q 506 567 517 579 q 494 555 500 561 q 483 543 489 549 l 467 526 l 467 524 q 469 521 467 521 l 490 521 q 529 516 510 519 q 567 507 549 513 q 574 504 571 506 q 582 500 578 503 l 599 490 q 614 479 607 485 q 624 463 621 474 q 631 449 626 456 q 643 423 638 436 q 654 396 649 410 q 659 385 657 390 q 663 375 661 381 q 676 336 669 356 q 688 296 683 317 l 692 261 q 692 243 694 253 q 689 227 690 235 q 686 211 688 219 q 674 176 682 193 q 663 161 669 168 q 625 126 644 139 q 606 114 615 121 q 586 100 597 107 q 539 74 565 88 q 524 67 532 71 q 510 60 517 63 q 467 40 488 50 q 425 22 446 31 q 382 6 403 14 q 338 -10 361 -3 q 327 -12 332 -11 q 317 -15 322 -14 q 276 -42 292 -19 q 271 -56 271 -47 q 269 -66 269 -61 q 268 -76 268 -71 q 267 -87 267 -81 l 267 -136 q 267 -151 267 -143 q 264 -165 267 -158 q 242 -190 261 -181 m 274 539 q 275 538 275 538 q 276 539 275 539 q 278 540 278 540 q 279 540 279 540 q 293 543 286 539 q 308 553 300 549 q 324 564 315 558 q 348 583 336 572 q 371 604 360 593 q 403 641 388 622 q 431 681 418 660 q 444 705 438 693 q 457 731 451 717 q 467 772 464 749 q 465 797 469 786 q 453 813 461 808 q 406 824 428 824 q 379 824 392 824 q 354 822 367 824 q 332 819 343 821 q 310 815 321 818 q 290 809 300 813 q 268 803 279 806 q 249 785 253 799 q 246 772 246 781 l 246 750 q 246 722 244 736 q 249 694 247 708 l 250 693 q 251 674 249 683 q 254 653 253 664 q 258 646 254 649 q 260 635 264 643 q 259 634 260 635 q 260 632 258 633 q 261 627 263 631 q 260 621 260 624 q 261 606 260 610 q 263 599 263 603 q 264 587 263 593 q 267 575 265 581 q 269 574 267 572 q 274 575 271 575 q 275 571 275 575 l 275 567 q 272 546 268 557 l 272 540 q 274 540 274 540 q 274 539 274 539 m 299 115 q 307 115 303 115 q 317 117 311 115 q 369 132 342 121 l 424 157 q 467 178 446 168 q 510 199 488 189 q 553 232 533 211 q 565 263 565 244 l 565 269 q 564 274 564 272 q 563 279 564 276 q 551 322 558 301 q 535 363 543 342 q 531 373 533 368 q 525 383 528 378 q 514 393 521 392 q 490 397 501 397 l 468 397 q 392 393 431 399 q 313 376 353 388 l 303 372 q 301 371 301 371 q 299 369 300 371 q 297 361 294 365 l 300 358 q 301 350 304 354 q 299 339 299 346 q 299 328 299 333 q 300 318 299 324 q 301 307 301 313 q 301 296 301 301 l 301 279 q 307 258 301 265 q 310 247 310 253 q 311 236 311 242 q 307 221 311 229 q 306 204 303 214 q 310 199 307 201 q 307 183 313 189 q 304 171 303 176 q 303 158 304 163 q 299 151 301 156 q 293 144 297 147 q 283 128 286 139 q 281 119 281 122 q 290 117 281 115 q 295 116 293 117 q 299 115 297 115 z "},"C":{"ha":786,"x_min":56,"x_max":732,"o":"m 238 -175 q 231 -173 233 -175 q 225 -169 228 -171 q 217 -153 219 -161 q 214 -137 215 -144 q 213 -121 213 -129 q 213 -112 213 -117 q 211 -101 213 -107 q 208 -88 210 -94 q 206 -76 207 -82 q 190 -47 201 -58 q 179 -36 183 -43 q 161 -16 169 -26 q 146 6 153 -6 l 139 18 q 123 42 129 29 q 111 67 117 54 l 103 89 l 99 97 q 94 119 97 108 q 89 139 92 129 q 86 151 88 146 q 83 161 85 156 q 81 183 82 172 q 76 204 79 194 q 75 214 75 207 l 71 253 q 68 282 69 268 q 64 310 67 296 l 64 315 q 63 338 64 326 q 60 358 61 349 q 58 369 58 364 q 58 379 58 374 q 58 392 61 386 q 57 406 57 399 q 57 419 57 414 q 56 447 57 433 q 56 474 56 460 q 56 504 56 489 q 58 533 57 519 l 58 543 q 65 603 60 574 q 79 660 71 632 l 96 715 q 101 731 99 724 q 107 746 104 739 q 115 769 111 757 q 122 792 119 781 q 129 820 125 806 q 136 849 133 835 q 151 889 142 869 q 176 922 161 908 q 182 928 179 925 q 189 933 185 932 q 202 942 196 938 q 215 950 208 946 q 271 975 243 965 l 324 996 q 343 1001 332 999 q 357 1005 350 1004 q 369 1007 364 1006 q 451 1007 411 1015 q 482 994 467 1003 q 535 963 508 982 q 564 935 550 950 q 588 901 578 921 q 606 865 597 883 q 619 839 610 850 l 636 814 q 641 807 639 811 q 644 800 643 803 q 650 749 654 776 q 636 713 646 726 q 628 701 631 704 q 608 649 608 681 l 608 644 q 607 616 607 631 q 606 586 607 601 l 606 528 q 604 513 604 521 q 603 499 604 506 q 601 490 601 494 q 601 479 601 485 q 594 451 601 465 q 568 442 585 438 q 551 458 556 446 q 548 467 550 463 q 544 476 546 471 q 542 492 543 483 q 542 507 542 500 q 541 526 542 517 q 540 544 540 535 l 540 549 q 538 567 539 558 q 538 586 538 576 q 535 617 536 601 q 531 646 533 632 l 518 679 q 508 701 513 690 q 497 724 503 713 q 489 742 494 733 q 478 760 483 750 q 453 796 467 781 q 447 801 450 799 q 442 807 444 804 q 431 813 436 810 q 422 822 426 817 q 419 824 421 824 q 414 826 417 825 q 363 828 385 835 l 342 824 q 331 823 336 824 q 321 821 326 822 l 311 817 q 301 807 307 815 q 299 796 301 801 q 297 788 297 792 q 296 782 296 785 q 285 744 292 763 q 269 707 278 726 q 261 692 267 700 q 256 684 258 688 q 251 674 253 681 l 243 661 q 233 642 236 654 q 227 619 229 631 q 222 596 225 607 q 217 563 218 579 q 214 529 215 546 l 214 438 q 213 428 214 432 q 213 418 213 424 q 212 394 213 407 q 213 371 211 382 q 214 358 214 367 q 218 321 214 340 q 219 314 218 315 q 222 300 226 307 q 224 294 222 296 q 233 259 229 276 q 243 224 238 242 q 255 193 249 208 q 271 163 261 178 q 303 136 282 146 q 319 131 311 133 q 336 126 328 128 q 354 124 346 125 q 371 124 363 124 q 393 125 382 124 q 414 128 404 126 q 442 133 429 131 q 469 139 456 136 q 513 153 493 143 q 517 156 514 153 q 538 170 528 163 q 558 188 549 178 q 576 204 567 196 q 592 222 585 213 l 604 240 q 622 263 613 256 q 631 272 628 268 q 638 276 633 276 q 654 278 646 276 q 672 278 663 279 q 688 273 681 276 q 703 267 696 269 q 710 261 706 265 q 722 245 717 253 q 728 228 726 238 q 731 213 731 217 q 728 193 732 204 q 711 167 722 181 q 697 153 704 161 q 683 138 690 144 q 665 117 674 128 q 646 97 657 107 q 638 91 642 94 q 632 85 635 88 q 605 63 619 72 q 575 47 590 54 l 538 31 q 509 21 524 25 q 479 13 494 17 q 451 5 465 8 q 421 -1 436 1 l 367 -10 q 347 -13 357 -11 q 325 -14 336 -15 q 296 -22 311 -12 q 281 -42 282 -29 q 278 -54 278 -50 l 274 -90 q 273 -111 274 -100 q 271 -133 272 -122 q 268 -145 269 -139 q 264 -158 267 -151 q 238 -175 257 -175 z "},"Ç":{"ha":786,"x_min":56,"x_max":732,"o":"m 238 -175 q 231 -173 233 -175 q 225 -169 228 -171 q 217 -153 219 -161 q 214 -137 215 -144 q 213 -121 213 -129 q 213 -112 213 -117 q 211 -101 213 -107 q 208 -88 210 -94 q 206 -76 207 -82 q 190 -47 201 -58 q 179 -36 183 -43 q 161 -16 169 -26 q 146 6 153 -6 l 139 18 q 123 42 129 29 q 111 67 117 54 l 103 89 l 99 97 q 94 119 97 108 q 89 139 92 129 q 86 151 88 146 q 83 161 85 156 q 81 183 82 172 q 76 204 79 194 q 75 214 75 207 l 71 253 q 68 282 69 268 q 64 310 67 296 l 64 315 q 63 338 64 326 q 60 358 61 349 q 58 369 58 364 q 58 379 58 374 q 58 392 61 386 q 57 406 57 399 q 57 419 57 414 q 56 447 57 433 q 56 474 56 460 q 56 504 56 489 q 58 533 57 519 l 58 543 q 65 603 60 574 q 79 660 71 632 l 96 715 q 101 731 99 724 q 107 746 104 739 q 115 769 111 757 q 122 792 119 781 q 129 820 125 806 q 136 849 133 835 q 151 889 142 869 q 176 922 161 908 q 182 928 179 925 q 189 933 185 932 q 202 942 196 938 q 215 950 208 946 q 271 975 243 965 l 324 996 q 343 1001 332 999 q 357 1005 350 1004 q 369 1007 364 1006 q 451 1007 411 1015 q 482 994 467 1003 q 535 963 508 982 q 564 935 550 950 q 588 901 578 921 q 606 865 597 883 q 619 839 610 850 l 636 814 q 641 807 639 811 q 644 800 643 803 q 650 749 654 776 q 636 713 646 726 q 628 701 631 704 q 608 649 608 681 l 608 644 q 607 616 607 631 q 606 586 607 601 l 606 528 q 604 513 604 521 q 603 499 604 506 q 601 490 601 494 q 601 479 601 485 q 594 451 601 465 q 568 442 585 438 q 551 458 556 446 q 548 467 550 463 q 544 476 546 471 q 542 492 543 483 q 542 507 542 500 q 541 526 542 517 q 540 544 540 535 l 540 549 q 538 567 539 558 q 538 586 538 576 q 535 617 536 601 q 531 646 533 632 l 518 679 q 508 701 513 690 q 497 724 503 713 q 489 742 494 733 q 478 760 483 750 q 453 796 467 781 q 447 801 450 799 q 442 807 444 804 q 431 813 436 810 q 422 822 426 817 q 419 824 421 824 q 414 826 417 825 q 363 828 385 835 l 342 824 q 331 823 336 824 q 321 821 326 822 l 311 817 q 301 807 307 815 q 299 796 301 801 q 297 788 297 792 q 296 782 296 785 q 285 744 292 763 q 269 707 278 726 q 261 692 267 700 q 256 684 258 688 q 251 674 253 681 l 243 661 q 233 642 236 654 q 227 619 229 631 q 222 596 225 607 q 217 563 218 579 q 214 529 215 546 l 214 438 q 213 428 214 432 q 213 418 213 424 q 212 394 213 407 q 213 371 211 382 q 214 358 214 367 q 218 321 214 340 q 219 314 218 315 q 222 300 226 307 q 224 294 222 296 q 233 259 229 276 q 243 224 238 242 q 255 193 249 208 q 271 163 261 178 q 303 136 282 146 q 319 131 311 133 q 336 126 328 128 q 354 124 346 125 q 371 124 363 124 q 393 125 382 124 q 414 128 404 126 q 442 133 429 131 q 469 139 456 136 q 513 153 493 143 q 517 156 514 153 q 538 170 528 163 q 558 188 549 178 q 576 204 567 196 q 592 222 585 213 l 604 240 q 622 263 613 256 q 631 272 628 268 q 638 276 633 276 q 654 278 646 276 q 672 278 663 279 q 688 273 681 276 q 703 267 696 269 q 710 261 706 265 q 722 245 717 253 q 728 228 726 238 q 731 213 731 217 q 728 193 732 204 q 711 167 722 181 q 697 153 704 161 q 683 138 690 144 q 665 117 674 128 q 646 97 657 107 q 638 91 642 94 q 632 85 635 88 q 605 63 619 72 q 575 47 590 54 l 538 31 q 509 21 524 25 q 479 13 494 17 q 451 5 465 8 q 421 -1 436 1 l 367 -10 q 347 -13 357 -11 q 325 -14 336 -15 q 296 -22 311 -12 q 281 -42 282 -29 q 278 -54 278 -50 l 274 -90 q 273 -111 274 -100 q 271 -133 272 -122 q 268 -145 269 -139 q 264 -158 267 -151 q 238 -175 257 -175 m 356 -400 q 349 -399 351 -401 q 339 -397 344 -397 q 325 -394 332 -399 q 318 -390 324 -393 q 314 -385 315 -387 q 313 -381 314 -382 q 301 -361 311 -368 q 297 -351 297 -357 l 297 -336 q 301 -319 297 -325 l 304 -315 q 317 -292 308 -303 q 325 -283 319 -285 q 338 -278 332 -281 q 350 -272 344 -275 l 381 -260 q 428 -243 404 -251 q 476 -226 453 -235 l 510 -218 q 526 -212 518 -215 q 542 -207 535 -210 q 556 -200 551 -204 q 557 -194 560 -196 l 553 -190 q 504 -154 529 -174 q 490 -143 497 -147 q 474 -135 482 -139 q 428 -104 447 -124 q 407 -81 417 -93 q 389 -56 397 -69 q 382 -42 383 -47 q 376 -23 379 -32 q 371 -4 374 -14 q 370 4 371 0 q 368 13 369 8 q 360 65 361 39 q 360 117 358 90 q 368 172 360 146 l 372 183 q 414 221 385 213 q 425 224 419 224 q 436 224 431 224 q 476 206 458 225 l 488 197 q 498 185 494 192 q 504 172 501 179 q 506 165 506 171 q 504 126 508 144 l 500 92 q 499 59 499 75 q 500 26 499 43 q 502 13 500 19 q 506 -1 504 6 q 510 -10 507 -7 q 515 -17 513 -14 q 525 -23 521 -19 q 533 -29 529 -26 q 563 -50 549 -39 q 592 -72 578 -61 l 621 -93 q 643 -108 633 -100 q 649 -113 646 -110 q 654 -119 651 -117 l 671 -144 q 676 -156 674 -147 q 680 -167 678 -161 q 683 -178 682 -172 q 686 -186 686 -183 q 688 -194 688 -189 q 683 -199 688 -199 q 678 -203 678 -199 l 678 -214 q 650 -276 675 -253 l 633 -292 q 601 -311 617 -303 q 588 -319 596 -317 q 574 -324 581 -321 q 542 -333 558 -328 q 511 -342 526 -337 q 508 -343 510 -342 l 433 -368 q 422 -373 428 -369 q 413 -382 417 -376 l 408 -386 q 400 -391 404 -389 q 392 -396 396 -393 q 374 -400 383 -400 q 356 -400 365 -400 z "},"D":{"ha":771,"x_min":51,"x_max":717,"o":"m 197 -514 q 171 -503 182 -518 l 167 -492 q 161 -468 164 -481 q 157 -444 158 -456 l 153 -417 q 151 -402 151 -410 q 149 -387 150 -394 q 148 -372 149 -379 q 146 -356 147 -364 q 146 -342 146 -349 q 144 -329 146 -336 q 144 -318 144 -324 q 143 -307 144 -312 q 142 -292 143 -300 q 142 -278 142 -285 q 140 -258 140 -268 q 139 -239 140 -249 l 135 -201 l 135 -189 q 136 -170 136 -179 q 138 -151 136 -161 l 138 -140 q 137 -116 139 -128 q 138 -92 135 -104 q 137 -68 138 -81 q 136 -44 136 -56 q 138 -32 136 -36 q 137 -2 139 -17 q 135 26 135 13 q 133 35 135 32 q 129 43 132 39 q 119 76 119 57 q 118 92 119 86 q 119 104 118 100 q 118 147 122 128 q 118 160 118 154 q 117 172 118 167 q 117 192 117 182 q 114 213 117 203 l 114 214 q 112 249 113 232 q 110 283 111 265 l 110 290 q 106 330 107 310 q 101 371 106 350 q 100 385 100 378 q 100 400 100 393 q 99 424 100 413 q 94 449 97 436 q 94 460 94 454 q 93 471 93 465 l 89 500 q 87 508 88 504 q 86 518 86 513 l 82 561 q 79 572 82 567 q 76 595 78 583 q 75 618 74 607 q 74 633 75 628 q 72 651 72 642 q 72 668 72 660 q 72 707 72 688 q 72 744 71 726 q 73 769 72 757 q 75 792 74 781 l 75 806 q 71 826 75 817 q 65 836 68 831 q 63 845 64 840 q 58 856 61 850 q 63 894 51 875 q 63 897 63 896 q 64 899 64 897 q 79 919 68 910 q 101 950 96 932 q 126 981 110 969 q 134 985 131 983 q 142 988 138 988 q 154 996 147 989 q 160 997 156 997 l 188 993 q 201 988 196 993 q 212 978 207 982 q 218 967 217 974 l 226 958 q 240 953 233 951 q 253 953 247 954 q 264 949 258 951 q 281 942 272 944 q 299 936 290 939 q 309 932 304 935 q 319 926 314 929 q 353 912 336 919 q 385 893 369 904 q 419 870 401 882 q 450 844 436 858 l 513 792 q 528 778 521 786 q 542 764 535 771 q 572 738 556 750 q 592 722 583 731 q 611 706 601 714 q 632 685 622 696 q 651 663 642 674 q 674 633 664 649 q 689 600 683 618 l 701 567 q 713 533 708 550 q 715 496 717 515 l 715 475 q 714 442 717 458 q 707 410 711 425 q 704 397 706 403 q 701 383 703 390 q 681 336 693 360 q 669 316 675 326 q 657 294 664 306 q 650 285 654 289 q 620 250 636 267 q 586 218 604 233 q 575 209 581 214 q 564 199 569 204 q 559 193 563 196 q 553 188 556 190 q 537 172 544 179 q 522 154 529 164 l 518 149 q 500 131 508 140 q 482 113 492 121 q 469 101 476 107 q 456 88 463 94 q 453 85 454 86 q 449 81 451 83 q 444 76 447 78 q 439 71 442 74 l 422 54 q 403 36 413 44 q 382 18 393 28 q 378 15 381 17 q 375 11 376 14 q 363 1 369 6 q 349 -8 356 -3 q 339 -12 344 -12 q 325 -15 331 -15 q 308 -24 315 -15 q 297 -36 303 -29 q 286 -50 292 -43 l 254 -92 q 238 -124 242 -104 q 235 -144 236 -133 q 231 -165 233 -154 q 226 -201 226 -182 q 226 -231 228 -217 q 222 -261 224 -246 l 222 -269 q 224 -290 222 -279 q 224 -311 225 -300 q 222 -331 222 -321 q 222 -351 222 -342 q 222 -369 222 -361 q 221 -386 222 -378 q 220 -406 221 -396 q 221 -426 219 -417 l 221 -440 q 221 -451 221 -446 q 219 -464 221 -457 q 219 -478 219 -471 q 217 -493 218 -486 q 216 -494 217 -494 q 215 -496 215 -494 q 197 -514 211 -512 m 317 176 q 322 179 319 176 q 336 186 329 182 q 349 194 343 190 q 372 213 360 200 q 404 245 388 229 q 436 278 421 261 q 468 312 451 294 q 500 344 485 329 l 528 374 q 538 385 533 379 q 546 397 542 392 q 553 432 557 413 q 536 489 549 463 q 526 513 532 501 q 515 536 521 525 q 508 549 510 544 q 501 558 504 553 q 483 581 493 571 q 477 587 481 583 q 471 594 474 590 q 460 611 465 603 q 449 626 456 619 q 435 645 439 642 q 415 658 431 649 q 388 679 399 668 l 379 688 q 355 706 367 697 q 331 724 343 714 q 303 741 317 733 q 274 757 289 749 q 264 761 269 760 q 253 764 258 763 q 243 761 247 765 l 240 754 q 238 735 238 749 l 242 697 q 248 667 244 682 q 254 636 251 651 l 254 631 q 258 601 257 617 q 263 571 260 586 q 267 546 265 558 q 269 521 268 533 q 273 499 271 510 q 276 478 275 489 q 284 431 281 454 q 290 385 288 408 l 294 350 q 296 340 296 344 q 297 331 296 335 l 297 319 q 302 288 300 304 q 306 256 304 272 q 307 247 307 253 q 308 215 306 232 q 311 183 311 199 l 311 179 q 313 176 311 178 q 317 176 315 175 z "},"Ð":{"ha":833,"x_min":-1,"x_max":868,"o":"m 183 -529 q 169 -529 179 -532 q 158 -518 160 -525 q 155 -503 157 -511 q 151 -489 153 -496 q 151 -472 151 -481 q 150 -456 150 -464 l 150 -449 q 149 -438 149 -443 q 149 -428 149 -433 q 147 -418 147 -422 q 147 -408 147 -414 q 146 -400 146 -406 q 146 -385 146 -393 q 144 -371 146 -378 l 144 -351 q 143 -336 144 -342 q 141 -326 142 -331 q 142 -317 140 -322 l 142 -310 q 142 -304 142 -307 q 143 -300 143 -301 q 144 -296 143 -297 q 144 -293 144 -294 q 144 -270 143 -282 q 144 -247 144 -258 l 144 -246 q 144 -230 143 -237 q 144 -214 144 -222 l 144 -208 q 144 -192 144 -200 q 146 -176 144 -185 q 146 -168 149 -172 l 146 -157 q 145 -143 144 -150 q 144 -131 146 -136 l 144 -119 q 144 -105 144 -112 q 143 -92 144 -97 q 142 -85 142 -89 q 140 -81 142 -82 q 142 -72 140 -75 l 142 -62 q 139 -50 143 -57 q 133 -36 136 -44 q 129 -27 132 -32 q 124 -18 126 -22 q 118 -4 121 -12 q 115 6 117 1 q 111 15 113 10 q 104 28 110 19 l 101 32 q 96 46 96 40 l 96 50 q 95 54 96 51 q 96 58 94 57 q 99 61 99 58 q 98 64 99 63 q 97 67 97 65 l 97 68 l 99 69 q 104 78 104 75 q 107 83 104 81 q 111 89 107 85 l 125 93 q 129 94 126 94 q 139 103 138 97 l 140 104 q 143 106 140 106 q 153 104 149 104 q 161 104 157 104 l 178 100 q 186 99 182 99 q 194 97 190 99 q 199 100 199 96 l 197 110 l 197 136 q 196 158 193 146 q 195 172 196 165 q 194 186 194 179 q 194 187 194 186 q 193 189 194 188 q 192 203 192 196 q 192 218 192 211 q 191 242 192 231 q 189 265 190 254 q 188 272 188 268 q 188 285 190 279 q 185 297 186 290 q 185 308 185 303 q 183 324 185 318 q 182 331 182 326 q 182 338 182 335 q 183 342 183 340 q 182 347 182 344 q 181 358 182 354 q 180 365 181 361 q 181 372 179 369 q 179 378 181 376 l 179 407 q 178 412 178 410 q 175 415 178 414 q 168 418 172 421 q 163 415 165 418 q 151 410 157 413 q 138 406 144 408 q 135 405 136 406 q 132 404 133 404 q 125 401 128 403 q 119 397 122 400 q 111 381 114 392 q 110 372 111 376 q 110 363 110 368 q 109 351 110 357 q 107 339 108 346 q 100 325 107 332 q 79 318 93 314 q 67 326 71 321 q 61 339 61 335 q 61 346 61 342 q 60 353 61 350 q 59 358 60 356 q 58 361 58 360 q 57 376 57 368 q 56 390 57 383 q 53 397 56 392 q 43 417 51 406 q 38 422 40 419 q 33 426 36 425 q 26 440 28 435 q 21 453 26 444 q 20 453 21 453 q 19 454 19 453 q 8 468 11 463 q 1 485 6 474 q -1 494 0 490 q 0 504 -1 499 q 1 515 1 508 q 11 531 1 526 l 15 536 q 22 542 18 542 l 26 546 q 42 551 35 551 l 47 551 q 60 553 51 553 l 65 553 q 79 551 69 554 q 81 551 81 551 q 83 550 82 550 q 101 549 92 550 q 119 549 110 547 q 122 549 122 549 q 138 547 133 549 l 146 547 q 157 546 150 546 q 164 547 161 546 q 168 553 168 547 l 168 601 q 167 608 167 604 q 168 614 168 611 q 168 651 171 633 q 167 663 167 657 q 165 674 167 668 l 165 676 q 165 690 167 683 q 164 703 164 697 l 164 710 q 163 715 164 713 q 163 718 163 717 q 163 730 163 725 q 161 740 163 735 l 161 744 q 160 771 161 758 q 161 797 160 783 q 163 814 164 806 q 163 831 161 822 q 164 839 164 833 q 165 849 164 846 q 167 861 165 857 l 167 869 q 167 878 167 874 q 168 885 168 882 l 168 888 q 163 892 165 894 q 156 890 158 892 q 143 885 147 888 q 131 879 135 882 l 128 879 q 121 878 124 879 q 103 871 111 874 q 99 870 101 871 q 94 869 97 869 q 74 882 81 869 q 71 888 72 885 q 67 893 69 892 q 63 896 67 896 q 60 897 61 896 q 58 897 60 897 q 43 907 49 897 l 38 917 q 32 928 36 922 q 29 936 29 933 q 28 947 26 944 q 25 950 28 950 q 25 954 25 954 l 26 960 q 32 975 26 967 q 36 981 35 978 q 41 988 38 985 q 49 993 44 990 q 63 1000 53 997 q 69 1001 65 1001 q 75 1003 72 1001 q 83 1004 81 1003 q 103 1006 92 1008 q 114 1004 107 1004 q 122 1004 118 1007 q 126 1003 124 1003 l 154 999 l 160 999 q 168 1006 167 1001 q 168 1006 168 1006 q 169 1008 168 1007 q 181 1028 171 1018 q 185 1031 183 1029 q 188 1035 186 1033 q 199 1044 190 1039 q 207 1047 204 1047 q 212 1049 210 1049 q 217 1050 214 1049 q 249 1050 233 1054 q 283 1024 269 1044 l 288 1014 q 296 1008 290 1008 q 304 1008 300 1008 q 314 1006 308 1007 l 349 1001 l 353 1001 q 367 999 360 1000 q 381 994 374 997 l 394 990 q 408 988 403 988 q 418 985 413 988 q 444 976 431 981 q 469 967 457 972 q 480 963 475 965 q 489 957 485 960 q 496 956 492 956 q 501 953 499 954 q 506 950 504 953 q 514 947 511 947 l 522 943 q 531 940 525 943 l 532 940 q 546 933 539 936 q 558 925 553 931 q 564 922 561 924 q 569 918 567 919 q 576 914 575 915 q 578 912 578 913 q 578 911 578 911 q 579 907 578 908 l 581 907 q 589 901 588 904 q 592 899 590 900 q 594 897 593 899 q 600 894 597 896 q 604 890 603 893 q 613 885 610 889 q 619 879 617 882 q 623 876 622 878 q 625 874 624 875 q 642 859 633 867 q 657 844 650 851 q 660 842 658 843 q 663 839 661 840 l 668 835 q 676 825 672 829 q 685 815 681 821 l 696 804 q 707 792 699 800 q 727 772 718 782 q 743 749 736 761 l 749 740 q 756 730 753 735 q 764 719 760 725 q 774 702 769 711 q 783 683 778 693 l 792 665 q 798 651 794 658 q 803 638 801 644 l 808 628 q 815 613 811 621 q 822 599 819 606 l 826 589 q 829 582 828 586 q 832 574 831 578 q 836 563 835 568 q 839 553 838 558 q 844 538 842 546 q 849 521 847 529 q 853 506 851 514 q 856 492 854 499 q 858 475 857 483 q 861 458 860 467 q 863 440 861 449 q 865 424 864 432 l 865 419 q 867 408 867 414 q 867 396 868 401 q 865 389 865 393 q 861 351 865 371 l 857 333 q 856 324 857 326 l 851 313 q 845 294 849 303 q 838 275 842 285 q 833 262 836 268 q 826 249 829 256 q 824 243 825 247 q 822 236 824 239 q 813 218 818 225 q 806 208 808 214 l 801 199 q 798 191 800 194 q 793 185 796 188 q 788 174 790 179 q 781 165 785 169 l 778 163 q 767 147 772 154 q 756 132 761 139 l 753 128 q 745 121 749 125 q 738 113 742 117 q 735 110 738 110 q 721 97 728 104 q 706 82 714 89 l 699 78 q 688 69 693 74 q 676 58 682 64 q 643 33 663 44 q 638 31 640 32 q 633 28 636 29 q 619 17 628 22 l 606 4 q 597 -1 601 1 q 589 -6 593 -3 q 583 -8 586 -7 q 578 -8 581 -8 q 569 -10 574 -10 q 561 -11 565 -11 q 551 -14 556 -12 q 543 -18 547 -15 q 535 -22 539 -19 q 528 -25 532 -24 q 527 -25 528 -25 q 525 -26 526 -25 l 513 -31 q 504 -33 510 -31 q 500 -36 501 -36 q 492 -42 497 -40 q 483 -47 488 -44 q 471 -54 476 -49 q 444 -60 457 -64 l 443 -60 q 428 -58 436 -57 q 414 -61 421 -58 q 406 -64 411 -61 q 368 -72 388 -69 q 356 -79 358 -75 q 350 -83 353 -81 q 344 -89 347 -86 q 333 -93 340 -93 q 317 -89 325 -93 q 311 -85 314 -86 q 304 -85 308 -82 q 297 -87 303 -85 l 296 -89 q 290 -97 293 -93 q 285 -107 288 -101 q 279 -118 283 -112 q 268 -125 275 -122 l 263 -126 q 256 -125 257 -126 q 244 -119 247 -122 q 240 -113 243 -117 q 235 -108 236 -110 q 233 -108 233 -108 q 233 -107 233 -107 q 224 -107 229 -103 q 213 -126 215 -114 q 210 -143 211 -135 q 210 -160 210 -151 l 210 -172 q 209 -178 210 -175 q 210 -185 208 -182 l 210 -190 q 208 -202 208 -196 q 208 -215 208 -208 l 208 -222 q 210 -237 210 -229 q 211 -251 210 -244 l 211 -261 q 210 -272 210 -267 q 210 -281 210 -276 q 210 -307 211 -294 q 208 -315 208 -310 q 208 -328 211 -321 l 208 -358 q 208 -375 208 -367 q 210 -392 208 -383 l 210 -400 q 208 -409 208 -404 q 208 -418 208 -414 l 208 -426 q 206 -442 207 -433 q 206 -458 206 -450 l 206 -472 q 203 -491 204 -482 q 200 -508 203 -500 q 198 -517 200 -514 q 193 -524 196 -521 l 189 -528 q 183 -529 185 -528 m 315 88 l 318 88 q 335 90 326 89 q 351 93 343 92 l 354 93 q 377 99 365 96 q 399 106 389 101 q 403 107 401 106 q 411 110 407 108 q 419 113 415 111 q 425 114 421 114 q 433 117 431 117 l 454 125 q 517 150 486 136 q 560 174 539 161 q 576 182 568 178 q 592 192 585 186 q 617 209 604 200 q 640 228 629 218 q 651 238 646 233 q 663 249 657 243 q 672 260 668 257 q 685 277 679 268 q 694 296 690 286 q 701 308 699 301 q 707 319 704 314 q 713 334 710 326 q 718 349 715 342 l 718 350 q 722 364 719 357 q 728 378 725 371 q 728 381 728 379 q 729 383 729 382 l 731 393 q 735 419 733 406 q 736 446 736 432 l 736 450 q 736 466 736 458 q 733 481 736 474 q 733 487 733 483 q 732 493 732 490 q 728 508 731 500 q 724 522 726 515 q 721 531 722 526 q 718 539 719 535 q 715 544 718 542 l 711 556 q 708 561 708 561 q 703 573 706 567 q 699 585 701 579 q 696 591 697 588 q 693 597 694 594 q 684 613 688 604 q 676 628 681 621 q 674 633 675 631 q 671 638 672 636 q 665 649 667 643 q 661 659 664 654 q 654 669 658 664 q 645 684 650 676 q 635 699 640 692 q 627 709 631 704 q 617 717 624 714 q 614 720 615 719 q 611 722 613 721 q 593 739 603 733 l 590 742 q 581 753 583 749 q 576 758 579 756 q 571 761 574 760 q 553 775 561 768 q 542 783 547 779 q 532 789 538 786 q 531 790 532 790 q 513 803 522 799 l 506 807 q 496 814 500 810 q 486 822 492 818 q 475 829 481 825 q 469 831 474 831 q 464 833 467 832 q 458 835 461 833 l 449 840 q 438 847 443 844 q 426 853 432 850 q 422 854 424 853 l 403 861 q 399 863 401 863 q 393 865 396 864 l 383 869 q 361 878 372 876 q 339 885 351 879 q 335 886 338 886 q 329 888 332 886 q 315 890 324 888 l 306 892 q 292 890 297 894 q 288 889 289 890 q 285 886 285 889 q 283 879 285 882 l 283 857 l 288 849 q 286 846 288 847 q 285 842 285 844 l 285 810 q 285 796 286 807 q 285 782 283 785 q 287 772 286 776 q 286 764 288 768 q 288 749 286 754 l 288 744 q 290 728 289 736 q 290 711 292 719 q 292 708 290 710 q 293 697 293 703 q 293 685 293 692 l 293 679 q 294 671 293 678 q 294 661 294 664 l 294 658 q 294 629 294 644 q 293 599 294 614 q 294 594 293 596 l 294 582 q 293 575 293 579 q 294 574 293 574 q 294 572 294 574 l 294 556 q 300 550 294 550 l 307 550 q 328 550 318 550 q 350 551 339 550 l 353 551 q 361 551 357 551 q 369 550 365 550 l 431 550 q 439 550 435 550 q 447 549 443 550 q 456 550 453 549 l 458 550 q 465 549 461 549 l 474 549 q 481 547 478 547 q 486 544 485 547 l 499 538 q 506 529 503 536 l 506 519 q 511 517 506 514 q 519 515 517 518 q 525 503 522 513 q 526 494 525 499 q 526 486 526 490 q 522 467 526 478 q 518 458 521 463 q 513 450 515 454 q 503 444 507 444 q 494 442 500 444 q 489 440 493 440 q 483 439 488 443 q 479 435 482 438 q 475 429 476 432 q 472 425 474 428 q 468 419 471 422 q 460 401 461 411 q 457 389 458 396 q 454 375 456 382 q 453 366 454 371 q 453 357 453 361 q 451 346 453 351 q 447 335 450 340 l 442 329 q 421 329 432 325 q 419 330 419 329 q 418 331 419 331 q 414 335 417 333 q 410 340 411 338 q 406 353 408 347 q 404 365 404 360 l 404 374 q 403 378 404 376 q 403 383 403 381 q 397 407 400 397 q 388 419 393 417 q 376 422 383 425 q 365 419 374 422 q 350 418 361 418 q 346 417 347 418 q 338 416 342 415 q 331 418 335 417 q 324 419 326 418 l 318 419 q 307 413 310 417 q 303 402 306 411 q 300 393 300 393 q 303 389 303 392 q 302 387 303 388 q 301 385 301 386 q 301 383 301 383 q 300 382 300 383 q 301 378 300 379 q 303 368 306 374 q 302 366 301 367 q 303 365 303 365 q 303 356 306 361 q 300 347 300 350 l 300 332 q 303 329 300 329 l 304 328 q 306 318 307 322 q 305 308 304 313 q 307 297 306 303 q 308 289 307 293 q 307 281 308 285 l 307 263 q 306 261 307 261 q 306 260 306 261 l 303 260 q 303 246 300 253 q 301 235 303 238 q 303 224 301 228 q 303 215 304 219 q 303 204 303 210 q 301 199 303 201 q 301 194 301 197 q 301 189 300 192 q 301 181 304 185 q 303 175 300 178 q 303 168 304 172 q 301 158 301 164 q 301 147 301 153 q 302 145 301 146 q 303 143 303 144 l 301 138 q 301 137 301 138 q 303 135 301 136 l 303 118 q 303 116 303 117 q 304 115 304 115 q 307 111 307 113 q 308 94 306 106 l 308 89 q 310 88 307 89 q 315 88 314 88 z "},"E":{"ha":908,"x_min":54,"x_max":854,"o":"m 315 -190 q 283 -178 296 -199 q 274 -151 276 -168 q 269 -126 272 -139 q 264 -100 267 -114 q 260 -89 263 -94 q 256 -78 258 -83 q 247 -61 251 -69 q 238 -46 243 -53 q 231 -31 232 -35 l 224 -15 q 215 25 215 4 q 215 44 214 35 q 217 64 215 54 q 215 110 221 89 l 203 172 q 200 190 201 181 q 197 208 199 199 l 193 228 q 190 253 192 240 q 188 276 189 265 q 186 285 186 281 q 186 293 186 289 q 176 319 186 308 q 166 334 171 326 q 158 349 161 342 q 148 365 153 357 q 139 381 143 372 q 125 390 135 389 q 110 397 117 392 q 92 415 100 406 q 86 424 89 421 q 83 435 82 429 q 83 443 86 439 q 81 456 79 450 q 83 467 82 461 q 86 476 83 472 q 92 485 89 481 q 105 499 97 493 q 121 511 113 506 q 129 517 126 514 q 133 525 136 519 l 133 529 q 128 558 131 544 q 121 586 125 572 q 117 600 119 593 q 113 614 115 607 q 111 619 111 615 q 110 633 111 626 q 107 646 108 640 q 94 713 103 679 q 88 732 93 722 q 81 754 82 744 q 72 784 76 769 q 65 813 68 799 q 59 840 61 826 q 56 868 57 854 q 79 922 54 901 l 83 926 q 106 940 94 936 q 132 943 118 943 q 155 945 144 942 q 175 954 165 949 q 183 956 178 956 l 188 956 q 194 954 192 956 q 204 957 199 951 q 208 956 206 958 q 215 951 211 951 q 222 950 218 950 q 229 947 225 950 q 235 943 232 946 q 240 935 239 940 l 244 931 q 251 924 249 929 q 261 918 253 918 q 274 921 265 918 q 303 926 289 924 q 332 931 318 929 q 342 932 336 932 q 397 938 369 933 q 451 947 425 942 l 458 950 q 511 967 486 954 q 532 976 521 972 q 553 985 543 981 l 600 1001 q 613 1007 610 1004 q 628 1017 621 1014 q 668 1031 646 1028 q 693 1026 681 1031 q 729 1000 713 1018 q 732 985 733 993 q 732 967 728 976 q 732 953 733 958 q 731 942 731 947 q 729 931 731 936 q 725 919 729 924 q 706 899 715 906 q 703 896 704 897 q 700 892 703 894 q 698 889 699 890 q 694 885 697 888 q 683 872 688 879 q 672 858 678 865 q 659 840 667 849 q 642 824 651 831 l 631 811 q 621 790 622 800 q 616 766 618 778 q 614 742 614 754 l 610 713 q 607 701 610 707 q 585 688 601 688 q 581 687 583 686 q 578 688 579 688 q 561 706 565 694 q 553 746 556 724 q 552 760 553 753 q 550 775 551 768 l 546 785 q 535 789 543 794 q 531 788 533 789 q 526 785 529 786 q 516 778 521 782 q 507 771 511 775 q 476 757 494 764 q 431 732 451 749 q 424 728 428 731 q 417 722 421 725 q 408 717 413 719 q 399 711 404 714 l 389 706 q 379 694 385 703 q 376 680 378 688 q 374 664 374 672 q 373 639 374 651 q 374 614 372 626 q 374 599 374 607 q 371 585 374 592 q 378 578 368 575 q 389 579 385 578 q 420 584 404 582 q 450 589 436 586 l 481 593 q 492 596 488 594 q 503 600 497 597 q 519 607 511 606 q 536 610 528 608 q 572 603 554 614 l 590 590 q 596 579 596 585 q 603 569 599 569 q 608 569 607 571 q 616 558 613 564 q 621 544 619 551 q 617 538 621 539 q 608 533 611 538 q 603 525 606 529 q 602 522 601 524 q 603 519 603 521 q 603 510 606 515 q 600 503 601 507 q 597 497 599 500 q 581 476 592 485 q 571 468 575 471 q 550 443 560 461 q 547 437 549 440 q 543 429 546 433 q 531 421 539 424 q 508 422 517 418 l 500 426 q 486 425 492 429 q 479 421 485 424 q 451 419 467 415 q 437 426 444 422 q 422 433 429 431 q 417 438 419 435 q 404 439 411 442 q 388 435 396 438 q 371 431 379 433 q 343 422 358 429 q 335 418 339 422 q 329 406 328 413 l 329 403 q 335 378 333 390 q 339 353 338 365 l 347 294 q 348 292 347 293 q 349 292 349 292 q 350 261 349 276 q 351 231 351 246 q 352 196 351 213 q 353 163 353 179 l 353 146 q 361 140 356 140 l 379 144 q 392 147 386 146 q 404 150 399 149 l 429 154 q 442 156 438 154 q 478 163 460 158 q 514 169 496 167 q 531 172 522 171 q 550 175 540 174 q 580 178 565 176 q 608 182 594 181 q 622 184 615 183 q 633 185 628 185 q 646 190 642 188 q 652 194 649 193 q 657 197 656 196 q 685 206 669 208 q 692 207 689 206 q 699 207 694 207 q 706 206 703 207 q 718 201 713 203 q 729 194 724 199 q 732 193 731 193 q 754 192 743 186 q 764 197 758 194 q 775 200 769 199 q 803 200 789 204 q 812 197 807 199 q 819 193 817 196 q 835 179 828 189 q 851 142 847 161 q 851 133 854 138 q 849 126 850 129 q 846 118 847 122 q 843 112 844 115 q 840 106 842 108 q 835 97 840 100 q 826 89 829 96 q 819 86 824 83 q 813 85 814 86 q 797 76 806 79 q 781 71 789 74 q 750 63 765 68 q 719 54 735 58 q 707 51 711 51 q 691 48 699 50 q 676 43 683 46 q 673 42 675 42 q 668 40 671 42 q 648 36 658 39 q 628 29 638 33 q 615 26 624 26 q 592 22 604 26 q 564 17 578 19 q 535 13 550 15 l 506 8 q 474 -1 488 4 q 467 -4 471 -3 q 460 -7 463 -6 q 406 -28 431 -12 l 394 -32 q 373 -39 383 -33 q 351 -50 363 -44 q 340 -58 343 -56 q 335 -67 338 -61 q 328 -96 328 -83 q 329 -115 329 -106 q 331 -135 329 -124 q 329 -165 333 -151 q 326 -179 329 -171 q 315 -190 321 -187 m 315 565 q 321 574 321 568 q 319 580 319 576 q 318 586 319 583 q 311 618 311 604 q 310 622 311 621 q 310 625 310 624 q 307 628 307 628 l 307 625 q 305 610 306 618 q 304 593 304 601 l 304 571 q 310 567 307 567 q 315 565 311 565 z "},"É":{"ha":908,"x_min":54,"x_max":854,"o":"m 315 -190 q 283 -178 296 -199 q 274 -151 276 -168 q 269 -126 272 -139 q 264 -100 267 -114 q 260 -89 263 -94 q 256 -78 258 -83 q 247 -61 251 -69 q 238 -46 243 -53 q 231 -31 232 -35 l 224 -15 q 215 25 215 4 q 215 44 214 35 q 217 64 215 54 q 215 110 221 89 l 203 172 q 200 190 201 181 q 197 208 199 199 l 193 228 q 190 253 192 240 q 188 276 189 265 q 186 285 186 281 q 186 293 186 289 q 176 319 186 308 q 166 334 171 326 q 158 349 161 342 q 148 365 153 357 q 139 381 143 372 q 125 390 135 389 q 110 397 117 392 q 92 415 100 406 q 86 424 89 421 q 83 435 82 429 q 83 443 86 439 q 81 456 79 450 q 83 467 82 461 q 86 476 83 472 q 92 485 89 481 q 105 499 97 493 q 121 511 113 506 q 129 517 126 514 q 133 525 136 519 l 133 529 q 128 558 131 544 q 121 586 125 572 q 117 600 119 593 q 113 614 115 607 q 111 619 111 615 q 110 633 111 626 q 107 646 108 640 q 94 713 103 679 q 88 732 93 722 q 81 754 82 744 q 72 784 76 769 q 65 813 68 799 q 59 840 61 826 q 56 868 57 854 q 79 922 54 901 l 83 926 q 106 940 94 936 q 132 943 118 943 q 155 945 144 942 q 175 954 165 949 q 183 956 178 956 l 188 956 q 194 954 192 956 q 204 957 199 951 q 208 956 206 958 q 215 951 211 951 q 222 950 218 950 q 229 947 225 950 q 235 943 232 946 q 240 935 239 940 l 244 931 q 251 924 249 929 q 261 918 253 918 q 274 921 265 918 q 303 926 289 924 q 332 931 318 929 q 342 932 336 932 q 397 938 369 933 q 451 947 425 942 l 458 950 q 511 967 486 954 q 532 976 521 972 q 553 985 543 981 l 600 1001 q 613 1007 610 1004 q 628 1017 621 1014 q 668 1031 646 1028 q 693 1026 681 1031 q 729 1000 713 1018 q 732 985 733 993 q 732 967 728 976 q 732 953 733 958 q 731 942 731 947 q 729 931 731 936 q 725 919 729 924 q 706 899 715 906 q 703 896 704 897 q 700 892 703 894 q 698 889 699 890 q 694 885 697 888 q 683 872 688 879 q 672 858 678 865 q 659 840 667 849 q 642 824 651 831 l 631 811 q 621 790 622 800 q 616 766 618 778 q 614 742 614 754 l 610 713 q 607 701 610 707 q 585 688 601 688 q 581 687 583 686 q 578 688 579 688 q 561 706 565 694 q 553 746 556 724 q 552 760 553 753 q 550 775 551 768 l 546 785 q 535 789 543 794 q 531 788 533 789 q 526 785 529 786 q 516 778 521 782 q 507 771 511 775 q 476 757 494 764 q 431 732 451 749 q 424 728 428 731 q 417 722 421 725 q 408 717 413 719 q 399 711 404 714 l 389 706 q 379 694 385 703 q 376 680 378 688 q 374 664 374 672 q 373 639 374 651 q 374 614 372 626 q 374 599 374 607 q 371 585 374 592 q 378 578 368 575 q 389 579 385 578 q 420 584 404 582 q 450 589 436 586 l 481 593 q 492 596 488 594 q 503 600 497 597 q 519 607 511 606 q 536 610 528 608 q 572 603 554 614 l 590 590 q 596 579 596 585 q 603 569 599 569 q 608 569 607 571 q 616 558 613 564 q 621 544 619 551 q 617 538 621 539 q 608 533 611 538 q 603 525 606 529 q 602 522 601 524 q 603 519 603 521 q 603 510 606 515 q 600 503 601 507 q 597 497 599 500 q 581 476 592 485 q 571 468 575 471 q 550 443 560 461 q 547 437 549 440 q 543 429 546 433 q 531 421 539 424 q 508 422 517 418 l 500 426 q 486 425 492 429 q 479 421 485 424 q 451 419 467 415 q 437 426 444 422 q 422 433 429 431 q 417 438 419 435 q 404 439 411 442 q 388 435 396 438 q 371 431 379 433 q 343 422 358 429 q 335 418 339 422 q 329 406 328 413 l 329 403 q 335 378 333 390 q 339 353 338 365 l 347 294 q 348 292 347 293 q 349 292 349 292 q 350 261 349 276 q 351 231 351 246 q 352 196 351 213 q 353 163 353 179 l 353 146 q 361 140 356 140 l 379 144 q 392 147 386 146 q 404 150 399 149 l 429 154 q 442 156 438 154 q 478 163 460 158 q 514 169 496 167 q 531 172 522 171 q 550 175 540 174 q 580 178 565 176 q 608 182 594 181 q 622 184 615 183 q 633 185 628 185 q 646 190 642 188 q 652 194 649 193 q 657 197 656 196 q 685 206 669 208 q 692 207 689 206 q 699 207 694 207 q 706 206 703 207 q 718 201 713 203 q 729 194 724 199 q 732 193 731 193 q 754 192 743 186 q 764 197 758 194 q 775 200 769 199 q 803 200 789 204 q 812 197 807 199 q 819 193 817 196 q 835 179 828 189 q 851 142 847 161 q 851 133 854 138 q 849 126 850 129 q 846 118 847 122 q 843 112 844 115 q 840 106 842 108 q 835 97 840 100 q 826 89 829 96 q 819 86 824 83 q 813 85 814 86 q 797 76 806 79 q 781 71 789 74 q 750 63 765 68 q 719 54 735 58 q 707 51 711 51 q 691 48 699 50 q 676 43 683 46 q 673 42 675 42 q 668 40 671 42 q 648 36 658 39 q 628 29 638 33 q 615 26 624 26 q 592 22 604 26 q 564 17 578 19 q 535 13 550 15 l 506 8 q 474 -1 488 4 q 467 -4 471 -3 q 460 -7 463 -6 q 406 -28 431 -12 l 394 -32 q 373 -39 383 -33 q 351 -50 363 -44 q 340 -58 343 -56 q 335 -67 338 -61 q 328 -96 328 -83 q 329 -115 329 -106 q 331 -135 329 -124 q 329 -165 333 -151 q 326 -179 329 -171 q 315 -190 321 -187 m 315 565 q 321 574 321 568 q 319 580 319 576 q 318 586 319 583 q 311 618 311 604 q 310 622 311 621 q 310 625 310 624 q 307 628 307 628 l 307 625 q 305 610 306 618 q 304 593 304 601 l 304 571 q 310 567 307 567 q 315 565 311 565 m 328 1042 q 314 1054 318 1043 q 307 1078 307 1065 q 304 1094 306 1086 q 300 1111 303 1103 q 294 1125 300 1117 l 288 1133 q 268 1189 268 1154 q 276 1226 269 1208 q 297 1257 283 1243 q 311 1268 304 1264 q 325 1276 318 1272 q 337 1282 332 1279 q 347 1286 342 1285 q 353 1290 350 1289 q 357 1293 356 1292 q 369 1302 364 1297 q 381 1313 375 1307 q 419 1341 400 1326 q 456 1369 438 1356 q 489 1403 475 1385 q 498 1413 493 1408 q 508 1424 503 1418 q 526 1435 515 1431 l 556 1443 q 568 1444 564 1446 q 574 1443 569 1443 q 617 1425 596 1443 q 631 1414 628 1417 q 636 1397 633 1411 q 639 1379 639 1386 q 638 1369 640 1375 q 636 1364 638 1367 q 633 1358 635 1361 l 621 1328 q 617 1320 619 1324 q 613 1314 615 1317 q 599 1296 607 1304 q 583 1279 592 1288 q 570 1267 578 1274 q 556 1253 563 1260 q 515 1221 536 1235 q 490 1203 503 1213 q 464 1185 476 1194 q 458 1181 461 1183 q 453 1178 456 1179 q 440 1168 446 1172 q 426 1158 433 1164 q 406 1140 417 1149 q 383 1122 394 1132 q 363 1089 367 1110 l 358 1064 q 349 1046 357 1051 q 328 1042 339 1040 z "},"Ê":{"ha":908,"x_min":44,"x_max":894,"o":"m 315 -190 q 283 -178 296 -199 q 274 -151 276 -168 q 269 -126 272 -139 q 264 -100 267 -114 q 260 -89 263 -94 q 256 -78 258 -83 q 247 -61 251 -69 q 238 -46 243 -53 q 231 -31 232 -35 l 224 -15 q 215 25 215 4 q 215 44 214 35 q 217 64 215 54 q 215 110 221 89 l 203 172 q 200 190 201 181 q 197 208 199 199 l 193 228 q 190 253 192 240 q 188 276 189 265 q 186 285 186 281 q 186 293 186 289 q 176 319 186 308 q 166 334 171 326 q 158 349 161 342 q 148 365 153 357 q 139 381 143 372 q 125 390 135 389 q 110 397 117 392 q 92 415 100 406 q 86 424 89 421 q 83 435 82 429 q 83 443 86 439 q 81 456 79 450 q 83 467 82 461 q 86 476 83 472 q 92 485 89 481 q 105 499 97 493 q 121 511 113 506 q 129 517 126 514 q 133 525 136 519 l 133 529 q 128 558 131 544 q 121 586 125 572 q 117 600 119 593 q 113 614 115 607 q 111 619 111 615 q 110 633 111 626 q 107 646 108 640 q 94 713 103 679 q 88 732 93 722 q 81 754 82 744 q 72 784 76 769 q 65 813 68 799 q 59 840 61 826 q 56 868 57 854 q 79 922 54 901 l 83 926 q 106 940 94 936 q 132 943 118 943 q 155 945 144 942 q 175 954 165 949 q 183 956 178 956 l 188 956 q 194 954 192 956 q 204 957 199 951 q 208 956 206 958 q 215 951 211 951 q 222 950 218 950 q 229 947 225 950 q 235 943 232 946 q 240 935 239 940 l 244 931 q 251 924 249 929 q 261 918 253 918 q 274 921 265 918 q 303 926 289 924 q 332 931 318 929 q 342 932 336 932 q 397 938 369 933 q 451 947 425 942 l 458 950 q 511 967 486 954 q 532 976 521 972 q 553 985 543 981 l 600 1001 q 613 1007 610 1004 q 628 1017 621 1014 q 668 1031 646 1028 q 693 1026 681 1031 q 729 1000 713 1018 q 732 985 733 993 q 732 967 728 976 q 732 953 733 958 q 731 942 731 947 q 729 931 731 936 q 725 919 729 924 q 706 899 715 906 q 703 896 704 897 q 700 892 703 894 q 698 889 699 890 q 694 885 697 888 q 683 872 688 879 q 672 858 678 865 q 659 840 667 849 q 642 824 651 831 l 631 811 q 621 790 622 800 q 616 766 618 778 q 614 742 614 754 l 610 713 q 607 701 610 707 q 585 688 601 688 q 581 687 583 686 q 578 688 579 688 q 561 706 565 694 q 553 746 556 724 q 552 760 553 753 q 550 775 551 768 l 546 785 q 535 789 543 794 q 531 788 533 789 q 526 785 529 786 q 516 778 521 782 q 507 771 511 775 q 476 757 494 764 q 431 732 451 749 q 424 728 428 731 q 417 722 421 725 q 408 717 413 719 q 399 711 404 714 l 389 706 q 379 694 385 703 q 376 680 378 688 q 374 664 374 672 q 373 639 374 651 q 374 614 372 626 q 374 599 374 607 q 371 585 374 592 q 378 578 368 575 q 389 579 385 578 q 420 584 404 582 q 450 589 436 586 l 481 593 q 492 596 488 594 q 503 600 497 597 q 519 607 511 606 q 536 610 528 608 q 572 603 554 614 l 590 590 q 596 579 596 585 q 603 569 599 569 q 608 569 607 571 q 616 558 613 564 q 621 544 619 551 q 617 538 621 539 q 608 533 611 538 q 603 525 606 529 q 602 522 601 524 q 603 519 603 521 q 603 510 606 515 q 600 503 601 507 q 597 497 599 500 q 581 476 592 485 q 571 468 575 471 q 550 443 560 461 q 547 437 549 440 q 543 429 546 433 q 531 421 539 424 q 508 422 517 418 l 500 426 q 486 425 492 429 q 479 421 485 424 q 451 419 467 415 q 437 426 444 422 q 422 433 429 431 q 417 438 419 435 q 404 439 411 442 q 388 435 396 438 q 371 431 379 433 q 343 422 358 429 q 335 418 339 422 q 329 406 328 413 l 329 403 q 335 378 333 390 q 339 353 338 365 l 347 294 q 348 292 347 293 q 349 292 349 292 q 350 261 349 276 q 351 231 351 246 q 352 196 351 213 q 353 163 353 179 l 353 146 q 361 140 356 140 l 379 144 q 392 147 386 146 q 404 150 399 149 l 429 154 q 442 156 438 154 q 478 163 460 158 q 514 169 496 167 q 531 172 522 171 q 550 175 540 174 q 580 178 565 176 q 608 182 594 181 q 622 184 615 183 q 633 185 628 185 q 646 190 642 188 q 652 194 649 193 q 657 197 656 196 q 685 206 669 208 q 692 207 689 206 q 699 207 694 207 q 706 206 703 207 q 718 201 713 203 q 729 194 724 199 q 732 193 731 193 q 754 192 743 186 q 764 197 758 194 q 775 200 769 199 q 803 200 789 204 q 812 197 807 199 q 819 193 817 196 q 835 179 828 189 q 851 142 847 161 q 851 133 854 138 q 849 126 850 129 q 846 118 847 122 q 843 112 844 115 q 840 106 842 108 q 835 97 840 100 q 826 89 829 96 q 819 86 824 83 q 813 85 814 86 q 797 76 806 79 q 781 71 789 74 q 750 63 765 68 q 719 54 735 58 q 707 51 711 51 q 691 48 699 50 q 676 43 683 46 q 673 42 675 42 q 668 40 671 42 q 648 36 658 39 q 628 29 638 33 q 615 26 624 26 q 592 22 604 26 q 564 17 578 19 q 535 13 550 15 l 506 8 q 474 -1 488 4 q 467 -4 471 -3 q 460 -7 463 -6 q 406 -28 431 -12 l 394 -32 q 373 -39 383 -33 q 351 -50 363 -44 q 340 -58 343 -56 q 335 -67 338 -61 q 328 -96 328 -83 q 329 -115 329 -106 q 331 -135 329 -124 q 329 -165 333 -151 q 326 -179 329 -171 q 315 -190 321 -187 m 315 565 q 321 574 321 568 q 319 580 319 576 q 318 586 319 583 q 311 618 311 604 q 310 622 311 621 q 310 625 310 624 q 307 628 307 628 l 307 625 q 305 610 306 618 q 304 593 304 601 l 304 571 q 310 567 307 567 q 315 565 311 565 m 800 1032 q 790 1035 792 1035 q 774 1046 781 1036 q 764 1051 768 1051 l 754 1056 q 747 1060 751 1058 q 740 1064 743 1061 q 728 1069 736 1067 q 717 1076 722 1072 q 706 1082 711 1081 q 703 1083 704 1082 q 701 1083 703 1083 q 687 1093 694 1090 q 672 1100 679 1096 q 663 1107 667 1103 q 657 1111 660 1110 q 651 1113 654 1113 q 646 1110 646 1115 q 644 1104 644 1107 q 643 1099 644 1101 q 642 1092 642 1096 q 629 1075 640 1082 q 606 1078 615 1071 q 590 1099 592 1088 l 586 1110 q 568 1124 581 1118 q 560 1128 564 1126 q 553 1131 556 1129 q 534 1141 543 1136 q 518 1151 525 1146 q 514 1154 517 1153 q 508 1156 511 1156 q 483 1174 499 1160 q 471 1185 479 1176 q 461 1188 467 1189 l 457 1188 q 449 1182 450 1188 q 448 1178 449 1181 q 447 1175 447 1176 q 448 1165 449 1169 q 447 1156 447 1161 q 443 1135 447 1147 q 432 1125 442 1128 q 426 1124 429 1125 q 419 1122 422 1122 q 411 1126 415 1122 q 394 1151 399 1135 l 394 1156 q 389 1174 394 1167 q 385 1186 388 1178 q 376 1203 383 1194 q 372 1204 376 1204 q 364 1197 367 1199 q 349 1186 356 1192 q 333 1174 342 1181 q 316 1159 325 1167 q 299 1144 307 1151 q 290 1138 293 1139 q 279 1130 285 1135 q 269 1121 274 1125 q 265 1118 267 1119 q 260 1114 263 1117 l 222 1085 q 219 1083 221 1083 q 214 1081 217 1082 l 185 1063 q 172 1055 179 1058 q 157 1049 165 1051 q 144 1041 151 1044 q 129 1033 136 1038 q 117 1028 124 1029 q 104 1026 111 1028 q 93 1026 99 1026 q 82 1028 88 1026 q 75 1031 78 1028 q 68 1037 71 1033 q 63 1043 65 1040 q 54 1056 57 1050 q 47 1067 51 1061 q 46 1076 46 1071 q 44 1085 46 1081 l 47 1096 q 50 1110 46 1103 q 54 1117 53 1113 q 58 1126 54 1122 q 65 1133 61 1129 q 76 1147 71 1142 q 85 1154 81 1151 q 93 1160 89 1157 q 116 1172 104 1167 q 138 1183 128 1178 q 143 1186 143 1186 q 160 1198 153 1193 q 178 1208 168 1203 l 183 1213 q 199 1224 190 1218 q 214 1236 207 1231 q 238 1254 228 1247 q 251 1264 244 1258 q 264 1275 257 1269 q 268 1279 264 1275 q 278 1285 274 1282 q 286 1292 282 1289 q 303 1306 292 1299 q 313 1317 307 1308 q 332 1340 325 1325 q 336 1354 336 1347 q 341 1365 339 1360 q 344 1375 343 1369 q 356 1392 349 1385 q 360 1394 357 1392 q 403 1417 378 1413 q 414 1417 408 1417 q 425 1414 419 1417 q 458 1399 442 1410 q 467 1394 463 1396 q 475 1389 471 1392 q 481 1385 478 1388 q 489 1379 485 1382 q 494 1376 492 1378 q 499 1372 497 1375 q 521 1350 507 1358 q 524 1347 524 1347 q 546 1332 535 1339 q 567 1317 557 1325 q 581 1307 574 1315 q 588 1303 585 1306 q 594 1299 592 1301 q 617 1283 606 1290 q 640 1268 629 1275 l 646 1264 q 667 1251 656 1258 q 688 1236 678 1243 q 693 1233 690 1235 q 699 1229 696 1231 q 708 1223 703 1226 q 718 1217 713 1219 q 733 1208 725 1213 q 750 1200 742 1204 q 765 1193 757 1196 q 779 1186 772 1190 q 796 1181 788 1183 q 813 1174 804 1178 q 829 1171 817 1171 q 832 1170 831 1171 q 835 1169 833 1169 q 872 1154 854 1169 q 883 1135 879 1149 q 886 1121 886 1122 q 889 1113 888 1117 q 892 1104 890 1108 q 892 1096 894 1100 q 889 1090 890 1093 q 888 1085 888 1088 q 887 1083 888 1083 q 886 1082 886 1082 q 881 1075 882 1078 l 879 1065 q 872 1057 879 1060 q 864 1051 867 1054 q 860 1047 863 1049 q 854 1043 857 1046 l 840 1035 q 800 1032 821 1026 z "},"Ë":{"ha":908,"x_min":54,"x_max":854,"o":"m 315 -190 q 283 -178 296 -199 q 274 -151 276 -168 q 269 -126 272 -139 q 264 -100 267 -114 q 260 -89 263 -94 q 256 -78 258 -83 q 247 -61 251 -69 q 238 -46 243 -53 q 231 -31 232 -35 l 224 -15 q 215 25 215 4 q 215 44 214 35 q 217 64 215 54 q 215 110 221 89 l 203 172 q 200 190 201 181 q 197 208 199 199 l 193 228 q 190 253 192 240 q 188 276 189 265 q 186 285 186 281 q 186 293 186 289 q 176 319 186 308 q 166 334 171 326 q 158 349 161 342 q 148 365 153 357 q 139 381 143 372 q 125 390 135 389 q 110 397 117 392 q 92 415 100 406 q 86 424 89 421 q 83 435 82 429 q 83 443 86 439 q 81 456 79 450 q 83 467 82 461 q 86 476 83 472 q 92 485 89 481 q 105 499 97 493 q 121 511 113 506 q 129 517 126 514 q 133 525 136 519 l 133 529 q 128 558 131 544 q 121 586 125 572 q 117 600 119 593 q 113 614 115 607 q 111 619 111 615 q 110 633 111 626 q 107 646 108 640 q 94 713 103 679 q 88 732 93 722 q 81 754 82 744 q 72 784 76 769 q 65 813 68 799 q 59 840 61 826 q 56 868 57 854 q 79 922 54 901 l 83 926 q 106 940 94 936 q 132 943 118 943 q 155 945 144 942 q 175 954 165 949 q 183 956 178 956 l 188 956 q 194 954 192 956 q 204 957 199 951 q 208 956 206 958 q 215 951 211 951 q 222 950 218 950 q 229 947 225 950 q 235 943 232 946 q 240 935 239 940 l 244 931 q 251 924 249 929 q 261 918 253 918 q 274 921 265 918 q 303 926 289 924 q 332 931 318 929 q 342 932 336 932 q 397 938 369 933 q 451 947 425 942 l 458 950 q 511 967 486 954 q 532 976 521 972 q 553 985 543 981 l 600 1001 q 613 1007 610 1004 q 628 1017 621 1014 q 668 1031 646 1028 q 693 1026 681 1031 q 729 1000 713 1018 q 732 985 733 993 q 732 967 728 976 q 732 953 733 958 q 731 942 731 947 q 729 931 731 936 q 725 919 729 924 q 706 899 715 906 q 703 896 704 897 q 700 892 703 894 q 698 889 699 890 q 694 885 697 888 q 683 872 688 879 q 672 858 678 865 q 659 840 667 849 q 642 824 651 831 l 631 811 q 621 790 622 800 q 616 766 618 778 q 614 742 614 754 l 610 713 q 607 701 610 707 q 585 688 601 688 q 581 687 583 686 q 578 688 579 688 q 561 706 565 694 q 553 746 556 724 q 552 760 553 753 q 550 775 551 768 l 546 785 q 535 789 543 794 q 531 788 533 789 q 526 785 529 786 q 516 778 521 782 q 507 771 511 775 q 476 757 494 764 q 431 732 451 749 q 424 728 428 731 q 417 722 421 725 q 408 717 413 719 q 399 711 404 714 l 389 706 q 379 694 385 703 q 376 680 378 688 q 374 664 374 672 q 373 639 374 651 q 374 614 372 626 q 374 599 374 607 q 371 585 374 592 q 378 578 368 575 q 389 579 385 578 q 420 584 404 582 q 450 589 436 586 l 481 593 q 492 596 488 594 q 503 600 497 597 q 519 607 511 606 q 536 610 528 608 q 572 603 554 614 l 590 590 q 596 579 596 585 q 603 569 599 569 q 608 569 607 571 q 616 558 613 564 q 621 544 619 551 q 617 538 621 539 q 608 533 611 538 q 603 525 606 529 q 602 522 601 524 q 603 519 603 521 q 603 510 606 515 q 600 503 601 507 q 597 497 599 500 q 581 476 592 485 q 571 468 575 471 q 550 443 560 461 q 547 437 549 440 q 543 429 546 433 q 531 421 539 424 q 508 422 517 418 l 500 426 q 486 425 492 429 q 479 421 485 424 q 451 419 467 415 q 437 426 444 422 q 422 433 429 431 q 417 438 419 435 q 404 439 411 442 q 388 435 396 438 q 371 431 379 433 q 343 422 358 429 q 335 418 339 422 q 329 406 328 413 l 329 403 q 335 378 333 390 q 339 353 338 365 l 347 294 q 348 292 347 293 q 349 292 349 292 q 350 261 349 276 q 351 231 351 246 q 352 196 351 213 q 353 163 353 179 l 353 146 q 361 140 356 140 l 379 144 q 392 147 386 146 q 404 150 399 149 l 429 154 q 442 156 438 154 q 478 163 460 158 q 514 169 496 167 q 531 172 522 171 q 550 175 540 174 q 580 178 565 176 q 608 182 594 181 q 622 184 615 183 q 633 185 628 185 q 646 190 642 188 q 652 194 649 193 q 657 197 656 196 q 685 206 669 208 q 692 207 689 206 q 699 207 694 207 q 706 206 703 207 q 718 201 713 203 q 729 194 724 199 q 732 193 731 193 q 754 192 743 186 q 764 197 758 194 q 775 200 769 199 q 803 200 789 204 q 812 197 807 199 q 819 193 817 196 q 835 179 828 189 q 851 142 847 161 q 851 133 854 138 q 849 126 850 129 q 846 118 847 122 q 843 112 844 115 q 840 106 842 108 q 835 97 840 100 q 826 89 829 96 q 819 86 824 83 q 813 85 814 86 q 797 76 806 79 q 781 71 789 74 q 750 63 765 68 q 719 54 735 58 q 707 51 711 51 q 691 48 699 50 q 676 43 683 46 q 673 42 675 42 q 668 40 671 42 q 648 36 658 39 q 628 29 638 33 q 615 26 624 26 q 592 22 604 26 q 564 17 578 19 q 535 13 550 15 l 506 8 q 474 -1 488 4 q 467 -4 471 -3 q 460 -7 463 -6 q 406 -28 431 -12 l 394 -32 q 373 -39 383 -33 q 351 -50 363 -44 q 340 -58 343 -56 q 335 -67 338 -61 q 328 -96 328 -83 q 329 -115 329 -106 q 331 -135 329 -124 q 329 -165 333 -151 q 326 -179 329 -171 q 315 -190 321 -187 m 315 565 q 321 574 321 568 q 319 580 319 576 q 318 586 319 583 q 311 618 311 604 q 310 622 311 621 q 310 625 310 624 q 307 628 307 628 l 307 625 q 305 610 306 618 q 304 593 304 601 l 304 571 q 310 567 307 567 q 315 565 311 565 m 631 1163 q 608 1167 619 1163 q 585 1176 596 1169 q 564 1189 575 1182 q 556 1196 560 1192 q 550 1204 553 1200 q 522 1257 533 1226 q 521 1265 521 1261 q 519 1275 521 1269 q 523 1290 522 1282 q 525 1306 524 1299 q 528 1313 525 1307 q 554 1343 539 1328 l 563 1349 q 571 1353 567 1351 q 581 1357 575 1356 q 610 1358 593 1361 q 626 1356 618 1357 q 644 1353 635 1356 q 671 1344 660 1350 q 706 1315 693 1336 q 713 1299 708 1306 q 717 1281 715 1289 q 717 1263 719 1272 q 714 1242 714 1249 q 708 1223 713 1232 q 701 1204 704 1214 q 686 1185 697 1192 q 660 1169 675 1174 q 631 1163 646 1164 m 306 1144 l 300 1144 q 267 1150 279 1144 l 257 1154 q 242 1164 250 1156 q 230 1186 235 1175 q 222 1210 225 1197 q 218 1254 218 1231 l 218 1269 q 222 1290 218 1281 q 232 1308 226 1300 q 238 1314 235 1311 q 243 1321 242 1317 q 257 1333 250 1329 q 288 1338 272 1338 q 295 1338 290 1338 q 304 1339 300 1338 q 313 1340 308 1339 q 322 1340 317 1340 q 349 1329 338 1340 q 356 1323 351 1326 q 364 1317 360 1319 q 389 1292 379 1310 q 401 1249 404 1272 q 396 1221 397 1225 q 394 1213 396 1217 q 390 1204 393 1208 q 382 1190 386 1197 q 371 1176 378 1183 q 367 1172 369 1174 q 361 1167 364 1169 q 346 1158 353 1163 q 331 1150 339 1154 q 319 1145 325 1147 q 306 1144 313 1143 z "},"È":{"ha":908,"x_min":54,"x_max":854,"o":"m 315 -190 q 283 -178 296 -199 q 274 -151 276 -168 q 269 -126 272 -139 q 264 -100 267 -114 q 260 -89 263 -94 q 256 -78 258 -83 q 247 -61 251 -69 q 238 -46 243 -53 q 231 -31 232 -35 l 224 -15 q 215 25 215 4 q 215 44 214 35 q 217 64 215 54 q 215 110 221 89 l 203 172 q 200 190 201 181 q 197 208 199 199 l 193 228 q 190 253 192 240 q 188 276 189 265 q 186 285 186 281 q 186 293 186 289 q 176 319 186 308 q 166 334 171 326 q 158 349 161 342 q 148 365 153 357 q 139 381 143 372 q 125 390 135 389 q 110 397 117 392 q 92 415 100 406 q 86 424 89 421 q 83 435 82 429 q 83 443 86 439 q 81 456 79 450 q 83 467 82 461 q 86 476 83 472 q 92 485 89 481 q 105 499 97 493 q 121 511 113 506 q 129 517 126 514 q 133 525 136 519 l 133 529 q 128 558 131 544 q 121 586 125 572 q 117 600 119 593 q 113 614 115 607 q 111 619 111 615 q 110 633 111 626 q 107 646 108 640 q 94 713 103 679 q 88 732 93 722 q 81 754 82 744 q 72 784 76 769 q 65 813 68 799 q 59 840 61 826 q 56 868 57 854 q 79 922 54 901 l 83 926 q 106 940 94 936 q 132 943 118 943 q 155 945 144 942 q 175 954 165 949 q 183 956 178 956 l 188 956 q 194 954 192 956 q 204 957 199 951 q 208 956 206 958 q 215 951 211 951 q 222 950 218 950 q 229 947 225 950 q 235 943 232 946 q 240 935 239 940 l 244 931 q 251 924 249 929 q 261 918 253 918 q 274 921 265 918 q 303 926 289 924 q 332 931 318 929 q 342 932 336 932 q 397 938 369 933 q 451 947 425 942 l 458 950 q 511 967 486 954 q 532 976 521 972 q 553 985 543 981 l 600 1001 q 613 1007 610 1004 q 628 1017 621 1014 q 668 1031 646 1028 q 693 1026 681 1031 q 729 1000 713 1018 q 732 985 733 993 q 732 967 728 976 q 732 953 733 958 q 731 942 731 947 q 729 931 731 936 q 725 919 729 924 q 706 899 715 906 q 703 896 704 897 q 700 892 703 894 q 698 889 699 890 q 694 885 697 888 q 683 872 688 879 q 672 858 678 865 q 659 840 667 849 q 642 824 651 831 l 631 811 q 621 790 622 800 q 616 766 618 778 q 614 742 614 754 l 610 713 q 607 701 610 707 q 585 688 601 688 q 581 687 583 686 q 578 688 579 688 q 561 706 565 694 q 553 746 556 724 q 552 760 553 753 q 550 775 551 768 l 546 785 q 535 789 543 794 q 531 788 533 789 q 526 785 529 786 q 516 778 521 782 q 507 771 511 775 q 476 757 494 764 q 431 732 451 749 q 424 728 428 731 q 417 722 421 725 q 408 717 413 719 q 399 711 404 714 l 389 706 q 379 694 385 703 q 376 680 378 688 q 374 664 374 672 q 373 639 374 651 q 374 614 372 626 q 374 599 374 607 q 371 585 374 592 q 378 578 368 575 q 389 579 385 578 q 420 584 404 582 q 450 589 436 586 l 481 593 q 492 596 488 594 q 503 600 497 597 q 519 607 511 606 q 536 610 528 608 q 572 603 554 614 l 590 590 q 596 579 596 585 q 603 569 599 569 q 608 569 607 571 q 616 558 613 564 q 621 544 619 551 q 617 538 621 539 q 608 533 611 538 q 603 525 606 529 q 602 522 601 524 q 603 519 603 521 q 603 510 606 515 q 600 503 601 507 q 597 497 599 500 q 581 476 592 485 q 571 468 575 471 q 550 443 560 461 q 547 437 549 440 q 543 429 546 433 q 531 421 539 424 q 508 422 517 418 l 500 426 q 486 425 492 429 q 479 421 485 424 q 451 419 467 415 q 437 426 444 422 q 422 433 429 431 q 417 438 419 435 q 404 439 411 442 q 388 435 396 438 q 371 431 379 433 q 343 422 358 429 q 335 418 339 422 q 329 406 328 413 l 329 403 q 335 378 333 390 q 339 353 338 365 l 347 294 q 348 292 347 293 q 349 292 349 292 q 350 261 349 276 q 351 231 351 246 q 352 196 351 213 q 353 163 353 179 l 353 146 q 361 140 356 140 l 379 144 q 392 147 386 146 q 404 150 399 149 l 429 154 q 442 156 438 154 q 478 163 460 158 q 514 169 496 167 q 531 172 522 171 q 550 175 540 174 q 580 178 565 176 q 608 182 594 181 q 622 184 615 183 q 633 185 628 185 q 646 190 642 188 q 652 194 649 193 q 657 197 656 196 q 685 206 669 208 q 692 207 689 206 q 699 207 694 207 q 706 206 703 207 q 718 201 713 203 q 729 194 724 199 q 732 193 731 193 q 754 192 743 186 q 764 197 758 194 q 775 200 769 199 q 803 200 789 204 q 812 197 807 199 q 819 193 817 196 q 835 179 828 189 q 851 142 847 161 q 851 133 854 138 q 849 126 850 129 q 846 118 847 122 q 843 112 844 115 q 840 106 842 108 q 835 97 840 100 q 826 89 829 96 q 819 86 824 83 q 813 85 814 86 q 797 76 806 79 q 781 71 789 74 q 750 63 765 68 q 719 54 735 58 q 707 51 711 51 q 691 48 699 50 q 676 43 683 46 q 673 42 675 42 q 668 40 671 42 q 648 36 658 39 q 628 29 638 33 q 615 26 624 26 q 592 22 604 26 q 564 17 578 19 q 535 13 550 15 l 506 8 q 474 -1 488 4 q 467 -4 471 -3 q 460 -7 463 -6 q 406 -28 431 -12 l 394 -32 q 373 -39 383 -33 q 351 -50 363 -44 q 340 -58 343 -56 q 335 -67 338 -61 q 328 -96 328 -83 q 329 -115 329 -106 q 331 -135 329 -124 q 329 -165 333 -151 q 326 -179 329 -171 q 315 -190 321 -187 m 315 565 q 321 574 321 568 q 319 580 319 576 q 318 586 319 583 q 311 618 311 604 q 310 622 311 621 q 310 625 310 624 q 307 628 307 628 l 307 625 q 305 610 306 618 q 304 593 304 601 l 304 571 q 310 567 307 567 q 315 565 311 565 m 654 1083 q 650 1085 651 1083 q 631 1106 635 1089 q 628 1119 629 1113 q 625 1131 626 1125 q 619 1142 622 1139 q 608 1152 614 1149 q 596 1158 603 1156 q 585 1158 590 1160 l 579 1157 q 569 1151 576 1154 q 539 1151 556 1143 q 530 1157 535 1154 q 519 1163 525 1160 q 508 1157 511 1165 l 507 1147 q 506 1128 507 1138 q 504 1108 506 1118 l 503 1107 q 490 1088 501 1093 q 468 1089 479 1082 q 451 1110 456 1096 l 447 1135 q 443 1151 447 1143 l 439 1160 q 426 1178 438 1169 q 392 1207 410 1189 q 378 1214 388 1211 q 358 1225 368 1218 q 342 1239 350 1232 q 325 1253 333 1246 q 317 1263 319 1258 q 306 1276 311 1269 q 294 1288 300 1282 q 289 1294 293 1290 q 278 1307 283 1300 q 269 1321 274 1314 q 258 1344 264 1332 q 246 1367 251 1356 q 235 1400 236 1385 q 233 1406 233 1403 q 232 1413 233 1410 q 249 1464 233 1440 q 274 1485 260 1479 q 306 1494 286 1492 l 308 1494 q 329 1491 319 1493 q 347 1482 339 1489 l 371 1463 q 374 1460 372 1461 q 376 1457 375 1458 q 438 1397 406 1421 q 455 1386 446 1392 q 472 1375 464 1381 q 502 1359 488 1367 q 532 1344 517 1351 l 578 1324 q 588 1319 582 1322 q 668 1299 628 1303 q 699 1289 685 1296 l 707 1283 q 715 1276 711 1279 q 724 1268 719 1272 q 732 1250 732 1260 l 732 1244 q 733 1224 733 1239 q 732 1204 732 1210 q 725 1192 732 1196 q 717 1179 719 1186 q 704 1160 714 1165 q 695 1147 699 1154 q 689 1133 692 1140 q 685 1119 688 1126 q 679 1104 682 1111 q 675 1094 679 1099 q 667 1087 672 1089 q 654 1083 661 1085 z "},"F":{"ha":896,"x_min":54,"x_max":840,"o":"m 299 -67 q 275 -65 286 -72 q 267 -59 271 -62 q 260 -50 263 -56 q 232 -22 249 -33 q 218 -8 224 -15 q 208 10 213 0 l 204 22 q 199 47 199 33 q 200 83 200 65 q 197 119 200 101 q 196 133 196 126 q 196 146 196 139 q 194 169 194 157 q 194 193 194 182 q 194 211 194 203 q 193 229 194 219 q 192 246 192 238 q 192 263 192 254 l 192 496 q 190 510 192 506 q 188 531 188 521 q 185 550 188 540 q 186 560 185 557 q 192 604 192 578 q 191 653 190 629 q 190 703 192 678 l 190 715 l 188 718 q 182 717 186 721 l 176 713 q 174 708 175 710 q 169 703 172 706 q 146 689 161 692 q 131 692 136 686 q 122 698 126 694 q 115 704 118 701 q 101 719 108 711 q 85 733 93 726 q 60 772 67 747 l 56 788 q 58 815 54 801 q 64 832 61 824 q 69 847 67 840 q 79 864 72 858 q 94 874 86 869 q 100 874 97 874 q 104 875 103 875 q 108 879 108 878 q 117 883 111 886 q 119 888 119 883 q 124 889 121 889 q 128 885 126 888 q 133 882 131 883 q 140 881 135 881 q 151 883 146 883 q 163 883 157 883 q 177 885 169 883 q 192 889 185 888 q 199 896 196 892 l 203 914 l 207 935 q 211 947 208 942 q 217 958 214 953 l 222 967 q 267 999 236 992 q 271 1000 269 1000 q 274 1001 272 1000 q 282 1003 278 1003 q 290 1003 286 1003 l 301 1003 q 342 979 328 1001 q 347 969 344 975 q 351 958 350 964 q 365 951 356 950 q 369 953 367 953 q 400 961 385 957 q 431 971 415 965 q 467 983 449 978 q 503 993 485 988 q 534 1003 518 999 q 565 1011 550 1007 l 599 1019 q 647 1032 622 1026 q 696 1043 672 1038 q 721 1051 708 1046 q 742 1059 731 1058 q 763 1060 753 1060 l 790 1060 q 824 1043 811 1058 q 840 1006 839 1029 l 840 994 q 828 964 840 976 q 803 943 815 951 q 799 942 801 942 q 794 940 797 942 q 768 933 782 940 q 747 932 758 929 q 733 934 740 935 q 719 932 726 933 q 708 929 714 931 q 697 926 703 928 q 686 924 692 925 q 674 921 681 922 q 613 899 640 917 q 604 896 610 896 q 592 893 596 896 q 581 889 586 892 q 571 883 576 886 q 558 878 565 881 q 544 872 551 875 q 528 868 536 871 q 511 863 519 865 q 503 860 507 861 q 497 857 500 858 q 470 846 483 853 q 444 831 457 839 l 438 826 q 425 822 432 825 q 411 817 418 819 q 397 813 404 815 q 383 806 390 810 q 381 804 382 804 q 381 804 381 804 q 365 797 371 803 q 351 783 358 790 q 349 776 349 781 l 349 664 q 348 653 349 658 q 346 640 347 647 q 344 629 346 632 q 358 618 344 614 q 398 629 378 624 q 436 640 418 635 q 473 653 456 647 q 508 664 490 658 q 521 667 515 665 q 532 671 526 669 q 577 688 554 679 q 622 701 600 696 q 651 709 638 704 q 679 718 665 714 q 704 725 692 722 q 728 731 717 728 q 744 731 736 732 q 760 726 753 731 q 766 724 763 725 q 772 722 769 724 q 783 717 779 722 q 788 714 786 715 q 793 710 790 713 q 797 706 793 710 q 798 703 797 704 q 799 700 799 703 q 810 678 810 683 q 813 660 811 674 q 808 649 813 651 l 804 643 q 782 621 799 628 q 772 615 776 618 q 760 608 767 611 l 753 604 q 740 599 747 599 q 710 590 725 596 q 681 581 696 585 q 669 574 675 579 q 646 561 660 565 q 635 558 640 560 q 624 554 631 556 q 577 538 600 547 q 531 518 554 528 q 510 510 521 514 q 489 503 500 506 q 474 497 482 500 q 458 488 465 493 q 447 483 453 485 q 435 478 442 481 q 393 464 414 471 q 350 450 372 457 q 344 449 346 450 q 338 440 338 446 q 335 424 336 432 q 335 410 335 417 l 335 401 q 338 388 338 396 q 338 374 338 381 q 335 365 338 371 q 329 350 329 360 q 328 333 328 342 q 325 317 328 325 q 324 299 324 307 q 329 282 325 290 q 333 264 333 274 q 340 211 332 240 q 342 197 342 207 q 340 165 338 185 q 340 152 340 160 q 339 138 340 144 q 339 122 336 133 q 340 116 339 119 q 340 110 340 113 q 344 74 342 92 q 347 38 346 56 q 347 22 349 29 q 343 7 346 14 q 329 -25 339 -12 q 319 -40 324 -32 q 311 -54 315 -47 q 306 -61 310 -58 q 299 -67 301 -64 z "},"G":{"ha":792,"x_min":42,"x_max":753,"o":"m 329 -185 q 293 -175 307 -199 q 288 -160 288 -167 l 283 -140 q 278 -99 282 -119 q 268 -56 274 -78 q 267 -51 268 -53 q 267 -46 267 -49 q 265 -37 267 -40 q 243 -7 261 -17 q 217 6 231 0 q 190 18 204 13 l 156 35 q 135 53 144 40 q 107 88 119 69 q 86 126 94 106 q 80 143 83 135 q 74 160 76 151 q 69 174 71 167 q 65 186 68 181 l 57 215 q 54 226 54 221 q 52 245 53 236 q 49 264 51 254 q 47 283 47 274 q 46 303 46 293 q 44 311 46 308 q 43 349 43 331 q 42 385 43 367 q 42 407 42 396 q 43 428 42 418 l 47 478 q 48 485 47 482 q 49 492 49 489 q 52 526 50 510 q 58 560 54 543 q 61 568 61 564 q 61 576 61 572 q 69 608 65 592 q 75 640 72 624 l 83 686 q 88 708 86 697 q 93 731 90 719 q 132 811 104 778 q 171 849 149 835 q 205 871 188 860 q 240 890 222 882 q 281 910 260 901 q 324 925 301 918 q 342 931 333 928 q 361 935 351 933 q 394 938 378 939 q 426 931 411 938 q 460 913 446 924 q 474 902 467 907 q 488 890 482 897 q 525 833 517 869 q 528 823 526 828 q 529 811 529 818 q 521 764 531 786 q 515 752 518 758 q 506 740 511 746 q 492 723 499 732 q 479 706 486 714 q 467 671 467 692 l 467 585 q 466 574 467 579 q 465 564 465 569 q 464 549 464 557 q 464 535 464 542 q 469 531 464 528 l 474 531 q 481 532 478 532 q 488 533 485 532 q 529 544 508 540 q 572 549 550 547 q 610 549 592 551 q 646 543 628 547 q 670 534 658 539 q 692 521 682 529 q 706 509 699 515 q 717 496 713 503 q 733 467 726 482 q 739 438 739 453 l 739 436 q 742 408 742 422 q 739 381 742 394 q 736 365 738 372 q 733 349 735 357 q 727 324 731 336 q 721 299 724 311 q 719 288 719 293 q 718 278 718 283 l 718 197 q 719 175 718 186 q 722 153 721 164 q 726 139 724 146 q 729 125 728 132 q 735 117 729 122 q 743 101 742 110 q 744 96 743 97 q 750 67 750 83 q 749 56 750 61 q 750 43 749 50 q 746 28 753 35 q 742 21 743 25 q 738 13 740 17 q 726 -3 733 4 q 719 -8 722 -4 q 714 -15 717 -12 q 688 -24 703 -28 q 684 -23 686 -24 q 681 -22 682 -22 q 659 -15 668 -21 q 642 0 650 -8 q 635 9 639 4 q 628 18 632 14 q 622 31 624 24 q 617 43 619 38 q 605 83 611 63 q 596 125 599 104 q 589 165 593 144 q 583 206 585 185 q 581 225 581 217 q 578 231 578 231 q 571 226 572 228 q 540 194 557 210 q 508 161 524 178 q 502 153 506 157 q 496 147 499 150 q 479 131 488 139 q 464 115 471 124 q 454 107 458 111 q 444 100 450 103 q 439 94 442 97 q 433 89 436 92 q 423 78 428 83 q 411 69 418 74 l 406 64 q 361 32 383 46 q 338 -8 338 19 q 338 -25 338 -17 q 339 -42 338 -33 q 340 -43 339 -43 q 340 -44 340 -43 q 344 -98 342 -71 q 344 -153 346 -125 q 343 -164 343 -157 q 329 -185 340 -176 m 321 210 q 369 211 346 197 q 376 217 374 215 q 397 234 388 225 q 417 251 407 243 q 435 269 426 260 q 453 286 443 278 q 475 310 464 297 q 496 335 486 322 q 507 353 503 343 q 514 369 513 360 q 506 376 514 379 q 492 374 499 375 q 478 367 485 372 q 460 356 469 361 q 442 343 451 350 q 436 335 439 340 q 431 311 433 325 q 430 293 431 301 q 428 276 429 285 q 408 251 424 257 q 392 253 399 247 q 378 268 382 258 q 372 288 375 278 q 368 307 369 297 l 364 333 q 349 368 364 350 q 342 375 346 371 q 336 383 339 379 q 327 401 331 392 q 321 421 324 411 l 319 431 q 339 476 321 457 q 388 508 361 501 l 401 513 q 407 522 410 515 q 404 537 406 529 q 401 551 403 544 q 399 578 400 565 q 396 606 399 592 q 396 613 396 606 q 392 644 394 628 q 388 676 390 660 q 376 699 385 690 q 351 710 365 710 q 333 703 339 707 q 307 684 319 693 q 279 668 294 675 q 265 656 269 663 q 256 637 261 646 q 249 617 251 628 q 244 602 247 610 q 239 588 242 594 q 238 582 239 585 q 235 576 236 579 q 228 558 231 567 q 222 539 225 549 q 217 518 219 529 q 211 494 214 508 q 206 467 208 481 q 200 439 203 453 q 198 428 199 433 q 197 417 197 424 q 197 404 197 411 q 194 390 197 397 q 194 381 194 386 q 193 372 193 376 q 194 364 193 368 q 194 353 194 360 q 194 330 193 343 q 197 304 196 317 l 200 293 q 207 276 203 285 q 217 260 211 267 q 243 235 231 244 q 260 223 256 225 q 282 221 265 221 q 307 217 294 221 q 321 210 313 215 z "},"H":{"ha":828,"x_min":54,"x_max":772,"o":"m 710 -100 q 694 -96 701 -103 q 685 -82 689 -90 q 679 -64 682 -74 q 676 -44 676 -54 q 676 -31 676 -37 q 674 -18 676 -24 q 672 -8 672 -12 q 671 1 671 -3 q 660 31 669 17 q 658 31 658 31 q 658 32 658 32 q 641 64 647 47 q 632 99 635 81 l 619 174 q 617 190 618 182 q 613 206 615 197 q 608 226 611 217 q 603 246 606 236 l 594 276 l 594 281 q 590 300 593 290 q 586 319 588 310 q 583 341 585 331 q 578 361 581 351 q 574 372 578 367 q 567 382 571 376 q 564 386 567 383 q 526 394 547 397 q 518 393 521 394 q 490 385 504 390 q 463 372 476 379 q 456 368 457 369 q 440 359 449 363 q 424 353 432 356 q 383 333 403 344 q 343 311 363 322 l 335 304 q 319 292 328 299 q 303 282 311 286 q 290 260 290 274 q 296 222 288 240 q 306 181 303 204 q 307 168 306 172 q 310 159 310 164 q 313 150 311 154 l 317 124 q 308 71 321 96 q 304 64 307 69 q 288 18 292 43 q 283 5 286 11 q 275 -8 281 -1 q 258 -17 269 -15 q 239 -7 247 -18 q 231 18 233 3 q 225 40 228 32 q 215 57 222 51 q 194 96 204 72 q 186 126 189 111 q 181 157 183 142 q 172 199 176 178 q 163 240 168 219 q 153 276 158 258 q 144 311 149 293 l 119 414 q 111 443 118 429 q 104 466 108 454 q 97 489 100 478 q 94 498 96 493 q 92 507 93 503 q 88 521 90 514 q 82 535 86 528 l 78 550 q 72 572 75 561 q 67 593 69 583 l 65 599 q 64 615 65 607 q 61 633 63 624 q 60 635 61 635 q 60 638 60 636 q 57 677 58 657 q 56 717 56 697 q 56 732 54 729 q 63 744 57 735 q 72 760 67 751 q 75 763 72 763 q 85 767 81 764 q 93 774 89 771 q 131 783 108 783 q 136 782 135 783 q 144 779 140 781 q 151 775 147 778 q 166 765 160 772 q 178 751 172 758 q 189 713 188 731 q 197 679 192 696 l 201 660 q 208 632 204 646 q 215 604 213 618 q 223 565 219 585 q 231 525 226 544 l 235 500 q 235 497 235 499 q 236 493 236 494 q 244 486 239 486 q 272 483 258 485 q 300 485 286 482 q 346 492 324 488 q 390 500 368 496 q 448 512 419 506 q 506 525 476 518 l 533 532 q 540 542 540 535 q 539 550 539 546 q 538 558 539 554 q 529 594 531 578 q 526 609 528 601 q 524 624 525 617 q 516 672 519 647 q 510 719 513 696 q 508 741 508 731 q 504 761 507 751 q 502 792 503 776 q 501 822 501 808 q 502 828 501 825 q 504 833 503 831 q 507 844 506 839 q 510 854 508 849 q 516 869 513 863 q 524 881 519 875 q 535 892 531 885 q 547 900 542 899 l 560 904 q 569 906 564 907 q 578 904 574 906 q 590 901 582 904 q 599 897 594 900 q 606 890 603 894 q 613 880 608 885 q 619 868 618 875 q 626 864 622 864 q 633 856 631 863 q 634 853 633 854 q 635 849 635 851 q 640 826 638 838 q 644 803 643 814 q 645 794 644 799 q 644 785 646 790 l 644 774 q 647 751 646 763 q 650 728 649 739 q 651 721 651 726 q 657 707 656 715 q 660 692 658 699 q 662 677 661 685 q 665 663 663 669 q 667 654 667 660 q 667 644 667 649 q 668 633 668 639 q 669 626 668 628 q 673 623 671 625 q 674 618 675 621 q 673 613 674 615 q 672 607 672 610 l 672 600 q 676 585 675 593 q 679 569 678 576 q 685 560 679 561 l 689 556 q 692 546 692 553 q 689 540 689 543 q 689 533 688 538 q 692 525 693 529 q 692 518 689 521 q 694 506 694 514 l 694 507 q 699 506 696 506 q 703 496 706 503 q 700 490 703 493 q 697 483 696 486 q 706 444 701 464 q 713 406 710 425 l 717 372 q 721 350 719 361 q 725 328 722 339 q 728 310 725 321 q 733 307 728 307 q 735 308 733 308 q 736 307 736 308 q 740 300 738 306 l 744 282 q 746 276 746 279 q 747 269 746 272 q 742 256 749 261 q 738 250 738 254 q 738 249 738 249 q 739 247 739 249 q 740 247 739 247 q 740 249 740 247 l 742 249 q 747 249 744 250 q 750 246 750 249 q 753 233 751 240 q 753 225 754 226 q 752 224 753 225 q 750 224 751 224 q 744 211 744 224 q 753 185 746 197 l 761 172 q 772 129 772 153 q 769 124 772 126 q 765 114 765 119 q 767 100 765 106 q 763 86 767 90 q 758 72 758 81 q 750 47 757 60 q 738 -8 738 22 q 736 -19 736 -14 q 736 -32 736 -25 q 735 -50 735 -37 l 735 -68 q 732 -79 733 -74 q 728 -90 731 -85 q 717 -99 724 -96 q 714 -99 715 -99 q 710 -100 713 -100 z "},"I":{"ha":378,"x_min":54,"x_max":324,"o":"m 260 -14 q 256 -13 258 -14 q 251 -12 254 -12 q 238 -4 242 -12 q 226 13 232 6 q 214 26 221 19 q 202 42 207 33 q 193 58 197 50 q 189 72 189 65 l 189 86 q 188 101 189 93 q 186 115 188 108 q 181 139 183 126 q 176 163 179 151 q 176 169 176 165 q 175 175 175 172 q 171 206 174 190 q 165 238 168 222 q 156 292 161 265 q 147 346 151 319 l 139 392 q 131 415 138 403 q 118 449 122 431 q 114 465 117 457 q 108 481 111 472 q 100 508 104 494 q 93 536 96 522 q 89 558 92 547 q 83 581 86 569 l 75 618 q 74 622 75 621 q 68 662 72 642 q 60 701 64 682 q 56 728 58 713 q 56 754 54 744 l 56 768 q 68 804 58 788 q 104 835 79 824 q 118 839 111 838 q 131 842 125 840 q 160 838 146 843 q 188 825 174 833 q 194 818 192 822 q 203 804 199 811 q 210 789 208 797 q 216 772 213 781 q 224 757 219 764 q 233 728 231 743 q 239 697 236 713 q 243 653 243 676 l 243 646 q 246 619 246 632 q 246 592 246 606 q 250 548 247 569 q 256 503 253 526 l 264 438 l 264 435 q 270 403 267 419 q 275 372 274 388 q 284 324 279 349 q 292 276 289 300 l 300 218 q 305 190 303 204 q 310 163 307 176 q 315 135 313 149 q 319 108 317 122 q 322 98 321 103 q 322 88 322 93 q 315 47 324 67 q 308 36 314 42 q 299 25 303 28 q 282 1 288 14 q 280 -3 282 0 q 275 -8 278 -6 q 260 -14 269 -14 z "},"Í":{"ha":378,"x_min":-54,"x_max":324,"o":"m 260 -14 q 256 -13 258 -14 q 251 -12 254 -12 q 238 -4 242 -12 q 226 13 232 6 q 214 26 221 19 q 202 42 207 33 q 193 58 197 50 q 189 72 189 65 l 189 86 q 188 101 189 93 q 186 115 188 108 q 181 139 183 126 q 176 163 179 151 q 176 169 176 165 q 175 175 175 172 q 171 206 174 190 q 165 238 168 222 q 156 292 161 265 q 147 346 151 319 l 139 392 q 131 415 138 403 q 118 449 122 431 q 114 465 117 457 q 108 481 111 472 q 100 508 104 494 q 93 536 96 522 q 89 558 92 547 q 83 581 86 569 l 75 618 q 74 622 75 621 q 68 662 72 642 q 60 701 64 682 q 56 728 58 713 q 56 754 54 744 l 56 768 q 68 804 58 788 q 104 835 79 824 q 118 839 111 838 q 131 842 125 840 q 160 838 146 843 q 188 825 174 833 q 194 818 192 822 q 203 804 199 811 q 210 789 208 797 q 216 772 213 781 q 224 757 219 764 q 233 728 231 743 q 239 697 236 713 q 243 653 243 676 l 243 646 q 246 619 246 632 q 246 592 246 606 q 250 548 247 569 q 256 503 253 526 l 264 438 l 264 435 q 270 403 267 419 q 275 372 274 388 q 284 324 279 349 q 292 276 289 300 l 300 218 q 305 190 303 204 q 310 163 307 176 q 315 135 313 149 q 319 108 317 122 q 322 98 321 103 q 322 88 322 93 q 315 47 324 67 q 308 36 314 42 q 299 25 303 28 q 282 1 288 14 q 280 -3 282 0 q 275 -8 278 -6 q 260 -14 269 -14 m 6 831 q -8 843 -4 832 q -15 867 -15 854 q -18 883 -17 875 q -22 900 -19 892 q -28 914 -22 906 l -35 922 q -54 978 -54 943 q -46 1015 -53 997 q -25 1046 -39 1032 q -11 1057 -18 1053 q 3 1065 -4 1061 q 15 1071 10 1068 q 25 1075 19 1074 q 31 1079 28 1078 q 35 1082 33 1081 q 47 1091 42 1086 q 58 1101 53 1096 q 97 1130 78 1115 q 133 1158 115 1144 q 167 1192 153 1174 q 176 1202 171 1197 q 186 1213 181 1207 q 204 1224 193 1219 l 233 1232 q 246 1233 242 1235 q 251 1232 247 1232 q 294 1214 274 1232 q 308 1203 306 1206 q 314 1186 311 1200 q 317 1168 317 1175 q 315 1158 318 1164 q 314 1153 315 1156 q 311 1147 313 1150 l 299 1117 q 295 1109 297 1113 q 290 1103 293 1106 q 277 1085 285 1093 q 261 1068 269 1076 q 248 1056 256 1063 q 233 1042 240 1049 q 193 1010 214 1024 q 167 992 181 1001 q 142 974 154 983 q 136 970 139 972 q 131 967 133 968 q 117 957 124 961 q 104 947 111 953 q 83 929 94 938 q 61 911 72 921 q 40 878 44 899 l 36 853 q 26 835 35 840 q 6 831 17 829 z "},"Î":{"ha":378,"x_min":-278,"x_max":572,"o":"m 260 -14 q 256 -13 258 -14 q 251 -12 254 -12 q 238 -4 242 -12 q 226 13 232 6 q 214 26 221 19 q 202 42 207 33 q 193 58 197 50 q 189 72 189 65 l 189 86 q 188 101 189 93 q 186 115 188 108 q 181 139 183 126 q 176 163 179 151 q 176 169 176 165 q 175 175 175 172 q 171 206 174 190 q 165 238 168 222 q 156 292 161 265 q 147 346 151 319 l 139 392 q 131 415 138 403 q 118 449 122 431 q 114 465 117 457 q 108 481 111 472 q 100 508 104 494 q 93 536 96 522 q 89 558 92 547 q 83 581 86 569 l 75 618 q 74 622 75 621 q 68 662 72 642 q 60 701 64 682 q 56 728 58 713 q 56 754 54 744 l 56 768 q 68 804 58 788 q 104 835 79 824 q 118 839 111 838 q 131 842 125 840 q 160 838 146 843 q 188 825 174 833 q 194 818 192 822 q 203 804 199 811 q 210 789 208 797 q 216 772 213 781 q 224 757 219 764 q 233 728 231 743 q 239 697 236 713 q 243 653 243 676 l 243 646 q 246 619 246 632 q 246 592 246 606 q 250 548 247 569 q 256 503 253 526 l 264 438 l 264 435 q 270 403 267 419 q 275 372 274 388 q 284 324 279 349 q 292 276 289 300 l 300 218 q 305 190 303 204 q 310 163 307 176 q 315 135 313 149 q 319 108 317 122 q 322 98 321 103 q 322 88 322 93 q 315 47 324 67 q 308 36 314 42 q 299 25 303 28 q 282 1 288 14 q 280 -3 282 0 q 275 -8 278 -6 q 260 -14 269 -14 m 478 821 q 468 824 469 824 q 451 835 458 825 q 442 840 446 840 l 432 844 q 425 849 429 847 q 418 853 421 850 q 406 858 414 856 q 394 865 400 861 q 383 871 389 869 q 381 872 382 871 q 379 872 381 872 q 365 882 372 879 q 350 889 357 885 q 340 896 344 892 q 335 900 338 899 q 329 901 332 901 q 324 899 324 904 q 322 893 322 896 q 321 888 322 890 q 319 881 319 885 q 307 864 318 871 q 283 867 293 860 q 268 888 269 876 l 264 899 q 246 913 258 907 q 238 917 242 915 q 231 919 233 918 q 212 930 221 925 q 196 940 203 935 q 192 943 194 942 q 186 944 189 944 q 161 963 176 949 q 149 974 157 965 q 139 976 144 978 l 135 976 q 126 971 128 976 q 126 967 126 969 q 125 964 125 965 q 126 954 126 958 q 125 944 125 950 q 121 924 125 936 q 110 914 119 917 q 103 913 107 914 q 97 911 100 911 q 89 915 93 911 q 72 940 76 924 l 72 944 q 67 963 72 956 q 63 975 65 967 q 54 992 61 983 q 50 993 54 993 q 42 986 44 988 q 26 975 33 981 q 11 963 19 969 q -6 948 3 956 q -24 933 -15 940 q -32 926 -29 928 q -43 919 -37 924 q -53 910 -49 914 q -58 907 -56 908 q -62 903 -60 906 l -100 874 q -103 872 -101 872 q -108 869 -106 871 l -137 851 q -150 844 -143 847 q -165 838 -157 840 q -178 830 -171 833 q -193 822 -186 826 q -205 817 -199 818 q -218 815 -211 817 q -229 815 -224 815 q -240 817 -235 815 q -247 819 -244 817 q -254 826 -251 822 q -260 832 -257 829 q -268 844 -265 839 q -275 856 -271 850 q -276 865 -276 860 q -278 874 -276 869 l -275 885 q -272 899 -276 892 q -268 906 -269 901 q -265 915 -268 911 q -257 922 -261 918 q -246 936 -251 931 q -237 943 -242 940 q -229 949 -233 946 q -206 961 -218 956 q -185 972 -194 967 q -179 975 -179 975 q -162 987 -169 982 q -144 997 -154 992 l -139 1001 q -124 1013 -132 1007 q -108 1025 -115 1019 q -85 1043 -94 1036 q -72 1053 -78 1047 q -58 1064 -65 1058 q -54 1068 -58 1064 q -44 1074 -49 1071 q -36 1081 -40 1078 q -19 1094 -31 1088 q -10 1106 -15 1097 q 10 1129 3 1114 q 14 1143 14 1136 q 19 1153 17 1149 q 22 1164 21 1158 q 33 1181 26 1174 q 38 1183 35 1181 q 81 1206 56 1201 q 92 1206 86 1206 q 103 1203 97 1206 q 136 1188 119 1199 q 144 1183 140 1185 q 153 1178 149 1181 q 159 1174 156 1176 q 167 1168 163 1171 q 172 1165 169 1167 q 176 1161 175 1164 q 199 1139 185 1147 q 201 1136 201 1136 q 224 1121 213 1128 q 244 1106 235 1114 q 258 1096 251 1104 q 266 1092 263 1094 q 272 1088 269 1090 q 295 1072 283 1079 q 318 1057 307 1064 l 324 1053 q 344 1040 333 1047 q 365 1025 356 1032 q 371 1022 368 1024 q 376 1018 374 1019 q 385 1012 381 1015 q 396 1006 390 1008 q 411 997 403 1001 q 428 989 419 993 q 442 982 435 985 q 457 975 450 979 q 474 969 465 972 q 490 963 482 967 q 507 960 494 960 q 510 959 508 960 q 513 958 511 958 q 550 943 532 958 q 560 924 557 938 q 564 910 564 911 q 567 901 565 906 q 569 893 568 897 q 569 885 572 889 q 567 879 568 882 q 565 874 565 876 q 565 872 565 872 q 564 871 564 871 q 558 864 560 867 l 557 854 q 550 846 557 849 q 542 840 544 843 q 538 836 540 838 q 532 832 535 835 l 518 824 q 478 821 499 815 z "},"Ï":{"ha":378,"x_min":-104,"x_max":397,"o":"m 260 -14 q 256 -13 258 -14 q 251 -12 254 -12 q 238 -4 242 -12 q 226 13 232 6 q 214 26 221 19 q 202 42 207 33 q 193 58 197 50 q 189 72 189 65 l 189 86 q 188 101 189 93 q 186 115 188 108 q 181 139 183 126 q 176 163 179 151 q 176 169 176 165 q 175 175 175 172 q 171 206 174 190 q 165 238 168 222 q 156 292 161 265 q 147 346 151 319 l 139 392 q 131 415 138 403 q 118 449 122 431 q 114 465 117 457 q 108 481 111 472 q 100 508 104 494 q 93 536 96 522 q 89 558 92 547 q 83 581 86 569 l 75 618 q 74 622 75 621 q 68 662 72 642 q 60 701 64 682 q 56 728 58 713 q 56 754 54 744 l 56 768 q 68 804 58 788 q 104 835 79 824 q 118 839 111 838 q 131 842 125 840 q 160 838 146 843 q 188 825 174 833 q 194 818 192 822 q 203 804 199 811 q 210 789 208 797 q 216 772 213 781 q 224 757 219 764 q 233 728 231 743 q 239 697 236 713 q 243 653 243 676 l 243 646 q 246 619 246 632 q 246 592 246 606 q 250 548 247 569 q 256 503 253 526 l 264 438 l 264 435 q 270 403 267 419 q 275 372 274 388 q 284 324 279 349 q 292 276 289 300 l 300 218 q 305 190 303 204 q 310 163 307 176 q 315 135 313 149 q 319 108 317 122 q 322 98 321 103 q 322 88 322 93 q 315 47 324 67 q 308 36 314 42 q 299 25 303 28 q 282 1 288 14 q 280 -3 282 0 q 275 -8 278 -6 q 260 -14 269 -14 m 308 951 q 286 956 297 951 q 263 965 274 958 q 242 978 253 971 q 234 985 238 981 q 228 993 231 989 q 200 1046 211 1015 q 199 1054 199 1050 q 197 1064 199 1058 q 201 1079 200 1071 q 203 1094 201 1088 q 206 1101 203 1096 q 232 1132 217 1117 l 240 1138 q 249 1142 244 1140 q 258 1146 253 1144 q 288 1147 271 1150 q 304 1145 296 1146 q 322 1142 313 1144 q 349 1133 338 1139 q 383 1104 371 1125 q 390 1088 386 1094 q 395 1069 393 1078 q 394 1051 397 1061 q 392 1031 392 1038 q 386 1012 390 1021 q 379 993 382 1003 q 364 974 375 981 q 338 958 353 963 q 308 951 324 953 m -17 933 l -22 933 q -56 939 -43 933 l -65 943 q -81 953 -72 944 q -92 975 -87 964 q -100 999 -97 986 q -104 1043 -104 1019 l -104 1058 q -100 1079 -104 1069 q -90 1097 -96 1089 q -84 1103 -87 1100 q -79 1110 -81 1106 q -65 1122 -72 1118 q -35 1126 -50 1126 q -27 1126 -32 1126 q -18 1128 -22 1126 q -10 1128 -14 1128 q 0 1129 -6 1129 q 26 1118 15 1129 q 33 1112 29 1115 q 42 1106 38 1108 q 67 1081 57 1099 q 78 1038 82 1061 q 74 1010 75 1014 q 72 1001 74 1006 q 68 993 71 997 q 60 979 64 986 q 49 965 56 972 q 44 960 47 963 q 39 956 42 958 q 24 947 31 951 q 8 939 17 943 q -3 934 3 936 q -17 933 -10 932 z "},"Ì":{"ha":378,"x_min":-90,"x_max":411,"o":"m 260 -14 q 256 -13 258 -14 q 251 -12 254 -12 q 238 -4 242 -12 q 226 13 232 6 q 214 26 221 19 q 202 42 207 33 q 193 58 197 50 q 189 72 189 65 l 189 86 q 188 101 189 93 q 186 115 188 108 q 181 139 183 126 q 176 163 179 151 q 176 169 176 165 q 175 175 175 172 q 171 206 174 190 q 165 238 168 222 q 156 292 161 265 q 147 346 151 319 l 139 392 q 131 415 138 403 q 118 449 122 431 q 114 465 117 457 q 108 481 111 472 q 100 508 104 494 q 93 536 96 522 q 89 558 92 547 q 83 581 86 569 l 75 618 q 74 622 75 621 q 68 662 72 642 q 60 701 64 682 q 56 728 58 713 q 56 754 54 744 l 56 768 q 68 804 58 788 q 104 835 79 824 q 118 839 111 838 q 131 842 125 840 q 160 838 146 843 q 188 825 174 833 q 194 818 192 822 q 203 804 199 811 q 210 789 208 797 q 216 772 213 781 q 224 757 219 764 q 233 728 231 743 q 239 697 236 713 q 243 653 243 676 l 243 646 q 246 619 246 632 q 246 592 246 606 q 250 548 247 569 q 256 503 253 526 l 264 438 l 264 435 q 270 403 267 419 q 275 372 274 388 q 284 324 279 349 q 292 276 289 300 l 300 218 q 305 190 303 204 q 310 163 307 176 q 315 135 313 149 q 319 108 317 122 q 322 98 321 103 q 322 88 322 93 q 315 47 324 67 q 308 36 314 42 q 299 25 303 28 q 282 1 288 14 q 280 -3 282 0 q 275 -8 278 -6 q 260 -14 269 -14 m 332 872 q 328 874 329 872 q 308 894 313 878 q 306 908 307 901 q 303 919 304 914 q 297 931 300 928 q 286 941 292 938 q 274 947 281 944 q 263 947 268 949 l 257 946 q 247 940 254 943 q 217 940 233 932 q 208 946 213 943 q 197 951 203 949 q 186 946 189 954 l 185 936 q 184 917 185 926 q 182 897 183 907 l 181 896 q 168 876 179 882 q 146 878 157 871 q 129 899 133 885 l 125 924 q 121 940 125 932 l 117 949 q 104 967 115 958 q 69 996 88 978 q 56 1003 65 1000 q 36 1014 46 1007 q 19 1028 28 1021 q 3 1042 11 1035 q -6 1051 -3 1047 q -17 1065 -11 1058 q -28 1076 -22 1071 q -33 1083 -29 1079 q -44 1096 -39 1089 q -53 1110 -49 1103 q -65 1133 -58 1121 q -76 1156 -71 1144 q -87 1189 -86 1174 q -89 1195 -89 1192 q -90 1201 -89 1199 q -74 1253 -89 1229 q -49 1274 -62 1268 q -17 1283 -36 1281 l -14 1283 q 7 1280 -3 1282 q 25 1271 17 1278 l 49 1251 q 51 1249 50 1250 q 54 1246 53 1247 q 115 1186 83 1210 q 133 1175 124 1181 q 150 1164 142 1169 q 180 1148 165 1156 q 210 1133 194 1140 l 256 1113 q 265 1108 260 1111 q 346 1088 306 1092 q 376 1078 363 1085 l 385 1072 q 393 1065 389 1068 q 401 1057 397 1061 q 410 1039 410 1049 l 410 1033 q 410 1013 411 1028 q 410 993 410 999 q 403 981 410 985 q 394 968 397 975 q 382 949 392 954 q 373 936 376 943 q 367 922 369 929 q 363 908 365 915 q 357 893 360 900 q 353 883 357 888 q 344 876 350 878 q 332 872 339 874 z "},"J":{"ha":649,"x_min":56,"x_max":593,"o":"m 297 -546 q 274 -522 276 -542 q 272 -511 272 -518 q 272 -492 272 -501 q 269 -475 271 -483 l 269 -457 q 269 -431 268 -444 q 267 -406 269 -418 q 267 -399 264 -401 q 268 -374 268 -386 q 269 -350 268 -361 q 271 -322 274 -336 q 270 -309 269 -315 q 271 -297 271 -303 l 271 -286 q 269 -244 269 -265 q 269 -200 269 -222 l 269 -190 q 272 -168 272 -179 q 272 -146 272 -157 q 271 -135 271 -140 q 271 -125 271 -131 q 269 -109 269 -117 q 269 -93 269 -101 l 265 -71 q 253 -42 260 -56 q 239 -14 246 -28 q 226 3 233 -4 q 211 17 218 11 q 183 40 197 28 q 169 53 176 47 q 156 65 163 60 q 141 81 149 72 q 125 96 133 89 q 113 112 118 103 q 103 131 107 121 q 97 144 100 138 q 92 158 94 151 q 87 172 89 165 q 82 185 85 179 q 74 209 78 197 q 68 233 71 221 q 62 265 64 249 q 58 297 60 281 q 58 310 58 304 q 57 321 57 315 q 57 372 56 347 q 58 386 58 376 q 65 438 58 410 l 69 460 q 79 492 74 478 q 91 510 85 501 q 107 524 97 518 q 130 534 118 531 q 154 539 142 538 q 193 522 179 539 q 200 508 200 515 q 204 497 201 503 q 210 485 207 490 q 214 479 210 479 l 217 483 q 220 486 218 486 q 224 483 222 486 q 229 461 229 474 q 228 456 229 457 q 226 450 228 453 q 225 444 225 447 q 217 431 224 438 q 211 418 211 426 q 210 411 211 413 q 206 403 206 408 q 204 393 206 399 q 201 376 200 386 q 201 370 201 374 q 200 363 200 367 q 203 350 200 354 q 206 336 206 342 q 210 310 206 322 l 214 293 q 217 283 214 288 q 222 275 219 279 q 240 260 231 267 q 258 246 249 253 q 278 235 268 240 q 297 224 288 231 q 308 220 303 222 q 318 217 313 218 q 361 197 342 215 q 367 193 364 194 q 372 193 369 190 l 381 197 q 391 208 386 203 q 400 219 396 214 q 408 233 404 226 q 417 246 413 240 q 421 251 418 249 q 433 290 428 271 q 440 328 439 308 q 442 361 442 344 q 442 396 442 378 l 442 397 q 443 422 444 410 q 440 446 442 433 q 440 460 440 453 q 439 474 440 468 q 437 499 438 486 q 436 522 436 511 l 432 554 q 429 573 431 564 q 426 592 428 582 q 424 608 425 600 q 421 625 424 617 q 418 647 419 636 q 415 668 417 657 q 413 687 414 678 q 410 706 413 696 l 408 715 q 407 742 408 729 q 404 767 406 754 q 403 776 404 774 q 402 782 403 779 q 401 788 401 785 q 399 835 400 811 q 399 885 397 860 q 399 899 399 892 q 401 913 400 906 q 404 921 404 918 q 418 950 406 936 q 424 958 421 954 q 432 964 428 961 q 440 969 436 967 q 449 974 444 971 l 451 974 q 462 974 457 972 q 472 976 467 976 q 485 975 479 979 q 490 972 488 975 q 514 960 504 968 q 522 944 518 951 q 528 926 526 936 q 535 900 532 913 q 539 874 538 888 q 546 832 542 853 q 551 790 550 811 l 556 758 q 562 708 558 733 q 569 660 565 683 q 572 650 571 654 q 572 640 572 646 q 576 624 575 632 q 576 606 578 615 q 578 601 576 603 l 582 557 q 585 528 583 543 q 588 497 588 513 q 589 490 588 492 q 591 467 592 479 q 590 444 590 456 l 590 404 q 592 374 592 389 q 593 343 592 358 l 593 335 q 590 306 592 321 q 586 275 589 290 q 583 260 585 268 q 581 244 582 253 q 568 204 576 226 q 563 190 567 197 q 557 175 560 182 q 543 143 551 158 l 531 121 q 520 104 525 113 q 510 89 515 96 q 499 76 504 82 q 489 63 494 69 q 486 59 488 61 q 482 54 485 57 q 478 50 481 53 q 472 44 475 47 q 460 33 467 39 q 447 19 454 26 q 414 -8 431 3 l 385 -29 q 371 -41 376 -33 q 361 -56 365 -49 q 357 -68 357 -61 q 355 -103 357 -86 q 353 -137 353 -119 l 353 -218 q 350 -250 350 -233 q 349 -282 350 -267 l 349 -300 q 349 -307 349 -303 q 347 -315 349 -311 q 347 -332 347 -324 q 344 -349 347 -340 q 344 -355 344 -351 q 343 -362 343 -358 q 342 -374 342 -368 q 340 -386 342 -379 l 340 -393 q 339 -416 340 -404 q 336 -439 338 -428 q 335 -460 335 -449 q 332 -482 335 -471 q 328 -505 331 -493 q 322 -528 326 -517 q 318 -536 321 -532 q 311 -543 315 -540 q 297 -546 307 -546 z "},"K":{"ha":749,"x_min":56,"x_max":697,"o":"m 111 -229 q 89 -221 96 -235 q 79 -197 82 -211 q 78 -187 79 -192 q 78 -176 78 -182 q 76 -171 76 -174 q 78 -150 78 -160 q 79 -131 78 -140 q 80 -91 79 -111 q 79 -50 81 -71 q 69 -14 79 -33 q 57 26 61 4 q 56 39 56 33 q 56 50 56 44 q 60 81 58 65 q 63 113 61 97 q 66 143 65 128 q 68 172 67 158 q 72 202 69 188 q 72 232 74 217 q 76 262 75 247 q 78 290 76 276 q 80 312 81 301 q 78 332 79 322 q 77 344 76 339 q 78 354 78 349 q 79 369 79 361 q 81 382 79 376 l 81 436 q 80 472 79 454 q 81 507 81 489 q 80 535 79 521 q 82 564 81 550 q 83 572 83 568 q 83 579 83 576 l 83 626 q 85 639 83 635 l 85 657 q 85 668 82 661 q 85 693 88 681 q 84 699 83 696 q 85 707 85 703 q 85 720 85 714 q 86 733 86 726 q 87 745 86 739 q 89 757 88 751 l 89 763 q 90 785 89 774 q 93 807 92 797 l 101 861 q 108 888 104 875 q 117 913 111 900 q 147 958 125 938 q 162 968 154 964 q 179 972 169 972 q 183 974 181 974 q 201 975 193 976 q 218 971 210 974 q 247 950 238 967 q 254 932 254 940 q 256 921 254 925 q 258 888 260 903 q 259 876 258 882 q 261 864 260 871 q 264 849 264 857 q 264 835 264 842 q 263 816 264 825 q 260 797 261 807 q 258 785 258 792 q 254 772 257 779 q 251 753 253 763 q 247 733 249 743 l 247 728 q 243 699 244 714 q 239 671 242 685 q 238 663 238 667 q 238 656 238 658 q 238 647 238 651 q 236 639 238 643 q 235 622 235 631 q 233 604 235 614 q 234 603 233 603 q 235 601 235 603 q 237 599 235 600 q 240 599 239 597 q 250 606 246 601 q 282 631 265 618 q 315 656 299 643 q 346 678 331 667 q 376 700 361 689 q 377 700 376 700 q 379 701 378 700 q 406 724 393 713 q 432 746 419 735 q 462 774 447 760 q 489 803 476 788 q 494 808 492 806 q 500 814 497 811 l 546 864 q 575 890 557 876 q 590 897 582 896 q 594 898 593 897 q 597 897 596 899 q 610 897 604 897 q 621 894 615 896 q 633 893 625 893 q 643 889 640 896 q 646 888 643 888 q 653 890 647 888 q 657 888 657 890 q 669 875 661 879 q 670 874 669 874 q 671 874 671 874 l 671 869 q 676 861 671 863 q 678 860 678 861 q 679 860 679 860 q 685 853 682 858 q 689 832 685 843 q 688 786 697 808 q 660 738 678 761 l 625 692 q 613 678 619 685 q 599 665 606 671 q 589 654 592 658 q 583 649 586 651 q 578 643 581 646 q 561 628 571 633 q 546 617 554 622 q 531 606 538 613 q 515 597 524 600 q 497 590 506 593 q 481 589 490 586 l 479 589 q 442 582 461 594 q 433 576 438 579 q 422 571 428 574 q 400 556 413 563 q 390 549 394 553 q 382 543 386 546 q 358 527 371 535 q 335 511 346 519 l 307 494 q 298 488 303 492 q 288 481 293 485 q 288 475 285 478 l 304 463 q 339 441 322 453 q 372 417 356 429 q 402 394 388 406 q 432 371 417 382 q 438 367 435 369 q 443 361 442 364 q 472 337 458 349 q 499 313 485 325 q 547 270 522 290 q 594 226 572 250 l 607 214 q 624 197 615 204 q 643 181 633 189 q 656 169 651 176 l 660 165 q 672 144 669 156 q 674 119 675 133 l 672 110 q 667 94 674 100 q 663 83 663 93 q 657 78 663 78 q 647 72 651 76 q 624 60 638 64 l 613 56 q 604 54 607 53 q 592 60 599 57 q 578 64 585 63 q 569 71 575 65 q 556 85 563 78 q 542 101 549 93 q 521 124 532 113 q 499 144 510 135 l 454 182 q 422 210 439 197 q 388 236 406 222 q 375 242 385 239 q 367 244 371 242 q 358 247 363 246 q 340 256 349 251 q 321 265 331 260 q 304 276 313 271 q 288 288 296 282 q 266 303 278 296 q 243 318 254 311 q 240 319 242 319 q 235 321 238 319 q 226 317 229 324 q 221 306 224 314 l 217 283 q 213 258 215 271 q 210 232 211 244 q 207 213 208 222 q 204 196 206 204 q 201 179 203 188 q 197 163 200 171 q 196 151 196 157 q 196 138 196 144 l 196 92 q 193 59 196 75 q 188 28 190 43 q 167 -18 183 0 q 153 -50 157 -32 q 144 -103 147 -75 q 143 -115 143 -108 q 142 -128 143 -121 q 140 -141 140 -133 q 139 -156 140 -149 q 137 -178 138 -167 q 133 -201 136 -190 q 125 -219 132 -211 q 111 -229 119 -226 z "},"L":{"ha":724,"x_min":56,"x_max":668,"o":"m 583 -164 q 563 -147 569 -162 q 561 -140 561 -146 q 558 -118 560 -129 q 557 -96 556 -107 l 557 -89 q 556 -64 556 -76 q 554 -40 556 -51 q 538 -4 551 -17 l 525 8 q 507 14 518 17 q 491 13 499 13 q 475 14 483 13 q 463 13 469 14 q 450 13 457 13 q 438 13 444 13 q 426 13 432 14 q 416 11 421 11 q 407 11 411 11 l 360 11 q 328 7 344 11 l 294 -1 q 261 -10 278 -7 q 250 -12 256 -11 q 239 -17 244 -14 q 199 -28 218 -26 q 181 -39 186 -31 l 174 -47 q 168 -51 171 -49 q 163 -56 165 -53 q 142 -56 153 -61 q 126 -40 129 -49 q 126 -38 126 -39 q 125 -36 125 -37 q 93 6 115 -12 q 83 15 88 10 q 79 23 82 19 q 74 29 76 26 l 65 42 q 61 64 60 51 q 63 78 63 71 q 65 93 64 86 l 65 101 q 65 133 65 117 q 67 163 65 149 l 67 176 q 69 187 69 182 q 68 197 68 192 q 69 233 69 215 q 69 268 68 250 l 74 331 q 76 360 75 346 q 76 388 76 374 l 76 392 q 79 425 79 408 q 79 460 79 442 l 79 556 q 77 586 78 571 q 76 617 76 601 q 75 651 76 633 q 71 686 74 668 q 67 710 69 697 q 65 735 65 722 q 65 740 65 738 q 64 746 64 743 q 56 822 56 783 l 56 881 q 56 899 56 890 q 58 918 57 908 q 69 943 61 935 l 76 951 q 96 967 85 963 q 119 974 107 972 l 129 974 q 163 958 150 974 q 167 956 165 957 q 169 953 168 954 q 178 940 176 947 q 185 922 185 926 q 186 903 186 918 l 186 893 q 186 874 186 883 q 188 856 186 865 q 189 847 189 853 q 190 828 189 838 q 192 808 190 818 q 194 781 193 794 q 196 753 196 768 q 197 747 196 750 q 197 740 197 743 q 198 737 197 739 q 199 732 199 735 l 203 661 q 204 647 204 654 q 204 631 204 639 q 206 624 206 629 q 204 609 204 617 q 206 594 204 601 l 206 503 q 206 486 204 494 l 206 478 q 204 455 204 467 q 203 431 204 443 q 203 410 203 421 q 201 389 203 400 q 200 376 200 383 q 200 363 200 369 q 199 349 200 357 q 197 335 199 342 l 197 331 q 195 303 196 317 q 193 274 194 289 q 192 258 192 267 q 190 242 192 250 q 189 228 189 236 q 189 214 189 221 q 188 200 189 207 q 186 170 186 185 q 186 140 186 156 l 186 139 q 193 132 189 132 l 221 128 q 286 124 254 124 q 300 125 294 124 q 315 126 307 126 q 331 128 324 126 l 369 128 q 389 130 379 128 q 408 133 399 132 l 415 133 q 446 135 431 133 q 476 138 461 138 l 522 138 q 556 146 542 138 q 577 151 567 150 q 599 154 588 153 q 628 146 615 154 q 664 100 656 129 q 667 79 667 90 q 667 57 668 68 q 661 34 665 44 q 650 13 657 24 l 638 -6 q 625 -36 629 -21 q 621 -60 624 -49 q 618 -85 618 -72 q 617 -96 618 -90 q 617 -107 617 -101 q 615 -117 615 -112 q 615 -126 615 -121 q 608 -151 615 -137 q 583 -164 600 -165 z "},"M":{"ha":919,"x_min":56,"x_max":865,"o":"m 136 -111 q 115 -97 121 -108 q 109 -80 111 -89 q 106 -62 107 -71 q 103 -40 104 -51 q 100 -17 101 -28 q 96 10 99 -3 q 88 36 93 22 q 85 44 86 40 q 81 51 83 47 l 64 86 q 57 114 57 100 q 56 149 56 132 q 57 182 56 165 q 60 196 57 188 q 66 223 63 210 q 71 249 69 236 q 76 281 74 265 q 81 313 79 297 q 85 343 83 328 q 88 374 86 358 q 90 395 89 385 q 93 415 92 406 q 94 428 94 419 q 96 442 94 435 q 99 457 97 450 q 102 480 101 468 q 104 503 103 492 q 106 514 106 507 q 112 546 110 529 q 115 579 114 563 l 119 603 q 124 634 122 618 q 126 665 125 650 q 129 697 129 681 q 129 728 129 713 q 130 744 129 736 q 132 760 131 751 q 126 829 135 796 q 125 832 125 831 q 124 865 119 850 q 138 894 128 881 q 185 928 154 922 q 194 930 190 929 q 204 929 199 931 q 214 926 210 926 q 238 915 226 925 l 250 899 q 268 874 260 882 q 307 814 290 846 q 324 778 317 796 q 340 744 332 761 q 348 726 344 735 q 356 710 351 718 q 364 700 358 706 q 369 688 369 692 q 368 678 372 682 q 368 674 367 676 q 371 668 369 671 q 376 652 372 667 q 379 642 381 638 q 388 635 382 635 q 393 629 392 633 q 389 622 394 626 q 389 612 385 621 q 394 600 393 603 q 404 573 400 586 q 414 546 408 560 q 426 508 421 528 q 438 469 432 489 q 447 442 442 456 q 456 417 451 429 q 458 414 456 414 l 461 417 q 464 425 461 419 q 471 456 467 440 q 479 488 475 472 q 491 529 486 508 q 501 571 496 550 q 508 597 504 583 q 514 622 513 610 q 525 668 519 646 q 535 713 531 690 q 537 718 536 715 q 538 724 538 721 q 546 750 539 738 q 592 788 560 779 q 622 788 607 792 q 640 778 635 785 q 659 758 650 768 q 675 738 668 749 q 686 722 681 729 q 697 706 692 714 q 706 694 701 700 q 713 681 710 688 q 733 640 724 661 q 750 597 743 619 q 751 593 750 594 q 763 565 758 579 q 771 535 767 550 q 780 504 776 519 q 788 474 783 489 q 789 465 788 468 q 796 442 793 454 q 801 418 799 429 q 807 385 804 401 q 813 353 810 368 q 818 311 815 332 q 825 269 821 290 q 830 240 828 256 q 833 210 832 225 q 836 197 833 206 l 840 164 q 842 154 840 157 q 850 100 849 128 q 851 97 851 99 q 853 92 851 94 l 863 36 q 863 15 865 26 l 860 4 q 856 -17 860 -7 q 846 -36 851 -26 q 836 -48 842 -42 q 824 -58 831 -54 q 793 -60 808 -69 q 746 -8 761 -39 q 742 2 744 -3 q 740 13 740 7 l 736 39 q 734 53 735 46 q 732 68 733 61 l 718 149 q 715 167 717 158 q 713 185 714 175 l 707 215 q 701 247 704 231 q 696 278 699 263 l 682 367 q 676 405 681 386 q 667 442 671 424 q 654 484 661 464 q 639 524 647 504 l 635 536 q 631 544 633 540 q 625 551 628 549 q 621 550 621 551 l 617 536 q 607 498 611 518 q 597 458 603 478 q 592 436 594 447 q 586 414 589 425 q 581 394 583 404 q 576 372 579 383 q 569 339 574 356 q 563 306 565 322 q 559 281 561 293 q 556 256 557 268 l 556 247 q 550 228 558 236 q 547 220 549 224 q 543 213 544 217 q 536 194 540 200 l 532 185 q 530 180 531 183 q 526 174 529 176 q 501 151 517 157 q 491 146 496 149 q 481 140 486 143 q 451 142 467 133 q 419 172 431 156 l 394 208 q 394 210 394 210 q 393 211 393 211 q 381 239 388 226 q 369 265 374 251 l 353 314 q 340 350 346 332 q 328 386 335 368 l 324 397 q 317 422 321 410 q 310 446 314 435 q 303 470 307 458 q 296 493 299 482 q 285 524 290 508 q 274 556 281 540 q 265 571 271 565 q 250 597 254 582 q 247 600 250 600 l 244 597 l 244 596 q 243 592 243 594 q 240 563 242 578 q 236 532 239 547 l 232 486 q 230 464 231 475 q 228 442 229 453 q 226 431 226 436 q 225 418 225 425 q 217 344 224 383 q 214 323 215 335 q 211 300 213 311 l 207 269 q 203 221 203 244 q 203 201 203 211 q 201 182 204 192 q 204 153 200 169 q 209 133 210 143 q 206 113 208 124 q 201 96 204 104 q 190 81 197 88 q 184 71 188 76 q 176 61 181 65 q 165 31 165 47 l 165 0 q 165 -22 165 -11 q 165 -43 164 -32 q 165 -46 165 -44 q 164 -50 164 -47 q 163 -58 163 -54 q 163 -67 163 -62 q 160 -93 164 -79 q 142 -110 153 -106 q 136 -111 139 -111 z "},"N":{"ha":988,"x_min":50,"x_max":932,"o":"m 879 -428 q 860 -419 864 -431 q 857 -412 858 -417 q 853 -406 856 -408 q 850 -392 851 -399 q 847 -378 849 -385 q 845 -367 846 -372 q 844 -356 844 -361 q 842 -331 843 -343 q 839 -307 840 -319 q 838 -301 839 -304 q 838 -296 838 -299 q 837 -260 838 -278 q 835 -224 836 -242 q 833 -215 833 -219 q 833 -206 833 -210 l 833 -196 q 831 -157 832 -176 q 831 -118 831 -137 q 828 -87 831 -103 q 824 -57 826 -71 q 811 -28 819 -40 q 799 -2 804 -15 q 788 25 793 11 q 783 35 786 31 q 776 43 779 39 q 740 88 758 65 q 704 133 722 110 l 667 182 l 631 228 q 608 258 619 243 q 585 288 596 272 q 550 334 568 311 q 513 379 532 357 q 424 489 468 438 q 413 505 418 497 q 401 521 407 513 q 390 535 396 528 q 378 550 385 543 q 369 560 374 556 q 363 569 365 564 l 304 636 q 296 646 300 642 q 288 654 292 650 q 259 685 274 669 q 229 715 244 701 q 218 728 224 722 q 204 738 213 733 q 203 738 204 738 q 200 736 201 738 l 200 732 q 199 724 199 729 q 199 702 199 713 q 197 681 199 692 q 197 670 196 675 q 196 661 197 665 l 196 596 q 196 587 196 592 q 194 576 196 582 q 193 560 193 568 q 193 542 193 551 l 193 506 q 192 481 193 493 q 190 456 192 468 q 189 422 189 439 q 189 389 189 406 q 189 365 189 376 q 186 342 189 353 l 186 328 q 186 304 186 317 q 185 281 186 292 q 185 266 185 274 q 183 251 185 258 q 183 231 182 242 q 184 206 183 218 q 186 182 185 193 l 190 154 q 197 119 193 136 q 206 83 201 101 q 208 74 207 79 q 211 65 210 69 q 215 47 215 56 q 213 28 214 38 q 206 15 211 24 q 199 5 203 10 q 192 -4 196 0 q 185 -17 186 -12 q 182 -26 185 -21 l 182 -32 q 151 -54 176 -54 q 135 -44 143 -56 q 134 -42 135 -43 q 133 -39 133 -40 q 126 -20 132 -28 q 114 -6 119 -12 q 108 2 111 -1 q 101 8 104 6 q 94 22 96 17 l 89 36 q 79 65 83 51 q 72 93 75 79 q 71 97 72 96 q 65 129 67 113 q 60 163 63 146 q 58 176 60 171 q 58 215 57 196 q 58 251 58 233 l 58 301 q 59 323 58 313 q 61 343 60 333 q 63 356 63 350 q 63 368 63 363 q 63 382 63 375 q 64 396 63 389 q 65 418 65 407 q 65 439 65 429 q 66 458 67 449 q 65 476 65 467 q 67 499 67 488 q 67 524 67 511 q 68 557 68 540 q 68 590 68 574 q 69 617 69 604 q 71 644 69 631 q 72 657 72 649 l 72 788 q 69 823 69 806 q 68 858 68 840 q 64 878 68 868 q 61 886 64 881 q 63 944 50 914 q 106 981 74 969 q 146 979 124 986 q 156 975 151 978 q 164 968 161 972 q 167 964 167 965 q 200 931 182 946 q 219 912 210 921 q 238 892 228 903 l 274 854 q 298 830 286 842 q 321 804 310 818 l 331 794 q 362 761 346 778 q 392 726 378 744 q 408 708 400 717 q 425 688 417 699 l 457 650 q 508 583 483 617 q 560 515 533 549 q 581 488 571 501 q 601 460 592 474 l 611 447 q 626 426 618 436 q 643 404 635 415 q 665 377 654 390 q 686 351 676 364 q 704 329 696 342 q 749 276 728 303 q 753 276 751 275 l 753 278 q 753 290 753 283 q 754 301 754 296 q 753 313 753 308 q 753 324 753 318 q 753 342 753 333 q 751 361 753 351 l 751 381 q 750 402 750 392 q 750 422 750 413 l 750 425 q 748 456 749 440 q 746 488 747 472 q 744 506 746 497 q 742 522 743 514 q 741 531 742 526 q 740 540 740 536 q 739 569 739 556 q 738 597 739 583 q 734 642 736 619 q 732 686 732 664 q 733 746 733 717 q 732 806 732 775 l 732 831 q 731 836 732 835 q 729 857 729 847 q 729 876 729 867 l 729 890 q 728 915 729 903 q 722 939 726 928 l 722 942 q 724 972 717 956 q 736 997 728 986 q 754 1017 744 1007 l 764 1021 q 807 1022 786 1029 l 828 1010 q 833 1005 831 1008 q 836 999 835 1001 q 850 957 850 978 q 851 945 850 951 q 851 932 851 939 q 850 921 851 926 q 849 910 849 915 q 849 870 850 890 q 849 831 849 850 q 849 811 849 821 q 850 790 850 801 q 850 778 850 785 q 851 765 850 772 q 853 751 853 760 l 853 719 q 853 706 853 713 q 854 692 853 699 q 856 677 856 685 q 857 663 856 669 q 857 652 857 657 q 858 642 857 647 q 859 636 858 639 q 860 631 860 633 q 860 614 860 622 q 863 597 861 606 q 865 565 863 582 q 867 532 867 549 q 867 522 867 526 q 869 511 868 517 l 869 504 q 872 474 869 489 q 874 443 874 458 l 874 438 q 876 410 876 424 q 878 381 876 396 q 878 369 878 375 q 879 358 878 364 q 880 355 879 357 q 881 351 881 353 q 882 325 881 338 q 885 300 883 313 l 889 269 l 890 260 q 894 229 892 244 q 897 199 896 214 l 901 160 q 908 124 904 142 q 922 89 913 106 q 928 72 926 81 q 932 54 931 63 l 932 43 q 931 31 931 39 q 922 -3 929 14 q 917 -19 919 -11 q 911 -36 914 -28 q 910 -47 910 -42 q 908 -57 910 -51 q 904 -107 904 -82 l 904 -149 q 906 -185 906 -167 q 906 -221 906 -203 l 906 -249 q 906 -263 906 -256 q 907 -278 906 -271 q 908 -285 908 -281 q 907 -292 907 -289 q 906 -306 906 -299 q 906 -321 906 -314 l 906 -375 q 901 -407 906 -390 q 879 -428 897 -424 z "},"Ñ":{"ha":988,"x_min":50,"x_max":932,"o":"m 879 -428 q 860 -419 864 -431 q 857 -412 858 -417 q 853 -406 856 -408 q 850 -392 851 -399 q 847 -378 849 -385 q 845 -367 846 -372 q 844 -356 844 -361 q 842 -331 843 -343 q 839 -307 840 -319 q 838 -301 839 -304 q 838 -296 838 -299 q 837 -260 838 -278 q 835 -224 836 -242 q 833 -215 833 -219 q 833 -206 833 -210 l 833 -196 q 831 -157 832 -176 q 831 -118 831 -137 q 828 -87 831 -103 q 824 -57 826 -71 q 811 -28 819 -40 q 799 -2 804 -15 q 788 25 793 11 q 783 35 786 31 q 776 43 779 39 q 740 88 758 65 q 704 133 722 110 l 667 182 l 631 228 q 608 258 619 243 q 585 288 596 272 q 550 334 568 311 q 513 379 532 357 q 424 489 468 438 q 413 505 418 497 q 401 521 407 513 q 390 535 396 528 q 378 550 385 543 q 369 560 374 556 q 363 569 365 564 l 304 636 q 296 646 300 642 q 288 654 292 650 q 259 685 274 669 q 229 715 244 701 q 218 728 224 722 q 204 738 213 733 q 203 738 204 738 q 200 736 201 738 l 200 732 q 199 724 199 729 q 199 702 199 713 q 197 681 199 692 q 197 670 196 675 q 196 661 197 665 l 196 596 q 196 587 196 592 q 194 576 196 582 q 193 560 193 568 q 193 542 193 551 l 193 506 q 192 481 193 493 q 190 456 192 468 q 189 422 189 439 q 189 389 189 406 q 189 365 189 376 q 186 342 189 353 l 186 328 q 186 304 186 317 q 185 281 186 292 q 185 266 185 274 q 183 251 185 258 q 183 231 182 242 q 184 206 183 218 q 186 182 185 193 l 190 154 q 197 119 193 136 q 206 83 201 101 q 208 74 207 79 q 211 65 210 69 q 215 47 215 56 q 213 28 214 38 q 206 15 211 24 q 199 5 203 10 q 192 -4 196 0 q 185 -17 186 -12 q 182 -26 185 -21 l 182 -32 q 151 -54 176 -54 q 135 -44 143 -56 q 134 -42 135 -43 q 133 -39 133 -40 q 126 -20 132 -28 q 114 -6 119 -12 q 108 2 111 -1 q 101 8 104 6 q 94 22 96 17 l 89 36 q 79 65 83 51 q 72 93 75 79 q 71 97 72 96 q 65 129 67 113 q 60 163 63 146 q 58 176 60 171 q 58 215 57 196 q 58 251 58 233 l 58 301 q 59 323 58 313 q 61 343 60 333 q 63 356 63 350 q 63 368 63 363 q 63 382 63 375 q 64 396 63 389 q 65 418 65 407 q 65 439 65 429 q 66 458 67 449 q 65 476 65 467 q 67 499 67 488 q 67 524 67 511 q 68 557 68 540 q 68 590 68 574 q 69 617 69 604 q 71 644 69 631 q 72 657 72 649 l 72 788 q 69 823 69 806 q 68 858 68 840 q 64 878 68 868 q 61 886 64 881 q 63 944 50 914 q 106 981 74 969 q 146 979 124 986 q 156 975 151 978 q 164 968 161 972 q 167 964 167 965 q 200 931 182 946 q 219 912 210 921 q 238 892 228 903 l 274 854 q 298 830 286 842 q 321 804 310 818 l 331 794 q 362 761 346 778 q 392 726 378 744 q 408 708 400 717 q 425 688 417 699 l 457 650 q 508 583 483 617 q 560 515 533 549 q 581 488 571 501 q 601 460 592 474 l 611 447 q 626 426 618 436 q 643 404 635 415 q 665 377 654 390 q 686 351 676 364 q 704 329 696 342 q 749 276 728 303 q 753 276 751 275 l 753 278 q 753 290 753 283 q 754 301 754 296 q 753 313 753 308 q 753 324 753 318 q 753 342 753 333 q 751 361 753 351 l 751 381 q 750 402 750 392 q 750 422 750 413 l 750 425 q 748 456 749 440 q 746 488 747 472 q 744 506 746 497 q 742 522 743 514 q 741 531 742 526 q 740 540 740 536 q 739 569 739 556 q 738 597 739 583 q 734 642 736 619 q 732 686 732 664 q 733 746 733 717 q 732 806 732 775 l 732 831 q 731 836 732 835 q 729 857 729 847 q 729 876 729 867 l 729 890 q 728 915 729 903 q 722 939 726 928 l 722 942 q 724 972 717 956 q 736 997 728 986 q 754 1017 744 1007 l 764 1021 q 807 1022 786 1029 l 828 1010 q 833 1005 831 1008 q 836 999 835 1001 q 850 957 850 978 q 851 945 850 951 q 851 932 851 939 q 850 921 851 926 q 849 910 849 915 q 849 870 850 890 q 849 831 849 850 q 849 811 849 821 q 850 790 850 801 q 850 778 850 785 q 851 765 850 772 q 853 751 853 760 l 853 719 q 853 706 853 713 q 854 692 853 699 q 856 677 856 685 q 857 663 856 669 q 857 652 857 657 q 858 642 857 647 q 859 636 858 639 q 860 631 860 633 q 860 614 860 622 q 863 597 861 606 q 865 565 863 582 q 867 532 867 549 q 867 522 867 526 q 869 511 868 517 l 869 504 q 872 474 869 489 q 874 443 874 458 l 874 438 q 876 410 876 424 q 878 381 876 396 q 878 369 878 375 q 879 358 878 364 q 880 355 879 357 q 881 351 881 353 q 882 325 881 338 q 885 300 883 313 l 889 269 l 890 260 q 894 229 892 244 q 897 199 896 214 l 901 160 q 908 124 904 142 q 922 89 913 106 q 928 72 926 81 q 932 54 931 63 l 932 43 q 931 31 931 39 q 922 -3 929 14 q 917 -19 919 -11 q 911 -36 914 -28 q 910 -47 910 -42 q 908 -57 910 -51 q 904 -107 904 -82 l 904 -149 q 906 -185 906 -167 q 906 -221 906 -203 l 906 -249 q 906 -263 906 -256 q 907 -278 906 -271 q 908 -285 908 -281 q 907 -292 907 -289 q 906 -306 906 -299 q 906 -321 906 -314 l 906 -375 q 901 -407 906 -390 q 879 -428 897 -424 m 575 1026 q 549 1032 563 1029 q 525 1040 536 1035 l 506 1049 q 446 1097 469 1063 l 429 1121 q 419 1131 425 1126 q 407 1136 414 1136 q 397 1136 401 1136 q 388 1135 392 1136 q 374 1132 381 1133 q 361 1128 368 1131 q 358 1127 360 1128 q 356 1126 357 1126 l 322 1103 q 278 1057 297 1086 q 268 1047 274 1051 q 256 1038 263 1042 q 239 1035 247 1033 q 229 1036 236 1036 q 215 1034 222 1035 q 201 1031 208 1033 q 182 1036 189 1029 q 158 1063 165 1047 q 154 1075 154 1069 q 147 1094 153 1085 q 147 1129 139 1113 q 154 1143 150 1136 q 164 1156 158 1150 q 168 1160 167 1157 q 171 1165 169 1163 l 181 1179 q 183 1182 182 1181 q 186 1185 185 1183 l 208 1197 q 230 1210 219 1204 q 250 1224 240 1217 q 292 1244 269 1236 q 314 1256 306 1247 q 322 1258 317 1258 q 332 1260 325 1260 q 340 1262 336 1261 q 349 1264 344 1263 q 366 1269 357 1268 q 385 1271 375 1271 q 414 1272 392 1272 q 458 1263 436 1272 q 486 1247 472 1257 q 494 1243 490 1246 q 500 1238 497 1240 q 504 1233 503 1236 q 507 1228 506 1231 q 526 1210 518 1219 q 543 1189 535 1200 q 549 1181 546 1185 q 554 1175 551 1178 q 572 1165 563 1168 q 624 1175 599 1160 q 629 1179 626 1178 q 658 1194 643 1190 q 721 1185 692 1206 q 739 1161 735 1175 q 745 1136 743 1149 q 744 1111 747 1124 q 742 1103 743 1107 q 743 1094 742 1099 q 733 1078 746 1082 q 717 1069 719 1075 l 711 1061 q 703 1056 707 1058 q 693 1053 699 1053 q 680 1051 686 1054 q 667 1046 674 1049 q 643 1038 656 1040 q 619 1031 631 1035 q 598 1027 610 1029 q 575 1026 586 1025 z "},"O":{"ha":958,"x_min":42,"x_max":917,"o":"m 508 -40 q 472 -35 489 -44 q 453 -26 463 -29 q 432 -21 443 -22 q 405 -15 418 -18 q 378 -6 392 -11 q 367 0 372 -3 q 357 7 363 3 q 346 14 353 13 q 325 28 336 18 q 321 33 322 31 q 309 43 315 39 q 296 51 303 47 q 256 78 278 63 q 249 85 251 81 q 235 97 243 92 q 221 108 228 103 l 183 133 q 179 135 182 135 q 174 138 176 136 q 144 161 156 146 q 124 190 133 175 q 106 219 114 206 q 100 228 103 222 q 90 243 94 235 q 83 258 86 251 q 78 274 81 265 l 74 294 q 68 317 69 306 q 64 340 67 329 q 60 358 63 349 q 53 375 57 367 q 49 384 50 379 q 44 394 47 389 q 43 404 43 397 q 42 426 42 415 q 47 447 43 438 l 51 463 q 56 476 54 469 q 58 489 57 483 q 56 503 58 499 q 53 509 54 506 q 50 515 51 513 q 49 540 43 529 l 53 551 q 57 565 57 558 q 71 611 57 588 q 90 638 81 628 q 103 654 99 646 q 118 675 108 665 q 133 697 131 688 q 140 708 136 704 l 163 731 q 163 754 172 743 q 156 766 158 760 q 151 778 154 772 q 161 819 147 801 q 173 832 167 826 q 188 840 179 838 q 195 843 192 842 q 203 846 199 844 q 217 850 210 847 q 232 856 225 853 q 242 860 238 858 q 251 861 246 861 q 261 863 257 863 q 269 864 265 864 q 292 875 281 865 q 331 906 311 890 q 369 939 351 922 q 394 957 381 949 q 421 972 407 965 q 442 979 431 976 q 457 983 449 982 q 472 986 465 985 l 501 990 q 538 994 521 992 q 574 1000 556 997 q 579 1001 576 1000 q 583 1001 582 1001 l 601 1001 q 619 1001 611 1001 q 636 997 628 1000 q 656 987 647 993 q 669 969 664 981 q 681 943 679 956 q 683 926 682 935 q 683 910 683 918 l 683 897 q 688 890 683 893 l 696 886 q 733 868 715 879 q 768 844 751 857 q 785 831 779 838 q 803 812 794 821 q 819 793 811 803 q 831 780 825 786 q 842 767 836 774 q 847 760 846 763 q 857 743 850 751 q 871 715 865 729 q 879 692 875 704 q 886 668 883 681 q 889 656 886 664 q 891 648 890 651 q 892 642 892 644 q 895 625 893 633 q 899 608 897 617 q 901 594 900 601 q 904 578 903 586 q 908 552 906 565 q 913 526 911 539 l 913 519 q 915 488 913 504 q 917 457 917 472 q 917 444 917 451 q 915 431 917 438 q 914 424 914 428 q 911 391 914 407 q 906 360 908 375 q 876 250 896 306 q 874 238 875 244 q 869 225 872 232 l 849 164 q 844 152 847 158 q 838 139 840 146 l 813 94 q 792 66 804 79 q 764 43 781 53 q 733 17 747 33 q 703 0 724 3 q 684 -2 693 -1 q 667 -6 675 -3 l 653 -10 q 651 -10 651 -10 q 647 -11 650 -11 q 616 -18 632 -14 q 585 -25 600 -22 q 576 -26 582 -26 q 560 -28 568 -26 q 543 -32 551 -29 l 508 -40 m 471 104 q 486 106 479 103 q 497 107 492 108 l 508 107 q 521 107 515 107 q 532 110 526 107 q 548 115 536 113 q 560 117 560 117 q 582 123 571 119 q 604 132 593 126 l 663 157 q 683 167 674 161 q 703 179 693 174 q 715 189 710 186 q 728 206 724 196 q 733 219 731 213 q 738 233 736 226 q 747 265 743 249 q 757 296 751 281 q 770 337 764 317 q 781 379 776 357 q 783 394 782 386 q 786 411 785 403 q 788 431 788 421 q 789 450 788 440 l 789 460 q 788 479 789 469 q 788 499 788 489 q 782 549 786 524 q 772 599 778 574 q 767 620 769 610 q 763 640 765 631 q 750 677 758 660 q 731 711 742 694 q 726 715 729 715 q 706 738 717 726 q 679 754 694 749 q 668 760 674 756 q 657 765 663 763 q 644 769 651 768 q 593 778 621 775 q 589 778 592 779 q 586 774 586 776 q 585 767 586 771 q 585 761 585 764 q 582 727 583 744 q 582 692 581 710 q 582 677 582 685 q 581 663 582 669 l 581 643 q 579 631 579 638 q 578 619 579 625 l 578 611 q 576 592 576 601 q 574 572 576 583 q 572 564 572 569 q 572 535 575 550 l 572 510 q 568 490 571 500 q 554 472 565 479 q 544 472 551 471 q 535 475 538 474 q 522 486 525 479 q 519 494 521 490 q 517 503 517 499 q 513 526 515 514 q 511 550 511 538 q 511 578 511 564 q 510 606 511 592 l 510 628 q 511 640 511 633 q 511 651 511 646 q 510 674 511 663 q 510 696 510 685 q 509 712 510 704 q 507 728 508 719 q 504 738 506 733 q 500 746 503 742 q 483 765 496 758 q 465 765 475 772 q 455 758 460 761 q 444 749 450 754 l 439 743 q 424 733 431 739 q 411 719 418 726 q 403 712 407 715 q 393 706 399 708 q 382 697 385 700 q 368 687 375 692 q 354 675 361 682 q 349 671 351 672 q 343 667 346 669 q 338 661 340 664 q 317 640 328 651 q 296 619 307 629 q 282 605 289 613 q 269 589 275 597 q 263 579 268 585 l 253 567 q 236 535 243 551 q 224 500 229 518 q 219 475 219 488 q 218 449 218 463 q 221 422 218 436 q 222 416 221 419 q 221 410 222 413 q 222 388 221 399 q 224 367 224 378 q 226 360 225 364 q 228 354 226 357 q 233 346 231 350 q 236 336 236 342 q 239 332 236 335 q 242 324 242 326 q 249 306 247 314 q 257 290 251 296 l 264 282 q 267 274 264 278 q 271 268 269 271 q 276 257 276 263 q 285 242 279 247 q 290 236 288 239 q 294 231 293 233 q 301 217 301 224 q 303 211 301 213 q 308 206 307 210 q 311 199 310 201 q 312 197 311 197 q 313 196 313 197 q 325 185 313 193 q 339 178 338 176 l 342 181 q 342 181 342 181 q 343 179 343 181 l 344 179 q 351 163 354 172 q 353 158 349 163 l 357 156 l 358 154 q 375 140 364 147 q 382 139 378 139 l 388 140 q 407 129 400 143 q 411 122 407 126 q 431 114 421 117 q 451 108 442 111 q 461 106 457 107 q 471 104 465 106 z "},"Ó":{"ha":958,"x_min":42,"x_max":917,"o":"m 508 -40 q 472 -35 489 -44 q 453 -26 463 -29 q 432 -21 443 -22 q 405 -15 418 -18 q 378 -6 392 -11 q 367 0 372 -3 q 357 7 363 3 q 346 14 353 13 q 325 28 336 18 q 321 33 322 31 q 309 43 315 39 q 296 51 303 47 q 256 78 278 63 q 249 85 251 81 q 235 97 243 92 q 221 108 228 103 l 183 133 q 179 135 182 135 q 174 138 176 136 q 144 161 156 146 q 124 190 133 175 q 106 219 114 206 q 100 228 103 222 q 90 243 94 235 q 83 258 86 251 q 78 274 81 265 l 74 294 q 68 317 69 306 q 64 340 67 329 q 60 358 63 349 q 53 375 57 367 q 49 384 50 379 q 44 394 47 389 q 43 404 43 397 q 42 426 42 415 q 47 447 43 438 l 51 463 q 56 476 54 469 q 58 489 57 483 q 56 503 58 499 q 53 509 54 506 q 50 515 51 513 q 49 540 43 529 l 53 551 q 57 565 57 558 q 71 611 57 588 q 90 638 81 628 q 103 654 99 646 q 118 675 108 665 q 133 697 131 688 q 140 708 136 704 l 163 731 q 163 754 172 743 q 156 766 158 760 q 151 778 154 772 q 161 819 147 801 q 173 832 167 826 q 188 840 179 838 q 195 843 192 842 q 203 846 199 844 q 217 850 210 847 q 232 856 225 853 q 242 860 238 858 q 251 861 246 861 q 261 863 257 863 q 269 864 265 864 q 292 875 281 865 q 331 906 311 890 q 369 939 351 922 q 394 957 381 949 q 421 972 407 965 q 442 979 431 976 q 457 983 449 982 q 472 986 465 985 l 501 990 q 538 994 521 992 q 574 1000 556 997 q 579 1001 576 1000 q 583 1001 582 1001 l 601 1001 q 619 1001 611 1001 q 636 997 628 1000 q 656 987 647 993 q 669 969 664 981 q 681 943 679 956 q 683 926 682 935 q 683 910 683 918 l 683 897 q 688 890 683 893 l 696 886 q 733 868 715 879 q 768 844 751 857 q 785 831 779 838 q 803 812 794 821 q 819 793 811 803 q 831 780 825 786 q 842 767 836 774 q 847 760 846 763 q 857 743 850 751 q 871 715 865 729 q 879 692 875 704 q 886 668 883 681 q 889 656 886 664 q 891 648 890 651 q 892 642 892 644 q 895 625 893 633 q 899 608 897 617 q 901 594 900 601 q 904 578 903 586 q 908 552 906 565 q 913 526 911 539 l 913 519 q 915 488 913 504 q 917 457 917 472 q 917 444 917 451 q 915 431 917 438 q 914 424 914 428 q 911 391 914 407 q 906 360 908 375 q 876 250 896 306 q 874 238 875 244 q 869 225 872 232 l 849 164 q 844 152 847 158 q 838 139 840 146 l 813 94 q 792 66 804 79 q 764 43 781 53 q 733 17 747 33 q 703 0 724 3 q 684 -2 693 -1 q 667 -6 675 -3 l 653 -10 q 651 -10 651 -10 q 647 -11 650 -11 q 616 -18 632 -14 q 585 -25 600 -22 q 576 -26 582 -26 q 560 -28 568 -26 q 543 -32 551 -29 l 508 -40 m 471 104 q 486 106 479 103 q 497 107 492 108 l 508 107 q 521 107 515 107 q 532 110 526 107 q 548 115 536 113 q 560 117 560 117 q 582 123 571 119 q 604 132 593 126 l 663 157 q 683 167 674 161 q 703 179 693 174 q 715 189 710 186 q 728 206 724 196 q 733 219 731 213 q 738 233 736 226 q 747 265 743 249 q 757 296 751 281 q 770 337 764 317 q 781 379 776 357 q 783 394 782 386 q 786 411 785 403 q 788 431 788 421 q 789 450 788 440 l 789 460 q 788 479 789 469 q 788 499 788 489 q 782 549 786 524 q 772 599 778 574 q 767 620 769 610 q 763 640 765 631 q 750 677 758 660 q 731 711 742 694 q 726 715 729 715 q 706 738 717 726 q 679 754 694 749 q 668 760 674 756 q 657 765 663 763 q 644 769 651 768 q 593 778 621 775 q 589 778 592 779 q 586 774 586 776 q 585 767 586 771 q 585 761 585 764 q 582 727 583 744 q 582 692 581 710 q 582 677 582 685 q 581 663 582 669 l 581 643 q 579 631 579 638 q 578 619 579 625 l 578 611 q 576 592 576 601 q 574 572 576 583 q 572 564 572 569 q 572 535 575 550 l 572 510 q 568 490 571 500 q 554 472 565 479 q 544 472 551 471 q 535 475 538 474 q 522 486 525 479 q 519 494 521 490 q 517 503 517 499 q 513 526 515 514 q 511 550 511 538 q 511 578 511 564 q 510 606 511 592 l 510 628 q 511 640 511 633 q 511 651 511 646 q 510 674 511 663 q 510 696 510 685 q 509 712 510 704 q 507 728 508 719 q 504 738 506 733 q 500 746 503 742 q 483 765 496 758 q 465 765 475 772 q 455 758 460 761 q 444 749 450 754 l 439 743 q 424 733 431 739 q 411 719 418 726 q 403 712 407 715 q 393 706 399 708 q 382 697 385 700 q 368 687 375 692 q 354 675 361 682 q 349 671 351 672 q 343 667 346 669 q 338 661 340 664 q 317 640 328 651 q 296 619 307 629 q 282 605 289 613 q 269 589 275 597 q 263 579 268 585 l 253 567 q 236 535 243 551 q 224 500 229 518 q 219 475 219 488 q 218 449 218 463 q 221 422 218 436 q 222 416 221 419 q 221 410 222 413 q 222 388 221 399 q 224 367 224 378 q 226 360 225 364 q 228 354 226 357 q 233 346 231 350 q 236 336 236 342 q 239 332 236 335 q 242 324 242 326 q 249 306 247 314 q 257 290 251 296 l 264 282 q 267 274 264 278 q 271 268 269 271 q 276 257 276 263 q 285 242 279 247 q 290 236 288 239 q 294 231 293 233 q 301 217 301 224 q 303 211 301 213 q 308 206 307 210 q 311 199 310 201 q 312 197 311 197 q 313 196 313 197 q 325 185 313 193 q 339 178 338 176 l 342 181 q 342 181 342 181 q 343 179 343 181 l 344 179 q 351 163 354 172 q 353 158 349 163 l 357 156 l 358 154 q 375 140 364 147 q 382 139 378 139 l 388 140 q 407 129 400 143 q 411 122 407 126 q 431 114 421 117 q 451 108 442 111 q 461 106 457 107 q 471 104 465 106 m 382 999 q 368 1011 372 1000 q 361 1035 361 1022 q 358 1051 360 1043 q 354 1068 357 1060 q 349 1082 354 1074 l 342 1090 q 322 1146 322 1111 q 331 1183 324 1165 q 351 1214 338 1200 q 365 1225 358 1221 q 379 1233 372 1229 q 391 1239 386 1236 q 401 1243 396 1242 q 407 1247 404 1246 q 411 1250 410 1249 q 424 1259 418 1254 q 435 1269 429 1264 q 473 1298 454 1283 q 510 1326 492 1313 q 543 1360 529 1342 q 552 1370 547 1365 q 563 1381 557 1375 q 581 1392 569 1388 l 610 1400 q 622 1401 618 1403 q 628 1400 624 1400 q 671 1382 650 1400 q 685 1371 682 1374 q 690 1354 688 1368 q 693 1336 693 1343 q 692 1326 694 1332 q 690 1321 692 1324 q 688 1315 689 1318 l 675 1285 q 672 1277 674 1281 q 667 1271 669 1274 q 653 1253 661 1261 q 638 1236 646 1244 q 624 1224 632 1231 q 610 1210 617 1217 q 569 1178 590 1192 q 544 1160 557 1169 q 518 1142 531 1151 q 513 1138 515 1140 q 507 1135 510 1136 q 494 1125 500 1129 q 481 1115 488 1121 q 460 1097 471 1106 q 438 1079 449 1089 q 417 1046 421 1067 l 413 1021 q 403 1003 411 1008 q 382 999 393 997 z "},"Ô":{"ha":958,"x_min":42,"x_max":949,"o":"m 508 -40 q 472 -35 489 -44 q 453 -26 463 -29 q 432 -21 443 -22 q 405 -15 418 -18 q 378 -6 392 -11 q 367 0 372 -3 q 357 7 363 3 q 346 14 353 13 q 325 28 336 18 q 321 33 322 31 q 309 43 315 39 q 296 51 303 47 q 256 78 278 63 q 249 85 251 81 q 235 97 243 92 q 221 108 228 103 l 183 133 q 179 135 182 135 q 174 138 176 136 q 144 161 156 146 q 124 190 133 175 q 106 219 114 206 q 100 228 103 222 q 90 243 94 235 q 83 258 86 251 q 78 274 81 265 l 74 294 q 68 317 69 306 q 64 340 67 329 q 60 358 63 349 q 53 375 57 367 q 49 384 50 379 q 44 394 47 389 q 43 404 43 397 q 42 426 42 415 q 47 447 43 438 l 51 463 q 56 476 54 469 q 58 489 57 483 q 56 503 58 499 q 53 509 54 506 q 50 515 51 513 q 49 540 43 529 l 53 551 q 57 565 57 558 q 71 611 57 588 q 90 638 81 628 q 103 654 99 646 q 118 675 108 665 q 133 697 131 688 q 140 708 136 704 l 163 731 q 163 754 172 743 q 156 766 158 760 q 151 778 154 772 q 161 819 147 801 q 173 832 167 826 q 188 840 179 838 q 195 843 192 842 q 203 846 199 844 q 217 850 210 847 q 232 856 225 853 q 242 860 238 858 q 251 861 246 861 q 261 863 257 863 q 269 864 265 864 q 292 875 281 865 q 331 906 311 890 q 369 939 351 922 q 394 957 381 949 q 421 972 407 965 q 442 979 431 976 q 457 983 449 982 q 472 986 465 985 l 501 990 q 538 994 521 992 q 574 1000 556 997 q 579 1001 576 1000 q 583 1001 582 1001 l 601 1001 q 619 1001 611 1001 q 636 997 628 1000 q 656 987 647 993 q 669 969 664 981 q 681 943 679 956 q 683 926 682 935 q 683 910 683 918 l 683 897 q 688 890 683 893 l 696 886 q 733 868 715 879 q 768 844 751 857 q 785 831 779 838 q 803 812 794 821 q 819 793 811 803 q 831 780 825 786 q 842 767 836 774 q 847 760 846 763 q 857 743 850 751 q 871 715 865 729 q 879 692 875 704 q 886 668 883 681 q 889 656 886 664 q 891 648 890 651 q 892 642 892 644 q 895 625 893 633 q 899 608 897 617 q 901 594 900 601 q 904 578 903 586 q 908 552 906 565 q 913 526 911 539 l 913 519 q 915 488 913 504 q 917 457 917 472 q 917 444 917 451 q 915 431 917 438 q 914 424 914 428 q 911 391 914 407 q 906 360 908 375 q 876 250 896 306 q 874 238 875 244 q 869 225 872 232 l 849 164 q 844 152 847 158 q 838 139 840 146 l 813 94 q 792 66 804 79 q 764 43 781 53 q 733 17 747 33 q 703 0 724 3 q 684 -2 693 -1 q 667 -6 675 -3 l 653 -10 q 651 -10 651 -10 q 647 -11 650 -11 q 616 -18 632 -14 q 585 -25 600 -22 q 576 -26 582 -26 q 560 -28 568 -26 q 543 -32 551 -29 l 508 -40 m 471 104 q 486 106 479 103 q 497 107 492 108 l 508 107 q 521 107 515 107 q 532 110 526 107 q 548 115 536 113 q 560 117 560 117 q 582 123 571 119 q 604 132 593 126 l 663 157 q 683 167 674 161 q 703 179 693 174 q 715 189 710 186 q 728 206 724 196 q 733 219 731 213 q 738 233 736 226 q 747 265 743 249 q 757 296 751 281 q 770 337 764 317 q 781 379 776 357 q 783 394 782 386 q 786 411 785 403 q 788 431 788 421 q 789 450 788 440 l 789 460 q 788 479 789 469 q 788 499 788 489 q 782 549 786 524 q 772 599 778 574 q 767 620 769 610 q 763 640 765 631 q 750 677 758 660 q 731 711 742 694 q 726 715 729 715 q 706 738 717 726 q 679 754 694 749 q 668 760 674 756 q 657 765 663 763 q 644 769 651 768 q 593 778 621 775 q 589 778 592 779 q 586 774 586 776 q 585 767 586 771 q 585 761 585 764 q 582 727 583 744 q 582 692 581 710 q 582 677 582 685 q 581 663 582 669 l 581 643 q 579 631 579 638 q 578 619 579 625 l 578 611 q 576 592 576 601 q 574 572 576 583 q 572 564 572 569 q 572 535 575 550 l 572 510 q 568 490 571 500 q 554 472 565 479 q 544 472 551 471 q 535 475 538 474 q 522 486 525 479 q 519 494 521 490 q 517 503 517 499 q 513 526 515 514 q 511 550 511 538 q 511 578 511 564 q 510 606 511 592 l 510 628 q 511 640 511 633 q 511 651 511 646 q 510 674 511 663 q 510 696 510 685 q 509 712 510 704 q 507 728 508 719 q 504 738 506 733 q 500 746 503 742 q 483 765 496 758 q 465 765 475 772 q 455 758 460 761 q 444 749 450 754 l 439 743 q 424 733 431 739 q 411 719 418 726 q 403 712 407 715 q 393 706 399 708 q 382 697 385 700 q 368 687 375 692 q 354 675 361 682 q 349 671 351 672 q 343 667 346 669 q 338 661 340 664 q 317 640 328 651 q 296 619 307 629 q 282 605 289 613 q 269 589 275 597 q 263 579 268 585 l 253 567 q 236 535 243 551 q 224 500 229 518 q 219 475 219 488 q 218 449 218 463 q 221 422 218 436 q 222 416 221 419 q 221 410 222 413 q 222 388 221 399 q 224 367 224 378 q 226 360 225 364 q 228 354 226 357 q 233 346 231 350 q 236 336 236 342 q 239 332 236 335 q 242 324 242 326 q 249 306 247 314 q 257 290 251 296 l 264 282 q 267 274 264 278 q 271 268 269 271 q 276 257 276 263 q 285 242 279 247 q 290 236 288 239 q 294 231 293 233 q 301 217 301 224 q 303 211 301 213 q 308 206 307 210 q 311 199 310 201 q 312 197 311 197 q 313 196 313 197 q 325 185 313 193 q 339 178 338 176 l 342 181 q 342 181 342 181 q 343 179 343 181 l 344 179 q 351 163 354 172 q 353 158 349 163 l 357 156 l 358 154 q 375 140 364 147 q 382 139 378 139 l 388 140 q 407 129 400 143 q 411 122 407 126 q 431 114 421 117 q 451 108 442 111 q 461 106 457 107 q 471 104 465 106 m 854 989 q 844 992 846 992 q 828 1003 835 993 q 818 1008 822 1008 l 808 1013 q 801 1017 806 1015 q 794 1021 797 1018 q 782 1026 790 1024 q 771 1033 776 1029 q 760 1039 765 1038 q 758 1040 758 1039 q 756 1040 757 1040 q 741 1050 749 1047 q 726 1057 733 1053 q 717 1064 721 1060 q 711 1068 714 1067 q 706 1069 708 1069 q 700 1067 700 1072 q 699 1061 699 1064 q 697 1056 699 1058 q 696 1049 696 1053 q 683 1032 694 1039 q 660 1035 669 1028 q 644 1056 646 1044 l 640 1067 q 622 1081 635 1075 q 614 1085 618 1083 q 607 1088 610 1086 q 588 1098 597 1093 q 572 1108 579 1103 q 568 1111 571 1110 q 563 1113 565 1113 q 538 1131 553 1117 q 525 1142 533 1133 q 515 1144 521 1146 l 511 1144 q 503 1139 504 1144 q 502 1135 503 1138 q 501 1132 501 1133 q 502 1122 503 1126 q 501 1113 501 1118 q 497 1092 501 1104 q 486 1082 496 1085 q 480 1081 483 1082 q 474 1079 476 1079 q 465 1083 469 1079 q 449 1108 453 1092 l 449 1113 q 443 1131 449 1124 q 439 1143 442 1135 q 431 1160 438 1151 q 426 1161 431 1161 q 418 1154 421 1156 q 403 1143 410 1149 q 388 1131 396 1138 q 370 1116 379 1124 q 353 1101 361 1108 q 344 1094 347 1096 q 333 1087 339 1092 q 324 1078 328 1082 q 319 1075 321 1076 q 314 1071 317 1074 l 276 1042 q 273 1040 275 1040 q 268 1038 271 1039 l 239 1019 q 226 1012 233 1015 q 211 1006 219 1008 q 198 998 206 1001 q 183 990 190 994 q 172 985 178 986 q 158 983 165 985 q 147 983 153 983 q 136 985 142 983 q 129 988 132 985 q 122 994 125 990 q 117 1000 119 997 q 108 1013 111 1007 q 101 1024 106 1018 q 100 1033 100 1028 q 99 1042 100 1038 l 101 1053 q 104 1067 100 1060 q 108 1074 107 1069 q 112 1083 108 1079 q 119 1090 115 1086 q 131 1104 125 1099 q 139 1111 135 1108 q 147 1117 143 1114 q 170 1129 158 1124 q 192 1140 182 1135 q 197 1143 197 1143 q 215 1155 207 1150 q 232 1165 222 1160 l 238 1169 q 253 1181 244 1175 q 268 1193 261 1188 q 292 1211 282 1204 q 305 1221 299 1215 q 318 1232 311 1226 q 322 1236 318 1232 q 332 1242 328 1239 q 340 1249 336 1246 q 357 1263 346 1256 q 367 1274 361 1265 q 386 1297 379 1282 q 390 1311 390 1304 q 395 1322 393 1317 q 399 1332 397 1326 q 410 1349 403 1342 q 414 1351 411 1349 q 457 1374 432 1369 q 468 1374 463 1374 q 479 1371 474 1374 q 513 1356 496 1367 q 521 1351 517 1353 q 529 1346 525 1349 q 535 1342 532 1344 q 543 1336 539 1339 q 549 1333 546 1335 q 553 1329 551 1332 q 575 1307 561 1315 q 578 1304 578 1304 q 600 1289 589 1296 q 621 1274 611 1282 q 635 1264 628 1272 q 642 1260 639 1263 q 649 1256 646 1258 q 672 1240 660 1247 q 694 1225 683 1232 l 700 1221 q 721 1208 710 1215 q 742 1193 732 1200 q 747 1190 744 1192 q 753 1186 750 1188 q 762 1180 757 1183 q 772 1174 767 1176 q 788 1165 779 1169 q 804 1157 796 1161 q 819 1150 811 1153 q 833 1143 826 1147 q 850 1138 842 1140 q 867 1131 858 1135 q 883 1128 871 1128 q 886 1127 885 1128 q 889 1126 888 1126 q 926 1111 908 1126 q 937 1092 933 1106 q 940 1078 940 1079 q 943 1069 942 1074 q 946 1061 944 1065 q 946 1053 949 1057 q 943 1047 944 1050 q 942 1042 942 1044 q 941 1040 942 1040 q 940 1039 940 1039 q 935 1032 936 1035 l 933 1022 q 926 1014 933 1017 q 918 1008 921 1011 q 914 1004 917 1006 q 908 1000 911 1003 l 894 992 q 854 989 875 983 z "}}}
